<svg width="213" height="33" viewBox="0 0 213 33" fill="none" xmlns="http://www.w3.org/2000/svg">
<path d="M28.512 14.752C28.512 21.408 25.28 25.3227 18.816 26.496C19.9893 27.0507 21.344 27.584 22.88 28.096C21.4507 29.312 19.5733 30.9333 17.248 32.96C14.8587 31.1253 12.8213 29.0453 11.136 26.72C7.31733 26.272 4.50133 25.0133 2.688 22.944C0.896001 20.8747 1.3113e-06 18.144 1.3113e-06 14.752C1.3113e-06 10.9547 1.14133 7.98933 3.424 5.856C5.728 3.72267 9.33334 2.656 14.24 2.656C19.168 2.656 22.7733 3.72267 25.056 5.856C27.36 7.98933 28.512 10.9547 28.512 14.752ZM14.24 20.352C16.608 20.352 18.3147 19.904 19.36 19.008C20.4053 18.0907 20.928 16.672 20.928 14.752C20.928 12.8747 20.4053 11.4773 19.36 10.56C18.3147 9.64267 16.608 9.184 14.24 9.184C11.8933 9.184 10.1973 9.64267 9.152 10.56C8.10667 11.4773 7.584 12.8747 7.584 14.752C7.584 16.6507 8.10667 18.0587 9.152 18.976C10.1973 19.8933 11.8933 20.352 14.24 20.352ZM50.7425 9.088C50.5932 11.776 50.5185 14.6773 50.5185 17.792C50.5185 20.928 50.5932 23.8507 50.7425 26.56C49.3772 26.496 48.2998 26.464 47.5105 26.464C46.7638 26.464 45.6865 26.496 44.2785 26.56L43.3505 21.856C42.8598 23.5627 42.0918 24.832 41.0465 25.664C40.0012 26.4747 38.7852 26.88 37.3985 26.88C36.1185 26.88 35.0092 26.6027 34.0705 26.048C33.1318 25.472 32.4172 24.704 31.9265 23.744C31.4572 22.784 31.2225 21.7067 31.2225 20.512V15.904C31.2225 13.0667 31.1692 10.7947 31.0625 9.088H38.2625C38.1345 12.224 38.0705 15.328 38.0705 18.4C38.0705 19.3387 38.2945 20.0853 38.7425 20.64C39.2118 21.1947 39.7985 21.472 40.5025 21.472C41.1638 21.472 41.7398 21.184 42.2305 20.608C42.7425 20.0107 43.0518 19.2 43.1585 18.176V17.44C43.2012 15.776 43.2225 14.624 43.2225 13.984C43.2225 12.512 43.1798 10.88 43.0945 9.088H50.7425ZM73.8245 21.248C73.8245 21.9733 73.9098 22.4853 74.0805 22.784C74.2512 23.0827 74.5925 23.296 75.1045 23.424L74.9765 26.432C74.2938 26.5387 73.6965 26.6133 73.1845 26.656C72.6938 26.6987 72.0325 26.72 71.2005 26.72C69.3658 26.72 68.1498 26.3147 67.5525 25.504C66.9552 24.672 66.6565 23.616 66.6565 22.336V21.536C66.0378 23.2853 65.1312 24.5867 63.9365 25.44C62.7632 26.2933 61.2592 26.72 59.4245 26.72C57.2912 26.72 55.6805 26.2933 54.5925 25.44C53.5258 24.5867 52.9925 23.3173 52.9925 21.632C52.9925 20.2453 53.4512 19.1573 54.3685 18.368C55.2858 17.5787 56.7045 17.0347 58.6245 16.736C57.0032 15.584 55.3818 14.5813 53.7605 13.728C55.0405 12.1067 56.5018 10.88 58.1445 10.048C59.7872 9.19467 61.7818 8.768 64.1285 8.768C67.4138 8.768 69.8458 9.48267 71.4245 10.912C73.0245 12.32 73.8245 14.496 73.8245 17.44V21.248ZM64.8005 14.4C63.7125 14.4 62.7525 14.5813 61.9205 14.944C61.0885 15.3067 60.3418 15.8507 59.6805 16.576C60.9605 16.4267 62.5605 16.352 64.4805 16.352C65.2698 16.352 65.8245 16.256 66.1445 16.064C66.4645 15.872 66.6245 15.6267 66.6245 15.328C66.6245 15.072 66.4645 14.8587 66.1445 14.688C65.8245 14.496 65.3765 14.4 64.8005 14.4ZM61.4405 21.504C62.6352 21.504 63.7125 21.28 64.6725 20.832C65.6325 20.3627 66.2938 19.7547 66.6565 19.008V18.176C66.1445 18.432 65.5792 18.6347 64.9605 18.784C64.3418 18.912 63.5952 19.04 62.7205 19.168L61.5685 19.36C60.3738 19.5947 59.7765 20 59.7765 20.576C59.7765 21.1947 60.3312 21.504 61.4405 21.504ZM84.5513 13.76C84.5299 15.04 84.5193 17.0027 84.5193 19.648C84.5193 22.8267 84.5406 25.1307 84.5833 26.56H77.0313L77.0633 22.944C77.1059 18.976 77.1273 15.9147 77.1273 13.76C77.1273 11.712 77.1059 8.81067 77.0633 5.056L77.0313 1.6H84.5833C84.5406 4.62933 84.5193 7.104 84.5193 9.024C84.5193 11.1573 84.5299 12.736 84.5513 13.76ZM91.4443 7.2C90.1003 7.2 89.0976 6.86933 88.4363 6.208C87.7963 5.54667 87.4763 4.68267 87.4763 3.616C87.4763 2.57067 87.7963 1.70667 88.4363 1.024C89.0976 0.341333 90.1003 0 91.4443 0C92.7243 0 93.7056 0.352 94.3883 1.056C95.0709 1.73867 95.4123 2.592 95.4123 3.616C95.4123 4.68267 95.0816 5.54667 94.4203 6.208C93.7589 6.86933 92.7669 7.2 91.4443 7.2ZM87.7323 26.56C87.8816 23.1253 87.9563 20.288 87.9563 18.048C87.9563 15.3813 87.8709 12.3947 87.7003 9.088H95.3803C95.2096 12.2667 95.1243 15.2533 95.1243 18.048C95.1243 20.3947 95.1989 23.232 95.3483 26.56H87.7323ZM123.081 26.56C123.252 23.7653 123.337 20.8747 123.337 17.888C123.337 16.928 123.092 16.1813 122.601 15.648C122.132 15.0933 121.503 14.816 120.713 14.816C119.988 14.816 119.359 15.136 118.825 15.776C118.313 16.416 118.057 17.344 118.057 18.56V18.528C118.057 22.304 118.111 24.9813 118.217 26.56H111.017C111.145 23.424 111.209 20.5333 111.209 17.888C111.209 16.9493 110.975 16.2027 110.505 15.648C110.057 15.0933 109.481 14.816 108.777 14.816C108.031 14.816 107.401 15.136 106.889 15.776C106.399 16.3947 106.111 17.248 106.025 18.336C105.983 19.9573 105.961 21.1093 105.961 21.792C105.961 23.2427 106.004 24.832 106.089 26.56H98.4413C98.6119 23.488 98.6973 20.5867 98.6973 17.856C98.6973 15.1253 98.6119 12.2027 98.4413 9.088C99.8493 9.152 100.927 9.184 101.673 9.184C102.463 9.184 103.54 9.152 104.905 9.088L105.865 13.824C106.356 12.096 107.135 10.8267 108.201 10.016C109.268 9.184 110.495 8.768 111.881 8.768C113.545 8.768 114.9 9.22667 115.945 10.144C117.012 11.0613 117.673 12.256 117.929 13.728C118.42 12.2133 119.241 11.008 120.393 10.112C121.545 9.216 122.857 8.768 124.329 8.768C126.249 8.768 127.753 9.41867 128.841 10.72C129.929 12 130.473 13.76 130.473 16V21.312C130.473 23.7227 130.495 25.472 130.537 26.56H123.081ZM150.334 18.56H139.902C140.073 19.4987 140.489 20.2667 141.15 20.864C141.833 21.44 142.793 21.728 144.03 21.728C144.926 21.728 145.769 21.5573 146.558 21.216C147.348 20.8533 147.977 20.352 148.446 19.712C149.876 20.416 151.774 21.1733 154.142 21.984C153.481 23.4773 152.276 24.672 150.526 25.568C148.798 26.4427 146.537 26.88 143.742 26.88C140.116 26.88 137.428 26.048 135.678 24.384C133.95 22.6987 133.086 20.4907 133.086 17.76C133.086 15.0933 133.95 12.928 135.678 11.264C137.406 9.6 140.094 8.768 143.742 8.768C145.918 8.768 147.806 9.13067 149.406 9.856C151.006 10.5813 152.233 11.5947 153.086 12.896C153.94 14.176 154.366 15.648 154.366 17.312C154.366 17.8667 154.345 18.2827 154.302 18.56H150.334ZM144.19 13.6C143.124 13.6 142.249 13.8027 141.566 14.208C140.884 14.6133 140.404 15.168 140.126 15.872H147.678C147.422 15.1893 147.006 14.6453 146.43 14.24C145.854 13.8133 145.108 13.6 144.19 13.6ZM171.09 14.816C169.127 14.688 167.335 14.592 165.714 14.528L165.682 17.92C165.682 19.072 165.927 19.9787 166.418 20.64C166.93 21.28 167.826 21.6 169.106 21.6C169.596 21.6 170.066 21.5573 170.514 21.472C170.428 22.2613 170.386 23.0613 170.386 23.872C170.386 24.256 170.407 25.1307 170.45 26.496C169.511 26.6667 168.722 26.7733 168.082 26.816C167.442 26.8587 166.61 26.88 165.586 26.88C163.09 26.88 161.319 26.2827 160.274 25.088C159.25 23.872 158.738 22.1867 158.738 20.032L158.77 14.624C157.767 14.6667 156.722 14.7307 155.634 14.816V9.152C156.743 9.152 157.682 8.8 158.45 8.096C159.218 7.392 159.676 6.54933 159.826 5.568H168.53C167.442 7.06133 166.236 8.256 164.914 9.152H171.09V14.816ZM189.928 18.56H179.496C179.667 19.4987 180.083 20.2667 180.744 20.864C181.427 21.44 182.387 21.728 183.624 21.728C184.52 21.728 185.363 21.5573 186.152 21.216C186.941 20.8533 187.571 20.352 188.04 19.712C189.469 20.416 191.368 21.1733 193.736 21.984C193.075 23.4773 191.869 24.672 190.12 25.568C188.392 26.4427 186.131 26.88 183.336 26.88C179.709 26.88 177.021 26.048 175.272 24.384C173.544 22.6987 172.68 20.4907 172.68 17.76C172.68 15.0933 173.544 12.928 175.272 11.264C177 9.6 179.688 8.768 183.336 8.768C185.512 8.768 187.4 9.13067 189 9.856C190.6 10.5813 191.827 11.5947 192.68 12.896C193.533 14.176 193.96 15.648 193.96 17.312C193.96 17.8667 193.939 18.2827 193.896 18.56H189.928ZM183.784 13.6C182.717 13.6 181.843 13.8027 181.16 14.208C180.477 14.6133 179.997 15.168 179.72 15.872H187.272C187.016 15.1893 186.6 14.6453 186.024 14.24C185.448 13.8133 184.701 13.6 183.784 13.6ZM203.612 13.824C204.508 10.6027 206.737 8.992 210.3 8.992C210.918 8.992 211.516 9.03467 212.092 9.12L211.068 16.288C209.532 15.712 208.273 15.424 207.292 15.424C206.076 15.424 205.18 15.7867 204.604 16.512C204.028 17.2373 203.74 18.208 203.74 19.424V19.392L203.708 21.504C203.708 23.0187 203.75 24.704 203.836 26.56H196.188C196.358 23.488 196.444 20.5867 196.444 17.856C196.444 15.1253 196.358 12.2027 196.188 9.088C197.596 9.152 198.673 9.184 199.42 9.184C200.209 9.184 201.286 9.152 202.652 9.088L203.612 13.824Z" fill="#155DFC"/>
</svg>
