<svg width="1213" height="802" viewBox="0 0 1213 802" fill="none" xmlns="http://www.w3.org/2000/svg">
<path fill-rule="evenodd" clip-rule="evenodd" d="M1161.43 -350.432C1257.76 -255.71 1378.56 -170.528 1390.89 -35.2806C1405.04 120.047 1347.36 284.157 1228.75 388.213C1107.86 494.274 932.498 545.529 780.022 500.653C643.087 460.352 617.657 287.401 523.88 180.762C424.834 68.1322 253.174 16.2299 224.112 -131.501C188.198 -314.066 198.683 -556.817 359.437 -655.155C519.94 -753.339 709.385 -600.603 883.076 -534.608C991.48 -493.419 1079.06 -431.424 1161.43 -350.432Z" stroke="#155DFC"/>
<path d="M1435.92 -79.7888C1415.28 -211.212 1291.79 -286.806 1191.61 -373.279C1105.95 -447.219 1016.4 -502.257 907.814 -535.635C733.836 -589.114 538.95 -726.383 388.292 -620.212C237.399 -513.874 242.568 -275.916 289.272 -99.7367C327.064 42.8262 498.161 82.6583 602.134 186.465C700.575 284.75 736.419 452.197 872.835 482.894C1024.73 517.076 1192.9 455.835 1304.33 344.48C1413.66 235.231 1459.63 71.1471 1435.92 -79.7888Z" stroke="#155DFC"/>
<path d="M1475.59 -125.848C1447.08 -252.95 1321.61 -318.972 1218.24 -397.104C1129.84 -463.911 1038.85 -512.003 930.639 -537.722C757.252 -578.931 558.115 -700.682 417.65 -587.378C276.965 -473.897 297.124 -241.718 353.943 -72.5404C399.921 64.357 569.627 92.4138 677.809 187.241C780.236 277.024 825.89 438.359 961.129 459.693C1111.72 483.447 1272.14 412.933 1373.95 297.055C1473.84 183.367 1508.34 20.1245 1475.59 -125.848Z" stroke="#155DFC"/>
<path d="M1509.87 -173.038C1473.96 -295.362 1347.23 -351.881 1241.31 -421.628C1150.74 -481.265 1058.83 -522.46 951.507 -540.711C779.554 -569.954 577.341 -676.225 447.346 -556.653C317.149 -436.895 351.572 -211.418 417.801 -49.7965C471.392 80.9861 638.916 97.6184 750.589 183.366C856.322 264.552 911.148 419.223 1044.58 431.476C1193.16 445.119 1345.37 366.071 1437.45 246.438C1527.79 129.067 1551.11 -32.5525 1509.87 -173.038Z" stroke="#155DFC"/>
<path d="M1538.77 -220.942C1495.96 -338.075 1368.67 -385.21 1260.84 -446.577C1168.65 -499.049 1076.31 -533.433 970.386 -544.442C800.673 -562.082 596.535 -652.995 477.221 -528.026C357.72 -402.861 405.626 -184.938 480.53 -31.3665C541.141 92.9021 705.73 98.5124 820.183 175.134C928.547 247.681 991.879 395.19 1122.91 398.687C1268.82 402.582 1412.39 315.762 1494.68 193.138C1575.43 72.8318 1587.95 -86.4185 1538.77 -220.942Z" stroke="#155DFC"/>
<path d="M1562.34 -269.15C1513.14 -380.723 1385.95 -418.642 1276.86 -471.682C1183.58 -517.034 1091.3 -544.728 987.257 -548.755C820.549 -555.207 615.607 -630.969 507.115 -501.472C398.454 -371.772 459.013 -162.181 541.833 -17.0906C608.85 100.316 769.795 95.3551 886.325 162.859C996.656 226.773 1067.8 366.682 1195.87 361.787C1338.48 356.337 1473.05 262.525 1545.58 137.663C1616.73 15.1616 1618.85 -141.013 1562.34 -269.15Z" stroke="#155DFC"/>
<path d="M1580.65 -317.261C1525.6 -422.948 1399.17 -451.867 1289.42 -496.679C1195.58 -534.996 1103.83 -556.156 1002.11 -553.49C839.129 -549.218 634.469 -610.115 536.875 -476.956C439.127 -343.588 511.466 -143.033 601.425 -6.78864C674.22 103.459 830.86 88.423 948.777 146.869C1060.42 202.206 1138.67 334.137 1263.25 321.248C1401.98 306.897 1527.27 206.885 1590.08 80.5243C1651.71 -43.4475 1643.88 -195.882 1580.65 -317.261Z" stroke="#155DFC"/>
<path d="M1593.8 -364.884C1533.45 -464.407 1408.39 -484.587 1298.58 -521.313C1204.69 -552.716 1113.93 -567.529 1014.96 -558.489C856.372 -544.004 653.04 -590.397 566.351 -454.43C479.526 -318.25 562.734 -127.357 659.044 -0.261566C736.977 102.583 888.697 78.0078 1007.33 127.505C1119.65 174.37 1204.27 298.003 1324.88 277.551C1459.19 254.777 1574.97 149.364 1628.19 22.227C1680.4 -102.507 1663.12 -250.585 1593.8 -364.884Z" stroke="#155DFC"/>
<path d="M1601.93 -411.643C1536.84 -504.769 1413.73 -516.51 1304.44 -545.336C1211 -569.983 1121.65 -578.668 1025.81 -563.597C872.244 -539.449 671.238 -571.771 595.399 -433.837C519.441 -295.687 612.578 -115.002 714.44 2.70693C796.866 97.9565 943.103 64.4144 1061.8 105.122C1174.18 143.664 1264.43 258.741 1380.63 231.184C1510.02 200.499 1616.13 90.4861 1659.92 -36.7286C1702.89 -161.539 1676.68 -304.689 1601.93 -411.643Z" stroke="#155DFC"/>
<path d="M1605.18 -457.174C1535.92 -543.719 1415.33 -547.361 1307.11 -568.511C1214.57 -586.595 1127.04 -589.398 1034.69 -568.663C886.719 -535.44 688.988 -554.192 623.882 -415.111C558.674 -275.813 660.776 -105.801 767.389 2.34887C853.659 89.8633 993.904 47.9584 1112.03 80.0801C1223.88 110.493 1319.02 216.815 1430.4 182.637C1554.42 144.58 1650.77 30.7664 1685.35 -95.8517C1719.29 -220.076 1684.72 -357.78 1605.18 -457.174Z" stroke="#155DFC"/>
<path d="M1603.74 -501.133C1530.88 -580.956 1413.33 -576.876 1306.7 -590.612C1215.53 -602.356 1130.19 -599.549 1041.65 -573.538C899.783 -531.86 706.219 -537.604 651.668 -398.173C597.032 -258.524 707.119 -99.5714 817.682 -1.08928C907.149 78.6017 1040.95 28.9655 1157.91 52.7496C1268.65 75.2685 1367.94 172.696 1474.14 132.403C1592.4 87.5358 1678.94 -29.2866 1704.59 -154.663C1729.75 -277.669 1687.41 -409.458 1603.74 -501.133Z" stroke="#155DFC"/>
<path d="M1597.81 -543.192C1521.94 -616.2 1407.9 -604.807 1303.36 -611.425C1213.97 -617.084 1131.17 -608.964 1046.73 -578.08C911.429 -528.595 722.867 -521.951 678.637 -382.938C634.338 -243.709 751.415 -96.1164 865.137 -7.34914C957.159 64.4807 1084.11 7.76738 1199.34 23.503C1308.43 38.4016 1411.12 126.856 1511.84 80.9696C1623.98 29.8754 1700.75 -89.1763 1717.76 -212.697C1734.45 -333.883 1684.96 -459.345 1597.81 -543.192Z" stroke="#155DFC"/>
<path d="M1587.64 -583.046C1509.3 -649.191 1399.22 -630.922 1297.23 -630.752C1210.02 -630.607 1130.09 -617.489 1049.99 -582.151C921.659 -525.53 738.87 -507.17 704.672 -369.312C670.42 -231.239 793.492 -95.2287 909.59 -16.1613C1003.53 47.8194 1123.3 -15.2986 1236.25 -7.28409C1343.19 0.304146 1448.55 79.7636 1543.51 28.8216C1649.24 -27.9018 1716.31 -148.42 1725.04 -269.508C1733.61 -388.307 1677.6 -507.081 1587.64 -583.046Z" stroke="#155DFC"/>
<path d="M1573.46 -620.41C1493.23 -679.687 1387.5 -655.005 1288.49 -648.406C1203.83 -642.764 1127.05 -624.985 1051.51 -585.622C930.486 -522.553 754.173 -493.195 729.668 -357.193C705.124 -220.977 833.195 -96.6897 950.902 -27.2478C1046.15 28.9441 1158.45 -39.8928 1268.62 -39.2368C1372.92 -38.6158 1480.23 31.8838 1569.21 -23.5662C1668.29 -85.3091 1725.8 -206.55 1726.64 -324.665C1727.47 -440.547 1665.59 -552.331 1573.46 -620.41Z" stroke="#155DFC"/>
</svg>
