<svg width="736" height="1024" viewBox="0 0 736 1024" fill="none" xmlns="http://www.w3.org/2000/svg">
<path fill-rule="evenodd" clip-rule="evenodd" d="M-420.837 952.003C-508.566 849.264 -621.501 753.899 -622.021 618.093C-622.617 462.122 -550.879 303.651 -423.675 210.303C-294.021 115.156 -114.863 79.3448 33.1335 137.309C166.046 189.365 176.339 363.873 260.488 478.262C349.364 599.079 515.861 665.712 531.966 815.41C551.869 1000.41 520.314 1241.33 351.617 1325.31C183.184 1409.17 7.73886 1240.54 -159.556 1159.69C-263.967 1109.23 -345.824 1039.85 -420.837 952.003Z" stroke="#155DFC"/>
<path d="M-670.756 658.516C-661.622 791.236 -545.169 877.283 -452.887 972.14C-373.981 1053.25 -289.557 1115.87 -184.289 1158.56C-15.6206 1226.96 166.591 1380.66 325.91 1287.99C485.479 1195.18 501.022 957.673 469.816 778.1C444.564 632.791 277.579 578.231 183.027 465.776C93.5044 359.304 72.3575 189.374 -60.8725 146.93C-209.223 99.6692 -382.078 146.054 -502.773 247.297C-621.187 346.625 -681.247 506.091 -670.756 658.516Z" stroke="#155DFC"/>
<path d="M-714.279 700.952C-696.928 830.051 -577.68 906.734 -481.489 993.559C-399.241 1067.8 -312.776 1123.62 -207.209 1158.65C-38.0618 1214.78 149.733 1353.39 299.519 1252.73C449.539 1151.91 449.646 918.861 407.754 745.383C373.855 605.006 207.231 562.298 107.706 458.422C13.4742 360.073 -17.9773 195.378 -150.85 162.366C-298.802 125.606 -464.751 181.903 -576.254 288.488C-685.648 393.059 -734.207 552.684 -714.279 700.952Z" stroke="#155DFC"/>
<path d="M-752.534 744.982C-727.394 869.965 -606.064 937.29 -506.61 1015.98C-421.571 1083.27 -333.583 1132.3 -228.258 1159.82C-59.4987 1203.9 132.707 1327.35 272.607 1219.54C412.725 1111.56 398.04 883.94 346.116 717.172C304.1 582.225 138.658 551.088 34.864 455.954C-63.4082 365.881 -104.577 207.029 -236.442 183.219C-383.271 156.706 -541.773 222.22 -643.907 333.392C-744.11 442.463 -781.405 601.442 -752.534 744.982Z" stroke="#155DFC"/>
<path d="M-785.494 790.191C-753.025 910.604 -630.314 968.629 -528.237 1039.14C-440.955 1099.43 -351.952 1141.71 -247.39 1161.89C-79.8534 1194.22 115.606 1302.54 245.335 1188.42C375.267 1074.12 346.493 852.86 285.227 693.357C235.652 564.289 72.1742 544.387 -35.1821 458.103C-136.828 376.408 -187.092 223.95 -317.327 209.071C-462.341 192.504 -612.912 266.51 -705.562 381.513C-796.461 494.343 -822.783 651.901 -785.494 790.191Z" stroke="#155DFC"/>
<path d="M-813.167 836.167C-773.853 951.595 -650.445 1000.43 -546.377 1062.76C-457.394 1116.05 -367.872 1151.66 -264.572 1164.72C-99.0561 1185.65 98.5214 1278.94 217.863 1159.37C337.391 1039.61 295.288 825.548 225.398 673.804C168.844 551.015 8.07712 541.961 -102.141 464.579C-206.496 391.314 -265.206 245.748 -393.219 239.487C-535.76 232.516 -677.981 314.27 -761.088 432.352C-842.624 548.202 -858.318 703.601 -813.167 836.167Z" stroke="#155DFC"/>
<path d="M-835.59 882.503C-789.937 992.577 -666.495 1032.38 -561.059 1086.57C-470.906 1132.9 -381.348 1161.96 -279.782 1168.15C-117.046 1178.06 81.5434 1256.53 190.348 1132.36C299.323 1008 244.698 801.91 166.927 658.359C103.995 542.199 -53.3588 543.557 -165.747 475.079C-272.157 410.243 -338.634 272.007 -463.869 274.013C-603.317 276.247 -736.829 364.985 -810.393 485.405C-882.565 603.548 -888.022 756.086 -835.59 882.503Z" stroke="#155DFC"/>
<path d="M-852.832 928.802C-801.364 1033.2 -678.528 1064.17 -572.331 1110.31C-481.527 1149.76 -392.397 1172.41 -293.012 1172.01C-133.77 1171.37 64.7583 1235.27 162.942 1107.35C261.28 979.241 194.988 781.835 110.095 646.847C41.3997 537.615 -111.882 548.903 -225.76 489.277C-333.581 432.823 -407.129 302.299 -529.065 312.186C-664.839 323.194 -789.349 418.14 -853.423 540.168C-916.284 659.889 -911.942 808.908 -852.832 928.802Z" stroke="#155DFC"/>
<path d="M-864.989 974.677C-808.245 1073.11 -686.628 1095.51 -580.26 1133.73C-489.309 1166.41 -401.052 1182.83 -304.265 1176.16C-149.185 1165.45 48.249 1215.13 135.795 1084.31C223.478 953.293 146.406 765.193 55.1659 639.072C-18.6651 537.016 -167.265 557.714 -281.97 506.839C-390.573 458.671 -470.48 336.181 -588.633 353.53C-720.196 372.847 -835.473 473.216 -890.164 596.14C-943.821 716.741 -930.158 861.628 -864.989 974.677Z" stroke="#155DFC"/>
<path d="M-872.186 1019.75C-810.717 1111.99 -690.901 1126.11 -584.93 1156.59C-494.319 1182.65 -407.359 1193.05 -313.556 1180.43C-163.257 1160.2 32.0948 1196.07 109.049 1063.18C186.123 930.082 99.1912 751.836 2.38709 634.824C-75.9461 540.14 -219.304 569.69 -334.191 527.418C-442.968 487.394 -528.508 373.201 -642.438 397.564C-769.297 424.693 -875.174 529.697 -920.641 652.828C-965.249 773.631 -942.782 913.819 -872.186 1019.75Z" stroke="#155DFC"/>
<path d="M-874.575 1063.67C-808.939 1149.53 -691.474 1155.69 -586.445 1178.64C-496.639 1198.27 -411.376 1202.89 -320.911 1184.68C-175.96 1155.5 16.3709 1178.05 82.8398 1043.89C149.413 909.524 53.5659 741.6 -48.0149 633.876C-130.213 546.707 -267.822 584.52 -382.271 550.656C-490.633 518.592 -581.077 412.899 -690.382 443.805C-812.091 478.218 -908.464 587.073 -944.915 709.744C-980.678 830.096 -949.957 965.068 -874.575 1063.67Z" stroke="#155DFC"/>
<path d="M-872.333 1106.09C-803.091 1185.42 -688.493 1183.98 -584.924 1199.67C-496.367 1213.08 -413.175 1212.19 -326.368 1188.76C-187.278 1151.23 1.14771 1161.01 57.2985 1026.37C113.537 891.52 9.73742 734.306 -95.834 635.986C-181.262 556.426 -312.667 601.884 -426.084 576.189C-533.468 551.86 -628.084 454.81 -732.406 491.765C-848.569 532.914 -935.393 644.839 -963.084 766.413C-990.252 885.688 -951.855 1014.98 -872.333 1106.09Z" stroke="#155DFC"/>
<path d="M-865.66 1146.67C-793.376 1219.38 -682.121 1210.75 -580.503 1219.45C-493.613 1226.89 -412.839 1220.77 -329.975 1192.54C-197.203 1147.29 -13.5093 1144.89 32.5471 1010.53C78.6755 875.96 -32.1031 729.762 -140.885 640.899C-228.91 568.991 -353.715 621.455 -465.535 603.649C-571.407 586.791 -669.463 498.47 -768.491 540.962C-878.758 588.276 -956.051 702.505 -975.281 822.375C-994.147 939.979 -948.677 1063.17 -865.66 1146.67Z" stroke="#155DFC"/>
<path d="M-854.781 1185.13C-780.013 1251.16 -672.541 1235.76 -573.33 1237.8C-488.5 1239.54 -410.462 1228.51 -331.79 1195.86C-205.737 1143.56 -27.5398 1129.64 8.69974 996.284C44.996 862.719 -71.7824 727.766 -183.005 648.351C-273.005 584.089 -390.869 642.9 -500.558 632.667C-604.412 622.978 -705.187 543.413 -798.653 590.916C-902.726 643.809 -970.563 759.59 -981.671 877.184C-992.569 992.555 -940.65 1109.3 -854.781 1185.13Z" stroke="#155DFC"/>
<path d="M-839.939 1221.17C-763.241 1280.51 -659.946 1258.8 -563.569 1254.52C-481.161 1250.87 -406.148 1235.24 -331.883 1198.61C-212.89 1139.92 -40.8889 1115.19 -14.1378 983.529C12.6551 851.663 -109.145 728.1 -222.053 658.068C-313.418 601.398 -424.056 665.883 -531.116 662.87C-632.481 660.017 -735.264 589.181 -822.945 641.157C-920.577 699.031 -979.091 815.631 -982.454 930.415C-985.753 1043.03 -928.025 1153.01 -839.939 1221.17Z" stroke="#155DFC"/>
</svg>
