<svg width="578" height="1024" viewBox="0 0 578 1024" fill="none" xmlns="http://www.w3.org/2000/svg">
<path fill-rule="evenodd" clip-rule="evenodd" d="M-415.952 341.075C-450.195 210.388 -510.341 75.3648 -451.678 -47.1193C-384.305 -187.789 -250.723 -299.215 -95.566 -327.865C62.5808 -357.067 239.457 -311.299 347.45 -194.679C444.437 -89.9455 377.722 71.6339 403.67 211.25C431.075 358.71 551.949 491.189 501.268 632.965C438.636 808.171 305.332 1011.32 116.896 1013.47C-71.2439 1015.62 -155.763 787.427 -271.165 641.802C-343.189 550.916 -386.673 452.82 -415.952 341.075Z" stroke="#155DFC"/>
<path d="M-513.152 -31.9486C-562.716 91.5076 -495.346 219.675 -453.573 345.248C-417.853 452.621 -369.116 545.75 -292.939 630.018C-170.882 765.038 -73.7696 982.736 110.003 968.682C294.064 954.606 411.468 747.562 461.562 572.317C502.099 430.51 375.528 308.687 339.373 166.283C305.141 31.4538 360.092 -130.73 258.634 -226.949C145.662 -334.087 -30.1445 -367.592 -182.88 -329.001C-332.729 -291.14 -456.229 -173.735 -513.152 -31.9486Z" stroke="#155DFC"/>
<path d="M-570.81 -12.6968C-611.4 111.078 -537.436 232.032 -488.647 352.076C-446.929 454.721 -393.396 542.622 -313.614 620.124C-185.781 744.302 -77.0714 950.847 101.599 925.447C280.549 900.008 382.117 690.253 419.937 515.842C450.542 374.71 319.137 263.714 274.768 126.867C232.76 -2.69948 276.155 -164.657 170.913 -252.23C53.7267 -349.741 -120.179 -371.316 -266.965 -323.913C-410.976 -277.406 -524.193 -154.849 -570.81 -12.6968Z" stroke="#155DFC"/>
<path d="M-624.418 10.2848C-656.206 133.745 -576.294 247.181 -521.025 361.326C-473.768 458.926 -415.906 541.378 -333.069 612.006C-200.341 725.172 -81.063 919.995 91.8225 883.85C264.979 847.649 350.864 636.346 376.732 463.608C397.665 323.83 262.285 223.765 210.268 92.9296C161.019 -30.9457 193.122 -191.875 84.7803 -270.724C-35.8572 -358.522 -207.07 -368.557 -347.42 -312.946C-485.117 -258.386 -587.911 -131.506 -624.418 10.2848Z" stroke="#155DFC"/>
<path d="M-673.774 36.6324C-696.973 159.169 -611.769 264.834 -550.577 372.755C-498.254 465.034 -436.54 541.852 -351.196 605.544C-214.451 707.596 -85.6553 890.214 80.8198 843.963C247.556 797.641 317.992 585.923 332.287 415.658C343.855 277.88 205.352 188.785 146.275 64.3651C90.3407 -53.4363 111.472 -212.569 0.708362 -282.669C-122.625 -360.724 -290.397 -359.66 -423.877 -296.471C-554.833 -234.476 -647.131 -104.097 -673.774 36.6324Z" stroke="#155DFC"/>
<path d="M-718.705 65.9723C-733.571 187.002 -643.738 284.698 -577.19 386.118C-520.288 472.837 -455.204 543.876 -367.895 600.61C-228.003 691.513 -90.7591 861.528 68.7385 805.848C228.486 750.08 283.787 539.04 286.94 372.006C289.492 236.843 148.706 158.693 83.176 41.0416C21.1321 -70.3514 31.6604 -226.958 -80.8557 -288.331C-206.141 -356.671 -369.769 -344.996 -495.999 -274.88C-619.842 -206.089 -701.631 -73.0272 -718.705 65.9723Z" stroke="#155DFC"/>
<path d="M-759.066 97.9225C-765.895 216.893 -672.099 306.473 -600.775 401.161C-539.789 482.124 -471.818 547.276 -383.08 597.071C-240.897 676.855 -96.2834 833.957 55.7296 769.551C207.981 705.043 248.537 495.734 241.027 332.643C234.951 200.67 92.7043 133.38 21.3446 22.7989C-46.2191 -81.8999 -45.8759 -235.289 -159.49 -288.011C-285.998 -346.717 -444.828 -324.964 -563.483 -248.588C-679.896 -173.656 -751.224 -38.7113 -759.066 97.9225Z" stroke="#155DFC"/>
<path d="M-794.747 132.095C-793.867 248.484 -696.774 329.855 -621.26 417.627C-556.691 492.677 -486.316 551.875 -396.672 594.788C-253.038 663.547 -102.138 807.511 41.9451 735.109C186.254 662.594 212.527 456.018 194.878 297.533C180.597 169.289 37.6919 112.711 -38.8636 9.45065C-111.347 -88.3171 -120.727 -237.843 -234.802 -282.034C-361.824 -331.24 -515.252 -299.98 -626.065 -218.024C-734.782 -137.618 -795.757 -1.57423 -794.747 132.095Z" stroke="#155DFC"/>
<path d="M-825.666 168.1C-817.441 281.421 -717.711 354.54 -638.596 435.261C-570.948 504.281 -498.647 557.492 -408.607 593.62C-264.339 651.508 -108.232 782.195 27.538 702.547C163.521 622.775 176.038 419.883 148.814 266.618C126.785 142.597 -16.0018 96.5294 -97.1118 0.786978C-173.907 -89.8623 -192.509 -234.924 -306.429 -270.751C-433.277 -310.644 -580.755 -270.481 -683.511 -183.633C-784.325 -98.4265 -835.111 37.9547 -825.666 168.1Z" stroke="#155DFC"/>
<path d="M-851.771 205.546C-836.596 315.347 -734.879 380.223 -652.752 453.802C-582.528 516.717 -508.774 563.946 -418.832 593.423C-274.72 640.652 -114.477 758.006 12.6611 671.878C139.999 585.615 139.349 387.301 103.15 239.814C73.8584 120.469 -68.0635 84.6526 -153.084 -3.4252C-233.581 -86.8177 -260.868 -226.863 -374.039 -254.536C-500.053 -285.349 -641.087 -236.921 -735.63 -145.871C-828.386 -56.5423 -869.199 79.4421 -851.771 205.546Z" stroke="#155DFC"/>
<path d="M-873.043 244.042C-851.337 349.911 -748.273 406.6 -663.717 472.995C-591.417 529.767 -516.675 571.055 -427.304 594.048C-284.108 630.888 -120.785 734.934 -2.53404 643.101C115.902 551.124 102.733 358.221 58.1896 217.015C22.1456 102.753 -118.198 76.8782 -206.485 -3.44012C-290.075 -79.4859 -325.476 -214.015 -437.333 -233.784C-561.883 -255.797 -696.037 -199.764 -782.264 -105.202C-866.861 -12.4286 -897.972 122.454 -873.043 244.042Z" stroke="#155DFC"/>
<path d="M-889.493 283.202C-861.699 384.765 -757.91 433.372 -671.503 492.585C-597.62 543.216 -522.34 578.638 -433.994 595.347C-292.439 622.12 -127.07 712.964 -17.8979 616.206C91.4447 519.296 66.4525 332.571 14.2227 198.094C-28.0413 89.2753 -166.13 72.984 -257.044 0.469304C-343.122 -68.1879 -386.042 -196.751 -496.047 -208.906C-618.536 -222.441 -745.432 -159.485 -823.294 -62.0974C-899.685 33.4493 -921.412 166.559 -889.493 283.202Z" stroke="#155DFC"/>
<path d="M-901.158 322.646C-867.742 419.571 -763.83 460.245 -676.138 512.322C-601.156 556.851 -525.777 586.515 -438.884 597.172C-299.657 614.249 -133.247 692.074 -33.2838 591.17C66.836 490.109 30.7644 310.263 -28.473 182.901C-76.4074 79.8405 -211.604 72.7294 -304.516 8.01308C-392.484 -53.2607 -442.303 -175.465 -549.952 -180.33C-669.819 -185.747 -789.137 -116.568 -858.64 -17.0293C-926.829 80.6274 -939.536 211.33 -901.158 322.646Z" stroke="#155DFC"/>
<path d="M-908.108 362.001C-869.549 453.997 -766.095 486.933 -677.669 531.962C-602.06 570.465 -527.003 594.51 -441.966 599.376C-305.714 607.172 -139.237 672.234 -48.5486 567.961C42.2817 463.525 -4.08662 291.189 -69.6353 171.27C-122.677 74.2331 -254.388 75.8578 -348.678 18.8862C-437.953 -35.0548 -494.031 -150.559 -598.855 -148.492C-715.575 -146.189 -827.056 -71.4965 -888.257 29.5296C-948.301 128.646 -952.392 256.346 -908.108 362.001Z" stroke="#155DFC"/>
<path d="M-910.438 400.907C-867.231 487.726 -764.789 513.157 -676.164 551.268C-600.384 583.855 -526.052 602.451 -443.247 601.811C-310.571 600.786 -144.962 653.411 -63.554 546.535C17.9811 439.49 -37.8672 275.222 -109.019 163.016C-166.594 72.219 -294.271 82.0978 -389.339 32.7707C-479.349 -13.9323 -541.035 -122.454 -642.599 -113.84C-755.689 -104.249 -859.134 -24.7586 -912.139 77.1094C-964.142 177.052 -960.061 301.197 -910.438 400.907Z" stroke="#155DFC"/>
<path d="M-908.271 439.012C-860.919 520.449 -760.015 538.649 -671.705 570.01C-596.195 596.825 -522.97 610.169 -442.743 604.334C-314.197 594.983 -150.347 635.565 -78.1666 526.836C-5.87277 417.937 -70.3568 262.222 -146.396 157.935C-207.926 73.5478 -331.068 91.1655 -426.329 49.338C-516.523 9.73552 -583.154 -91.5746 -681.063 -76.8279C-790.084 -60.4077 -885.352 23.1618 -930.316 125.246C-974.43 225.401 -962.654 345.484 -908.271 439.012Z" stroke="#155DFC"/>
<path d="M-901.755 475.983C-850.769 551.876 -751.896 563.152 -664.393 587.968C-589.573 609.188 -517.813 617.504 -440.479 606.803C-316.569 589.658 -155.325 618.65 -92.2591 508.803C-29.095 398.784 -101.349 252.029 -181.557 155.812C-246.461 77.9539 -364.617 102.766 -459.511 68.2506C-549.357 35.5711 -620.267 -58.3558 -714.165 -37.9121C-818.72 -15.1482 -905.729 71.7849 -942.853 173.484C-979.275 273.261 -960.312 388.822 -901.755 475.983Z" stroke="#155DFC"/>
</svg>
