<svg width="1435" height="593" viewBox="0 0 1435 593" fill="none" xmlns="http://www.w3.org/2000/svg">
<path fill-rule="evenodd" clip-rule="evenodd" d="M1155.74 1161.36C1063.04 1259.64 980.394 1382.19 845.433 1397.33C690.434 1414.72 525.159 1360.46 418.656 1244.05C310.101 1125.39 255.206 951.134 296.897 797.757C334.339 660.012 506.723 630.987 611.386 535.01C721.93 433.641 770.247 260.937 917.34 228.806C1099.12 189.098 1342.03 194.527 1443.7 353.199C1545.2 511.624 1396.44 704.207 1334.08 879.235C1295.16 988.472 1235 1077.32 1155.74 1161.36Z" stroke="#155DFC"/>
<path d="M890.869 1441.43C1021.83 1418.06 1094.84 1293.02 1179.21 1191.06C1251.35 1103.87 1304.51 1013.2 1335.62 903.946C1385.47 728.892 1518.65 531.19 1409.36 382.776C1299.91 234.129 1062.11 244.252 886.94 294.613C745.194 335.365 708.933 507.254 607.314 613.366C511.1 713.833 344.436 753.155 316.585 890.181C285.573 1042.76 350.302 1209.61 463.953 1318.7C575.455 1425.73 740.46 1468.27 890.869 1441.43Z" stroke="#155DFC"/>
<path d="M937.745 1480.13C1064.23 1448.98 1127.62 1322.17 1203.58 1217.19C1268.54 1127.42 1314.72 1035.45 1338.18 926.722C1375.77 752.514 1493.35 550.886 1377.15 412.81C1260.76 274.518 1029.05 299.508 861.096 359.837C725.185 408.655 700.668 578.908 608.113 689.041C520.482 793.315 360.133 842.318 341.619 977.972C321.005 1129.02 394.844 1287.95 512.817 1387.32C628.56 1484.82 792.485 1515.91 937.745 1480.13Z" stroke="#155DFC"/>
<path d="M985.638 1513.42C1107.19 1474.97 1161.06 1347.09 1228.58 1239.75C1286.32 1147.96 1325.59 1055.2 1341.61 947.524C1367.26 774.998 1469.3 570.617 1347.05 443.14C1224.6 315.464 999.893 354.574 839.686 424.154C710.048 480.457 696.907 648.29 613.503 761.724C534.536 869.124 381.04 927.159 371.568 1060.82C361.021 1209.65 443.221 1360.18 564.745 1449.75C683.971 1537.62 846.042 1557.58 985.638 1513.42Z" stroke="#155DFC"/>
<path d="M1034.13 1541.32C1150.35 1496.08 1194.82 1367.83 1253.93 1258.75C1304.47 1165.49 1336.93 1072.45 1345.73 966.321C1359.83 796.277 1446.48 590.29 1319.05 473.604C1191.42 356.736 974.545 409.169 822.566 487.253C699.587 550.439 697.404 715.109 623.182 831.132C552.907 940.984 406.749 1007.37 405.98 1138.45C405.125 1284.41 494.915 1426.13 619.226 1505.86C741.187 1584.08 900.663 1593.28 1034.13 1541.32Z" stroke="#155DFC"/>
<path d="M1082.82 1563.88C1193.35 1512.37 1228.61 1384.42 1279.37 1274.24C1322.77 1180.04 1348.53 1087.2 1350.39 983.098C1353.37 816.292 1424.85 609.817 1293.12 504.045C1161.19 398.108 952.905 463.017 809.57 548.84C693.584 618.287 701.895 779.094 636.831 897.004C575.229 1008.64 436.831 1082.68 444.391 1210.63C452.809 1353.09 549.403 1485.68 675.748 1555.59C799.704 1624.18 955.889 1623.05 1082.82 1563.88Z" stroke="#155DFC"/>
<path d="M1131.3 1581.19C1235.82 1523.95 1262.1 1396.93 1304.62 1286.28C1340.97 1191.66 1360.22 1099.49 1355.44 997.851C1347.77 834.993 1404.39 629.11 1269.23 534.309C1133.86 439.359 934.852 515.857 800.511 608.634C691.803 683.709 710.097 840.001 654.118 959.11C601.118 1071.88 470.845 1152.86 486.325 1277.15C503.561 1415.55 606.16 1538.73 733.801 1598.89C859.029 1657.93 1011.27 1646.93 1131.3 1581.19Z" stroke="#155DFC"/>
<path d="M1179.19 1593.34C1277.44 1530.93 1295.01 1405.47 1329.44 1294.93C1358.88 1200.4 1371.8 1109.35 1360.7 1010.59C1342.92 852.341 1385.07 648.086 1247.32 564.247C1109.37 480.276 920.247 567.441 795.185 666.376C693.985 746.434 721.714 897.608 674.697 1017.25C630.181 1130.52 508.336 1217.69 531.295 1337.86C556.86 1471.65 664.661 1585.22 792.879 1635.78C918.673 1685.38 1066.36 1665.02 1179.19 1593.34Z" stroke="#155DFC"/>
<path d="M1226.11 1600.49C1317.86 1533.48 1327.03 1410.15 1353.58 1300.29C1376.27 1206.35 1383.1 1116.83 1366.03 1021.33C1338.69 868.304 1366.82 666.668 1227.34 593.718C1087.64 520.653 908.933 617.532 793.37 721.822C699.857 806.214 736.437 951.72 698.21 1071.24C662.016 1184.39 548.843 1277.03 578.813 1392.63C612.185 1521.34 724.383 1625.14 852.482 1666.28C978.16 1706.64 1120.73 1677.45 1226.11 1600.49Z" stroke="#155DFC"/>
<path d="M1271.7 1602.79C1356.78 1531.75 1357.91 1411.11 1376.8 1302.47C1392.96 1209.58 1393.94 1122 1371.28 1030.11C1334.99 882.859 1349.62 684.78 1209.21 622.584C1068.59 560.29 900.738 665.91 794.831 774.751C709.131 862.825 753.947 1002.17 724.292 1120.94C696.214 1233.39 591.896 1330.73 628.386 1441.38C669.017 1564.58 784.811 1658.53 912.122 1690.47C1037.03 1721.81 1173.98 1684.38 1271.7 1602.79Z" stroke="#155DFC"/>
<path d="M1315.62 1600.44C1393.9 1525.94 1387.38 1408.49 1398.89 1301.6C1408.73 1210.2 1404.15 1124.94 1376.3 1036.96C1331.68 895.995 1333.39 702.354 1192.86 650.718C1052.1 599.001 895.474 712.373 799.315 824.963C721.504 916.07 773.915 1048.81 752.572 1166.24C732.363 1277.42 637.024 1378.72 679.52 1484.06C726.839 1601.36 845.438 1685.45 971.321 1708.48C1094.82 1731.07 1225.7 1686 1315.62 1600.44Z" stroke="#155DFC"/>
</svg>
