<svg width="1373" height="467" viewBox="0 0 1373 467" fill="none" xmlns="http://www.w3.org/2000/svg">
<path fill-rule="evenodd" clip-rule="evenodd" d="M887.166 -534.304C1021.95 -525.153 1169.1 -539.176 1266.53 -444.566C1378.43 -335.909 1441.52 -173.802 1419.28 -17.5973C1396.6 141.617 1296.9 294.715 1151.96 359.955C1021.8 418.545 889.872 303.855 749.261 283.997C600.749 263.024 436.678 335.424 318.418 242.238C172.273 127.079 22.1466 -63.9699 80.102 -243.284C137.967 -422.318 381.199 -429.778 555.989 -492.806C665.078 -532.142 771.914 -542.129 887.166 -534.304Z" stroke="#155DFC"/>
<path d="M1271.72 -507.671C1170.48 -593.965 1027.53 -570.911 895.189 -571.295C782.031 -571.623 678.231 -555.076 574.093 -509.695C407.236 -436.982 169.947 -414.24 124.755 -235.557C79.4926 -56.5939 238.379 120.624 388.553 223.91C510.072 307.489 665.855 226.296 812.36 237.364C951.072 247.844 1087.32 351.576 1210.83 286.035C1348.37 213.057 1436.11 57.0685 1448.16 -100.005C1459.98 -254.11 1388.01 -408.565 1271.72 -507.671Z" stroke="#155DFC"/>
<path d="M1271.83 -568.458C1167.42 -646.347 1029.22 -614.745 899.884 -606.718C789.298 -599.854 688.927 -577.096 590.056 -526.143C431.638 -444.503 201.228 -407.216 168.416 -229.758C135.553 -52.0214 302.051 111.048 455.342 202.434C579.384 276.383 726.444 187.159 870.295 188.672C1006.49 190.106 1146.2 282.811 1262.73 210.93C1392.48 130.891 1468.3 -27.0938 1470.11 -181.334C1471.87 -332.658 1391.74 -479.005 1271.83 -568.458Z" stroke="#155DFC"/>
<path d="M1267.12 -626.594C1160.2 -696.038 1027.23 -656.404 901.426 -640.356C793.857 -626.635 697.274 -598.038 603.946 -542.001C454.408 -452.214 231.745 -401.177 210.961 -225.78C190.144 -50.1094 363.103 98.5857 518.614 178.109C644.452 242.459 782.415 145.986 923.004 138.336C1056.11 131.092 1198.44 212.766 1307.69 135.169C1429.33 48.7653 1493.36 -110.342 1485.33 -261.094C1477.45 -408.996 1389.9 -546.84 1267.12 -626.594Z" stroke="#155DFC"/>
<path d="M1257.86 -681.771C1149.08 -742.779 1021.79 -695.654 900 -672.009C795.864 -651.792 703.395 -617.749 615.843 -557.127C475.562 -459.993 261.439 -396.048 252.275 -223.51C243.097 -50.7029 421.369 83.4797 578.22 151.245C705.144 206.08 833.702 103.154 970.457 86.7679C1099.94 71.2535 1244.06 141.954 1345.78 59.2755C1459.04 -32.7857 1511.45 -192.165 1494.05 -338.817C1476.98 -482.697 1382.78 -611.705 1257.86 -681.771Z" stroke="#155DFC"/>
<path d="M1244.35 -733.705C1134.35 -786.334 1013.14 -732.284 895.807 -701.492C795.483 -675.164 707.418 -636.086 625.838 -571.386C495.123 -467.719 290.257 -391.752 292.254 -222.826C294.255 -53.6364 476.702 65.9832 634.039 122.157C761.355 167.613 880.265 59.0375 1012.66 34.3794C1138.01 11.0329 1283.11 70.8778 1377.12 -16.2403C1481.79 -113.245 1522.83 -272.074 1496.55 -414.06C1470.77 -553.361 1370.68 -673.261 1244.35 -733.705Z" stroke="#155DFC"/>
<path d="M1226.91 -782.139C1116.31 -826.493 1001.53 -766.102 889.057 -728.639C792.889 -696.607 709.485 -652.918 634.027 -584.653C513.124 -475.274 318.152 -388.21 330.804 -223.601C343.476 -58.7346 528.978 46.3566 685.973 91.1672C813.011 127.428 922.092 14.0105 1049.64 -18.4254C1170.4 -49.1359 1315.7 0.0297378 1401.85 -90.8842C1497.78 -192.116 1527.73 -349.605 1493.11 -486.404C1459.15 -620.617 1353.94 -731.2 1226.91 -782.139Z" stroke="#155DFC"/>
<path d="M1205.88 -826.844C1095.27 -863.069 987.218 -796.938 879.97 -753.301C788.267 -715.99 709.742 -668.126 640.519 -596.811C529.605 -482.546 345.086 -385.339 367.842 -225.702C390.635 -65.8144 578.093 24.8661 733.949 58.5986C860.066 85.8947 959.201 -31.5578 1081.46 -71.2499C1197.22 -108.831 1341.95 -70.1127 1420.17 -164.18C1507.26 -268.923 1526.47 -424.319 1484.07 -555.46C1442.46 -684.121 1332.91 -785.24 1205.88 -826.844Z" stroke="#155DFC"/>
<path d="M1181.59 -867.617C1071.55 -895.903 970.484 -824.645 868.774 -775.349C781.806 -733.199 708.344 -681.603 645.426 -607.753C544.615 -489.426 371.025 -383.056 403.297 -228.991C435.619 -74.6854 623.965 1.78197 777.922 24.7759C902.503 43.3825 991.637 -77.3044 1108.22 -123.708C1218.61 -167.643 1362.04 -139.088 1432.28 -235.671C1510.48 -343.215 1519.37 -495.806 1469.76 -620.867C1421.09 -743.564 1307.97 -835.131 1181.59 -867.617Z" stroke="#155DFC"/>
<path d="M1154.41 -904.287C1045.49 -924.863 951.605 -849.097 855.705 -794.672C773.705 -748.136 705.45 -693.259 648.869 -617.383C558.211 -495.81 395.944 -381.274 437.107 -233.328C478.335 -85.1513 666.534 -22.6227 817.871 -9.97658C940.331 0.256508 1019.47 -122.875 1130.04 -175.425C1234.72 -225.18 1376.17 -206.455 1438.43 -304.925C1507.77 -414.57 1506.76 -563.684 1450.56 -682.297C1395.41 -798.668 1279.5 -880.656 1154.41 -904.287Z" stroke="#155DFC"/>
<path d="M1124.69 -936.709C1017.42 -949.842 930.865 -870.193 841.002 -811.178C764.164 -760.718 701.227 -703.012 650.974 -625.613C570.456 -501.6 419.823 -379.907 469.224 -238.57C518.704 -97.0115 705.76 -48.074 853.799 -45.338C973.591 -43.124 1042.81 -167.925 1147.05 -226.042C1245.76 -281.068 1384.56 -271.792 1438.91 -371.532C1499.44 -482.592 1489.04 -627.605 1426.85 -739.453C1365.84 -849.186 1247.89 -921.626 1124.69 -936.709Z" stroke="#155DFC"/>
<path d="M1092.81 -964.771C987.679 -970.763 908.555 -887.853 824.911 -824.797C753.39 -770.88 695.843 -710.797 651.873 -632.369C581.421 -506.706 442.65 -378.869 499.612 -244.571C556.662 -110.062 741.626 -74.2989 885.735 -80.9917C1002.35 -86.4075 1061.76 -212.122 1159.45 -275.215C1251.94 -334.952 1387.48 -334.702 1434.03 -435.112C1485.86 -546.917 1466.58 -687.254 1399.06 -792.073C1332.81 -894.91 1213.54 -957.89 1092.81 -964.771Z" stroke="#155DFC"/>
<path d="M1059.13 -988.389C956.609 -987.573 884.965 -902.021 807.677 -835.474C741.59 -778.573 689.47 -716.563 651.699 -637.585C591.181 -511.043 464.42 -378.073 528.243 -251.184C592.166 -124.096 774.136 -101.027 913.732 -116.628C1026.69 -129.252 1076.48 -255.148 1167.41 -322.618C1253.51 -386.498 1385.21 -394.813 1424.1 -495.311C1467.4 -607.214 1439.81 -742.349 1367.59 -839.929C1296.73 -935.664 1176.87 -989.326 1059.13 -988.389Z" stroke="#155DFC"/>
<path d="M1024.04 -1007.51C924.549 -1000.25 860.388 -912.666 789.546 -843.18C728.973 -783.765 682.281 -720.271 650.592 -641.209C599.818 -514.531 485.134 -377.434 555.105 -258.265C625.185 -138.908 803.315 -127.99 937.863 -151.945C1046.74 -171.328 1087.14 -296.702 1171.17 -367.944C1250.73 -435.397 1378.07 -451.78 1409.49 -551.806C1444.47 -663.184 1409.16 -792.646 1332.88 -882.829C1258.04 -971.307 1138.29 -1015.85 1024.04 -1007.51Z" stroke="#155DFC"/>
</svg>
