<svg width="1012" height="671" viewBox="0 0 1012 671" fill="none" xmlns="http://www.w3.org/2000/svg">
<path fill-rule="evenodd" clip-rule="evenodd" d="M1114.56 1038.82C1073.9 1167.66 1052.86 1313.97 937.954 1386.36C805.99 1469.5 633.579 1492.62 487.016 1434.19C337.628 1374.64 212.336 1241.67 183.086 1085.44C156.817 945.137 299.365 843.95 351.798 711.977C407.176 572.59 375.476 396.079 493.905 303.108C640.259 188.214 861.304 87.3341 1021.91 185.911C1182.27 284.334 1132.2 522.475 1152.27 707.195C1164.79 822.481 1149.32 928.662 1114.56 1038.82Z" stroke="#155DFC"/>
<path d="M998.059 1406.28C1105.78 1328.21 1117.06 1183.86 1148.62 1055.34C1175.6 945.444 1183.98 840.668 1164.42 728.769C1133.07 549.477 1166.88 313.511 1003.88 227.486C840.622 141.327 630.955 253.979 495.19 375.586C385.33 473.989 427.528 644.518 382.248 784.289C339.377 916.624 206.461 1024.59 241.051 1160.07C279.566 1310.93 410.487 1432.95 560.298 1481.68C707.277 1529.48 874.343 1495.93 998.059 1406.28Z" stroke="#155DFC"/>
<path d="M1057.11 1420.71C1157.41 1337.59 1159.26 1195.83 1181.94 1068.25C1201.33 959.159 1202.86 856.251 1176.64 748.158C1134.63 574.963 1152.69 342.256 987.956 268.551C822.969 194.731 625.257 318.115 500.323 445.555C399.228 548.679 451.286 712.622 415.917 852.066C382.43 984.092 259.414 1098.02 301.813 1228.2C349.024 1373.16 484.692 1484.08 634.164 1522.17C780.811 1559.55 941.918 1516.16 1057.11 1420.71Z" stroke="#155DFC"/>
<path d="M1114.72 1429.82C1207.4 1342.29 1200.22 1203.71 1214.27 1077.67C1226.28 969.901 1221.25 869.299 1188.78 765.394C1136.76 598.909 1139.62 370.49 974.065 308.961C808.247 247.335 622.983 380.384 509.054 512.777C416.863 619.908 478.109 776.719 452.416 915.152C428.09 1046.22 315.177 1165.3 364.847 1289.75C420.154 1428.32 559.692 1528.04 708.091 1555.76C853.685 1582.96 1008.28 1530.36 1114.72 1429.82Z" stroke="#155DFC"/>
<path d="M1170.52 1433.83C1255.44 1342.49 1239.64 1207.68 1245.36 1083.75C1250.25 977.779 1238.96 879.892 1200.67 780.52C1139.33 621.301 1127.64 398.139 962.124 348.577C796.345 298.937 623.933 440.569 521.116 577.036C437.916 687.463 507.65 836.655 491.35 973.42C475.916 1102.91 373.246 1226.31 429.627 1344.65C492.406 1476.42 634.947 1564.91 781.569 1582.56C925.42 1599.87 1072.99 1538.72 1170.52 1433.83Z" stroke="#155DFC"/>
<path d="M1224.18 1432.94C1301.25 1338.44 1277.28 1207.9 1275 1086.62C1273.06 982.916 1255.83 888.123 1212.18 793.593C1142.23 642.131 1116.68 425.133 952.039 387.269C787.141 349.345 627.898 498.467 536.231 638.137C462.054 751.156 539.552 892.302 532.319 1026.78C525.47 1154.1 433.118 1281.02 495.631 1392.9C565.239 1517.49 709.926 1594.79 854.105 1602.71C995.558 1610.49 1135.67 1541.47 1224.18 1432.94Z" stroke="#155DFC"/>
<path d="M1275.36 1427.41C1344.52 1330.37 1312.88 1204.59 1302.98 1086.46C1294.51 985.448 1271.7 894.098 1223.14 804.679C1145.33 661.405 1106.66 451.408 943.707 424.916C780.497 398.382 634.654 553.896 554.111 695.91C488.936 810.827 573.455 943.561 574.922 1075.16C576.311 1199.76 494.293 1329.38 562.345 1434.53C638.121 1551.61 784.117 1617.83 925.222 1616.42C1063.66 1615.04 1195.92 1538.85 1275.36 1427.41Z" stroke="#155DFC"/>
<path d="M1323.76 1417.5C1385.03 1318.54 1346.22 1197.95 1329.09 1083.44C1314.43 985.523 1286.42 897.931 1233.43 813.852C1148.51 679.136 1097.53 476.907 937.021 461.406C776.265 445.88 643.965 606.692 574.457 750.21C518.211 866.344 608.996 990.363 618.76 1118.54C628.005 1239.89 556.273 1371.42 629.261 1469.6C710.532 1578.92 857.024 1634.21 994.465 1623.9C1129.31 1613.79 1253.39 1531.15 1323.76 1417.5Z" stroke="#155DFC"/>
<path d="M1369.11 1403.5C1422.53 1303.23 1377.09 1188.21 1353.15 1077.75C1332.68 983.3 1299.85 899.748 1242.9 821.2C1151.66 695.345 1089.19 501.578 931.863 496.637C774.286 491.688 655.59 656.712 596.965 800.915C549.526 917.603 645.811 1032.67 663.435 1156.9C680.122 1274.53 618.573 1407.2 695.886 1498.21C781.972 1599.56 928.172 1644.15 1061.4 1625.41C1192.11 1607.02 1307.76 1518.67 1369.11 1403.5Z" stroke="#155DFC"/>
<path d="M1411.15 1385.73C1456.81 1284.72 1405.3 1175.63 1375.01 1069.6C1349.11 978.946 1311.86 899.682 1251.45 826.815C1154.66 710.062 1081.59 525.375 928.111 530.517C774.392 535.668 669.277 703.832 621.326 847.928C582.524 964.529 683.539 1070.46 708.556 1190.29C732.242 1303.75 680.714 1436.8 761.738 1520.52C851.958 1613.73 997.109 1647.9 1125.63 1621.22C1251.71 1595.05 1358.71 1501.72 1411.15 1385.73Z" stroke="#155DFC"/>
<path d="M1449.66 1364.48C1487.7 1263.33 1430.69 1160.44 1394.51 1059.2C1363.58 972.639 1322.33 897.876 1258.95 830.8C1157.41 723.327 1074.64 548.259 925.637 562.965C776.406 577.694 684.768 747.951 647.225 891.177C616.845 1007.07 721.822 1103.75 753.738 1218.76C783.956 1327.65 742.234 1460.35 826.357 1536.68C920.027 1621.67 1063.41 1645.73 1186.76 1611.66C1307.78 1578.22 1405.97 1480.66 1449.66 1364.48Z" stroke="#155DFC"/>
<path d="M1484.45 1340.11C1515.04 1239.36 1453.11 1142.92 1411.54 1046.77C1376 964.563 1331.17 894.478 1265.31 833.265C1159.78 735.186 1068.25 570.199 924.308 593.911C780.144 617.659 701.803 788.987 674.349 930.615C652.134 1045.22 760.308 1132.58 798.606 1242.39C834.865 1346.35 802.685 1478.01 889.298 1546.91C985.741 1623.63 1126.67 1637.97 1244.45 1597.04C1360 1556.89 1449.31 1455.82 1484.45 1340.11Z" stroke="#155DFC"/>
<path d="M1515.34 1312.95C1538.7 1213.12 1472.44 1123.34 1425.98 1032.54C1386.25 954.908 1338.27 889.643 1270.42 834.326C1161.7 745.693 1062.34 591.169 923.989 623.294C785.417 655.47 720.117 826.88 702.385 966.221C688.036 1078.97 798.655 1157.03 842.797 1261.3C884.591 1360.02 861.636 1489.98 950.14 1551.45C1048.69 1619.9 1186.52 1624.94 1298.37 1577.74C1408.11 1531.43 1488.5 1427.59 1515.34 1312.95Z" stroke="#155DFC"/>
<path d="M1542.19 1283.35C1558.57 1184.95 1488.58 1101.96 1437.74 1016.74C1394.27 943.87 1343.57 883.531 1274.2 834.104C1163.05 754.909 1056.84 611.149 924.54 651.068C792.031 691.049 739.446 861.591 731.021 997.995C724.203 1108.37 836.526 1177.18 885.962 1275.63C932.768 1368.84 918.68 1496.46 1008.49 1550.56C1108.49 1610.81 1242.62 1607 1348.24 1554.12C1451.86 1502.23 1523.37 1396.35 1542.19 1283.35Z" stroke="#155DFC"/>
<path d="M1564.89 1251.66C1574.58 1155.17 1501.44 1079.07 1446.75 999.599C1399.99 931.646 1346.99 876.304 1276.58 832.726C1163.76 762.901 1051.66 630.128 925.822 677.195C799.789 724.335 759.525 893.101 759.95 1025.96C760.294 1133.48 873.602 1193.15 927.768 1285.54C979.053 1373.02 973.431 1497.72 1063.97 1544.55C1164.78 1596.69 1294.67 1584.54 1393.8 1526.58C1491.06 1469.71 1553.75 1362.48 1564.89 1251.66Z" stroke="#155DFC"/>
<path d="M1583.36 1218.26C1586.68 1124.12 1510.99 1054.95 1452.97 981.363C1403.35 918.438 1348.5 868.13 1277.5 830.322C1163.74 769.743 1046.71 648.1 927.692 701.65C808.491 755.284 780.091 921.414 788.872 1050.18C795.978 1154.37 909.571 1205.08 967.898 1291.23C1023.12 1372.8 1025.53 1494.03 1116.24 1533.72C1217.24 1577.92 1342.39 1557.96 1434.83 1495.53C1525.53 1434.28 1579.54 1326.39 1583.36 1218.26Z" stroke="#155DFC"/>
<path d="M1597.54 1183.51C1594.83 1092.12 1517.17 1029.89 1456.35 962.27C1404.34 904.448 1348.04 859.176 1276.9 827.026C1162.91 775.514 1041.91 665.065 930.009 724.419C817.937 783.865 800.887 946.552 817.496 1070.71C830.935 1171.18 944.143 1213.14 1006.05 1292.91C1064.67 1368.43 1074.63 1485.7 1164.98 1518.43C1265.59 1554.87 1385.54 1527.67 1471.14 1461.39C1555.13 1396.36 1600.65 1288.46 1597.54 1183.51Z" stroke="#155DFC"/>
<path d="M1607.42 1147.75C1599.05 1059.49 1519.99 1004.17 1456.88 942.558C1402.92 889.878 1345.6 849.611 1274.74 822.975C1161.2 780.297 1037.17 681.032 932.633 745.499C827.927 810.067 821.659 968.558 845.536 1087.65C864.857 1184.02 977.038 1217.5 1041.96 1290.8C1103.43 1360.19 1120.44 1473.04 1209.93 1499.03C1309.57 1527.97 1423.92 1494.1 1502.58 1424.58C1579.76 1356.38 1617.03 1249.12 1607.42 1147.75Z" stroke="#155DFC"/>
<path d="M1612.99 1111.37C1599.36 1026.57 1519.46 978.056 1454.58 922.463C1399.11 874.928 1341.17 839.603 1271 818.306C1158.56 784.181 1032.43 696.014 935.423 764.899C838.263 833.892 842.159 987.495 872.722 1101.12C897.453 1193.07 1008 1218.39 1075.36 1285.16C1139.14 1348.38 1162.67 1456.4 1250.81 1475.9C1348.95 1497.62 1457.36 1457.7 1529.04 1385.56C1599.36 1314.78 1628.65 1208.75 1612.99 1111.37Z" stroke="#155DFC"/>
<path d="M1614.29 1074.7C1595.8 993.67 1515.6 951.832 1449.46 902.218C1392.91 859.796 1334.75 829.319 1265.65 813.156C1154.93 787.257 1027.6 710.032 938.244 782.638C848.75 855.358 862.15 1003.44 898.794 1111.25C928.446 1198.49 1036.78 1216 1106.02 1276.26C1171.58 1333.31 1201.08 1436.13 1287.42 1449.44C1383.55 1464.25 1485.74 1418.9 1550.42 1344.74C1613.89 1271.98 1635.52 1167.75 1614.29 1074.7Z" stroke="#155DFC"/>
<path d="M1611.37 1038.09C1588.46 961.093 1508.48 925.763 1441.58 882.051C1384.37 844.675 1326.35 818.923 1258.69 807.663C1150.27 789.621 1022.6 723.11 940.962 798.745C859.195 874.499 881.403 1016.5 923.507 1118.19C957.577 1200.48 1063.18 1210.59 1133.74 1264.37C1200.55 1315.29 1235.46 1412.63 1319.57 1420.05C1413.22 1428.31 1508.95 1378.16 1566.7 1302.58C1623.36 1228.41 1637.69 1126.52 1611.37 1038.09Z" stroke="#155DFC"/>
<path d="M1604.34 1001.89C1577.44 929.14 1498.17 900.109 1430.98 862.183C1373.52 829.755 1316.01 808.576 1250.12 801.963C1144.53 791.368 1017.37 735.28 943.449 813.261C869.413 891.364 899.7 1026.78 946.631 1122.12C984.607 1199.27 1086.98 1202.4 1158.33 1249.79C1225.89 1294.67 1265.61 1386.27 1347.11 1388.15C1437.86 1390.25 1526.95 1335.94 1577.85 1259.5C1627.8 1184.5 1635.22 1085.44 1604.34 1001.89Z" stroke="#155DFC"/>
<path d="M1593.29 966.417C1562.86 898.098 1484.77 875.12 1417.74 842.829C1360.43 815.218 1303.77 798.434 1239.95 796.191C1137.69 792.598 1011.83 746.58 945.578 826.235C879.224 906.015 916.834 1034.42 967.952 1123.22C1009.32 1195.08 1108.02 1191.69 1179.64 1232.84C1247.45 1271.79 1291.39 1357.44 1369.93 1354.16C1457.38 1350.51 1539.71 1292.68 1583.91 1215.95C1627.28 1140.66 1628.23 1044.88 1593.29 966.417Z" stroke="#155DFC"/>
<path d="M1578.36 931.986C1544.86 868.239 1468.39 851.035 1401.97 824.192C1345.17 801.239 1289.68 788.65 1228.22 790.479C1129.73 793.41 1005.92 757.05 947.233 837.726C888.456 918.527 932.612 1039.56 987.276 1121.7C1031.51 1188.17 1126.14 1178.74 1197.53 1213.81C1265.12 1247.01 1312.69 1326.56 1387.95 1318.51C1471.76 1309.54 1547.25 1248.83 1584.93 1172.34C1621.9 1097.29 1616.83 1005.2 1578.36 931.986Z" stroke="#155DFC"/>
<path d="M1559.72 898.895C1523.6 839.822 1449.16 828.082 1383.75 806.468C1327.83 787.986 1273.81 779.367 1214.95 784.953C1120.64 793.905 999.576 766.738 948.3 847.801C896.943 928.991 946.856 1042.37 1004.42 1117.77C1051.01 1178.78 1141.21 1163.84 1211.89 1193.03C1278.81 1220.67 1329.42 1294.04 1401.13 1281.62C1480.98 1267.78 1549.63 1204.83 1581.01 1129.1C1611.8 1054.79 1601.2 966.74 1559.72 898.895Z" stroke="#155DFC"/>
<path d="M1537.55 867.426C1499.27 813.087 1427.23 806.475 1363.23 789.841C1308.51 775.618 1256.22 770.723 1200.19 779.738C1110.4 794.183 992.745 775.695 948.672 856.537C904.53 937.507 959.401 1043.01 1019.24 1111.65C1067.66 1167.19 1153.14 1147.27 1222.67 1170.83C1288.49 1193.14 1341.54 1260.27 1409.45 1243.91C1485.08 1225.69 1546.92 1161.12 1572.27 1086.61C1597.14 1013.52 1581.5 929.834 1537.55 867.426Z" stroke="#155DFC"/>
<path d="M1512.04 837.842C1472.07 788.259 1402.76 786.412 1340.53 774.482C1287.32 764.281 1237.02 762.85 1183.99 774.952C1099.04 794.343 985.375 783.974 948.253 864.018C911.073 944.187 970.099 1041.66 1031.59 1103.58C1081.34 1153.69 1161.84 1129.32 1229.79 1147.54C1294.12 1164.78 1349.02 1225.68 1412.95 1205.81C1484.13 1183.69 1539.26 1118.1 1558.87 1045.28C1578.11 973.837 1557.96 894.788 1512.04 837.842Z" stroke="#155DFC"/>
<path d="M1217.96 693.594C1179.31 678.467 1139.5 699.824 1100.43 713.191C1067.02 724.621 1038.1 740.073 1012.01 764.059C970.206 802.492 902.543 833.368 907.414 890.649C912.292 948.021 977.199 984.082 1032.01 999.236C1076.36 1011.5 1114.03 971.692 1158.36 960.032C1200.34 948.993 1251.08 965.696 1280.84 933.792C1313.96 898.267 1323.95 843.343 1311.51 795.808C1299.3 749.171 1262.34 710.967 1217.96 693.594Z" stroke="#155DFC"/>
<path d="M1174.15 689.21C1137.24 677.463 1101.46 699.76 1065.89 714.571C1035.48 727.236 1009.47 743.375 986.63 767.29C950.029 805.608 888.887 838.453 896.889 891.498C904.903 944.627 967.527 974.279 1019.48 985.073C1061.52 993.807 1094.2 954.461 1134.78 940.921C1173.2 928.1 1221.46 940.583 1247.24 909.075C1275.94 873.99 1281.91 822.24 1267.45 778.729C1253.26 736.041 1216.53 702.702 1174.15 689.21Z" stroke="#155DFC"/>
<path d="M1129.78 688.093C1094.88 679.432 1063.07 702.243 1031.01 718.106C1003.59 731.67 980.476 748.187 960.751 771.717C929.148 809.419 874.481 843.529 885.087 892.189C895.709 940.925 955.511 964.625 1004.29 971.496C1043.77 977.056 1071.67 938.639 1108.45 923.651C1143.27 909.461 1188.74 918.12 1210.72 887.378C1235.2 853.147 1237.62 804.845 1221.6 765.407C1205.89 726.714 1169.85 698.04 1129.78 688.093Z" stroke="#155DFC"/>
<path d="M1085.14 690.243C1052.49 684.356 1024.56 707.265 995.984 723.793C971.547 737.925 951.245 754.519 934.488 777.368C907.64 813.98 859.336 848.663 872.014 892.839C884.712 937.084 941.203 955.33 986.539 958.738C1023.22 961.496 1046.62 924.447 1079.6 908.444C1110.82 893.292 1153.21 898.544 1171.61 868.918C1192.1 835.93 1191.45 791.304 1174.33 755.944C1157.55 721.253 1122.65 697.004 1085.14 690.243Z" stroke="#155DFC"/>
<path d="M1040.56 695.631C1010.34 692.189 986.167 714.799 961.014 731.611C939.506 745.987 921.926 762.368 907.96 784.259C885.581 819.335 843.469 853.923 857.687 893.566C871.927 933.272 924.671 946.599 966.333 947.021C1000.05 947.362 1019.24 912.091 1048.45 895.497C1076.1 879.786 1115.17 882.069 1130.24 853.883C1147.02 822.499 1143.77 781.729 1126.02 750.411C1108.61 719.685 1075.26 699.585 1040.56 695.631Z" stroke="#155DFC"/>
<path d="M996.313 704.207C968.71 702.866 948.117 724.795 926.296 741.524C907.638 755.829 892.66 771.721 881.283 792.396C863.055 825.524 826.901 859.372 842.13 894.485C857.383 929.653 906.001 938.629 943.808 936.555C974.401 934.877 989.732 901.761 1015.24 884.991C1039.39 869.113 1074.96 868.879 1086.97 842.431C1100.34 812.98 1094.99 776.2 1077.05 748.846C1059.45 722.009 1028.01 705.746 996.313 704.207Z" stroke="#155DFC"/>
</svg>
