<svg width="15" height="15" viewBox="0 0 15 15" fill="none" xmlns="http://www.w3.org/2000/svg">
<mask id="mask0_357_1876" style="mask-type:alpha" maskUnits="userSpaceOnUse" x="0" y="0" width="15" height="15">
<rect width="15" height="15" fill="#D9D9D9"/>
</mask>
<g mask="url(#mask0_357_1876)">
<path d="M7.50005 13.75C7.1563 13.75 6.86202 13.6276 6.61723 13.3828C6.37244 13.138 6.25005 12.8438 6.25005 12.5H8.75005C8.75005 12.8438 8.62765 13.138 8.38286 13.3828C8.13807 13.6276 7.8438 13.75 7.50005 13.75ZM2.50005 11.875V10.625H3.75005V6.25C3.75005 5.38542 4.01046 4.61719 4.5313 3.94531C5.05213 3.27344 5.72921 2.83333 6.56255 2.625V2.1875C6.56255 1.92708 6.65369 1.70573 6.83598 1.52344C7.01827 1.34115 7.23963 1.25 7.50005 1.25C7.76046 1.25 7.98182 1.34115 8.16411 1.52344C8.3464 1.70573 8.43755 1.92708 8.43755 2.1875V2.39062C8.32296 2.61979 8.23963 2.85417 8.18755 3.09375C8.13546 3.33333 8.11463 3.57812 8.12505 3.82812C8.02088 3.80729 7.91932 3.78906 7.82036 3.77344C7.7214 3.75781 7.61463 3.75 7.50005 3.75C6.81255 3.75 6.224 3.99479 5.73442 4.48438C5.24484 4.97396 5.00005 5.5625 5.00005 6.25V10.625H10V6.60938C10.1875 6.69271 10.3881 6.75781 10.6016 6.80469C10.8152 6.85156 11.0313 6.875 11.25 6.875V10.625H12.5V11.875H2.50005ZM11.25 5.625C10.7292 5.625 10.2865 5.44271 9.92192 5.07812C9.55734 4.71354 9.37505 4.27083 9.37505 3.75C9.37505 3.22917 9.55734 2.78646 9.92192 2.42188C10.2865 2.05729 10.7292 1.875 11.25 1.875C11.7709 1.875 12.2136 2.05729 12.5782 2.42188C12.9428 2.78646 13.125 3.22917 13.125 3.75C13.125 4.27083 12.9428 4.71354 12.5782 5.07812C12.2136 5.44271 11.7709 5.625 11.25 5.625Z" fill="#1C1B1F"/>
</g>
</svg>
