<svg width="18" height="18" viewBox="0 0 18 18" fill="none" xmlns="http://www.w3.org/2000/svg">
<mask id="mask0_357_1870" style="mask-type:alpha" maskUnits="userSpaceOnUse" x="0" y="0" width="18" height="18">
<rect width="18" height="18" fill="#D9D9D9"/>
</mask>
<g mask="url(#mask0_357_1870)">
<path d="M9.00005 9C8.17505 9 7.4688 8.70625 6.8813 8.11875C6.2938 7.53125 6.00005 6.825 6.00005 6C6.00005 5.175 6.2938 4.46875 6.8813 3.88125C7.4688 3.29375 8.17505 3 9.00005 3C9.82505 3 10.5313 3.29375 11.1188 3.88125C11.7063 4.46875 12 5.175 12 6C12 6.825 11.7063 7.53125 11.1188 8.11875C10.5313 8.70625 9.82505 9 9.00005 9ZM3.00005 15V12.9C3.00005 12.475 3.10942 12.0844 3.32817 11.7281C3.54692 11.3719 3.83755 11.1 4.20005 10.9125C4.97505 10.525 5.76255 10.2344 6.56255 10.0406C7.36255 9.84687 8.17505 9.75 9.00005 9.75C9.82505 9.75 10.6375 9.84687 11.4375 10.0406C12.2375 10.2344 13.025 10.525 13.8 10.9125C14.1625 11.1 14.4532 11.3719 14.6719 11.7281C14.8907 12.0844 15 12.475 15 12.9V15H3.00005ZM4.50005 13.5H13.5V12.9C13.5 12.7625 13.4657 12.6375 13.3969 12.525C13.3282 12.4125 13.2375 12.325 13.125 12.2625C12.45 11.925 11.7688 11.6719 11.0813 11.5031C10.3938 11.3344 9.70005 11.25 9.00005 11.25C8.30005 11.25 7.6063 11.3344 6.9188 11.5031C6.2313 11.6719 5.55005 11.925 4.87505 12.2625C4.76255 12.325 4.67192 12.4125 4.60317 12.525C4.53442 12.6375 4.50005 12.7625 4.50005 12.9V13.5ZM9.00005 7.5C9.41255 7.5 9.76567 7.35313 10.0594 7.05937C10.3532 6.76562 10.5 6.4125 10.5 6C10.5 5.5875 10.3532 5.23438 10.0594 4.94063C9.76567 4.64688 9.41255 4.5 9.00005 4.5C8.58755 4.5 8.23442 4.64688 7.94067 4.94063C7.64692 5.23438 7.50005 5.5875 7.50005 6C7.50005 6.4125 7.64692 6.76562 7.94067 7.05937C8.23442 7.35313 8.58755 7.5 9.00005 7.5Z" fill="#1C1B1F"/>
</g>
</svg>
