<svg width="15" height="15" viewBox="0 0 15 15" fill="none" xmlns="http://www.w3.org/2000/svg">
<mask id="mask0_357_1873" style="mask-type:alpha" maskUnits="userSpaceOnUse" x="0" y="0" width="15" height="15">
<rect width="15" height="15" fill="#D9D9D9"/>
</mask>
<g mask="url(#mask0_357_1873)">
<path d="M5.78117 13.75L5.53117 11.75C5.39576 11.6979 5.26815 11.6354 5.14836 11.5625C5.02857 11.4896 4.91138 11.4115 4.7968 11.3281L2.93742 12.1094L1.21867 9.14062L2.82805 7.92188C2.81763 7.84896 2.81242 7.77865 2.81242 7.71094V7.28906C2.81242 7.22135 2.81763 7.15104 2.82805 7.07812L1.21867 5.85938L2.93742 2.89062L4.7968 3.67188C4.91138 3.58854 5.03117 3.51042 5.15617 3.4375C5.28117 3.36458 5.40617 3.30208 5.53117 3.25L5.78117 1.25H9.21867L9.46867 3.25C9.60409 3.30208 9.7317 3.36458 9.85149 3.4375C9.97128 3.51042 10.0885 3.58854 10.203 3.67188L12.0624 2.89062L13.7812 5.85938L12.1718 7.07812C12.1822 7.15104 12.1874 7.22135 12.1874 7.28906V7.71094C12.1874 7.77865 12.177 7.84896 12.1562 7.92188L13.7656 9.14062L12.0468 12.1094L10.203 11.3281C10.0885 11.4115 9.96867 11.4896 9.84367 11.5625C9.71867 11.6354 9.59367 11.6979 9.46867 11.75L9.21867 13.75H5.78117ZM6.87492 12.5H8.1093L8.32805 10.8438C8.65097 10.7604 8.95045 10.638 9.22649 10.4766C9.50253 10.3151 9.75513 10.1198 9.9843 9.89062L11.5312 10.5312L12.1405 9.46875L10.7968 8.45313C10.8489 8.30729 10.8853 8.15365 10.9062 7.99219C10.927 7.83073 10.9374 7.66667 10.9374 7.5C10.9374 7.33333 10.927 7.16927 10.9062 7.00781C10.8853 6.84635 10.8489 6.69271 10.7968 6.54688L12.1405 5.53125L11.5312 4.46875L9.9843 5.125C9.75513 4.88542 9.50253 4.6849 9.22649 4.52344C8.95045 4.36198 8.65097 4.23958 8.32805 4.15625L8.12492 2.5H6.89055L6.6718 4.15625C6.34888 4.23958 6.0494 4.36198 5.77336 4.52344C5.49732 4.6849 5.24472 4.88021 5.01555 5.10938L3.46867 4.46875L2.8593 5.53125L4.20305 6.53125C4.15097 6.6875 4.11451 6.84375 4.09367 7C4.07284 7.15625 4.06242 7.32292 4.06242 7.5C4.06242 7.66667 4.07284 7.82813 4.09367 7.98438C4.11451 8.14063 4.15097 8.29688 4.20305 8.45313L2.8593 9.46875L3.46867 10.5312L5.01555 9.875C5.24472 10.1146 5.49732 10.3151 5.77336 10.4766C6.0494 10.638 6.34888 10.7604 6.6718 10.8438L6.87492 12.5ZM7.53117 9.6875C8.13534 9.6875 8.65097 9.47396 9.07805 9.04688C9.50513 8.61979 9.71867 8.10417 9.71867 7.5C9.71867 6.89583 9.50513 6.38021 9.07805 5.95312C8.65097 5.52604 8.13534 5.3125 7.53117 5.3125C6.91659 5.3125 6.39836 5.52604 5.97649 5.95312C5.55461 6.38021 5.34367 6.89583 5.34367 7.5C5.34367 8.10417 5.55461 8.61979 5.97649 9.04688C6.39836 9.47396 6.91659 9.6875 7.53117 9.6875Z" fill="#1C1B1F"/>
</g>
</svg>
