<svg xmlns="http://www.w3.org/2000/svg" width="219.63100409292338" height="273.41072108583955" viewBox="953.8676231592104 319.67306670907624 219.63100409292338 273.41072108583955" fill="none">
<mask id="mask0_310_302" style="mask-type:alpha" maskUnits="userSpaceOnUse" x="439" y="255" width="703" height="992">
<path d="M1053.24 834.253C1097.27 1005.11 926.479 1156.73 835.582 1211.18C541.617 1394.86 405.293 793.123 663.744 686.035C922.194 578.947 380.1 330.214 542.406 271.045C704.712 211.877 1023.96 347.301 1116.32 473.069C1208.67 598.836 998.211 620.684 1053.24 834.253Z" stroke="white" stroke-width="2"/>
<path d="M725.132 839.039C748.252 929.051 658.301 1009 610.435 1037.73C455.634 1134.62 384.067 817.597 520.149 761.078C656.231 704.558 370.955 573.687 456.411 542.452C541.867 511.217 709.875 582.462 758.45 648.699C807.026 714.937 696.233 726.524 725.132 839.039Z" stroke="white" stroke-width="2"/>
<path d="M1037.5 834.623C1080.61 1001.54 913.728 1149.56 824.898 1202.7C537.62 1381.99 404.101 794.138 656.695 689.657C909.29 585.175 379.273 341.952 537.905 284.233C696.538 226.514 1008.67 358.949 1099 481.844C1189.34 604.74 983.615 625.981 1037.5 834.623Z" stroke="white" stroke-width="2"/>
<path d="M1021.84 834.926C1063.88 998.018 900.846 1142.73 814.074 1194.7C533.45 1370.02 403.268 795.619 649.993 693.417C896.717 591.215 379.187 353.748 534.13 297.281C689.072 240.813 993.853 370.105 1082.03 490.163C1170.21 610.221 969.29 631.061 1021.84 834.926Z" stroke="white" stroke-width="2"/>
<path d="M1006.25 834.974C1047.34 994.206 888.147 1135.45 803.417 1186.17C529.396 1357.27 402.152 796.469 643.081 696.744C884.009 597.02 378.55 365.077 529.854 309.983C681.159 254.888 978.829 381.176 1064.96 498.404C1151.1 615.632 954.89 635.935 1006.25 834.974Z" stroke="white" stroke-width="2"/>
<path d="M990.586 835.277C1030.6 990.687 875.264 1128.63 792.592 1178.17C525.226 1345.3 401.32 797.95 636.378 700.505C871.437 603.059 378.464 376.873 526.078 323.03C673.693 269.187 964.014 392.331 1047.99 506.722C1131.97 621.113 940.564 641.015 990.586 835.277Z" stroke="white" stroke-width="2"/>
<path d="M974.996 835.326C1014.06 986.875 862.566 1121.35 781.935 1169.64C521.173 1332.54 400.204 798.8 629.466 703.832C858.729 608.864 377.827 388.203 521.803 335.733C665.78 283.262 948.99 403.403 1030.93 514.964C1112.86 626.525 926.165 645.89 974.996 835.326Z" stroke="white" stroke-width="2"/>
<path d="M959.333 835.629C997.328 983.357 849.683 1114.52 771.111 1161.64C517.003 1320.57 399.372 800.281 622.764 707.593C846.156 614.904 377.74 399.999 518.027 348.78C658.314 297.561 934.175 414.559 1013.95 523.282C1093.73 632.006 911.839 650.97 959.333 835.629Z" stroke="white" stroke-width="2"/>
<path d="M943.742 835.678C980.785 979.544 836.984 1107.24 760.454 1153.11C512.949 1307.82 398.256 801.131 615.852 710.92C833.448 620.708 377.103 411.329 513.752 361.483C650.4 311.636 919.15 425.63 996.888 531.524C1074.62 637.417 897.439 655.844 943.742 835.678Z" stroke="white" stroke-width="2"/>
<path d="M928.401 836.543C964.57 976.59 824.549 1100.79 750.018 1145.38C508.983 1295.81 396.96 802.579 608.894 714.914C820.829 627.248 376.132 423.178 509.229 374.749C642.326 326.319 904.211 437.436 980.004 540.549C1055.8 643.662 883.19 661.485 928.401 836.543Z" stroke="white" stroke-width="2"/>
<path d="M912.848 836.611C947.984 972.756 811.873 1093.52 739.425 1136.88C505.128 1283.16 396.31 803.668 602.314 718.411C808.318 633.154 376.115 434.825 505.487 387.724C634.859 340.623 889.388 448.61 963.042 548.844C1036.7 649.077 868.927 666.43 912.848 836.611Z" stroke="white" stroke-width="2"/>
<path d="M897.147 836.895C931.294 969.259 798.968 1086.68 728.536 1128.85C500.759 1271.08 395.011 804.911 595.28 722.002C795.548 639.093 375.408 446.304 501.178 400.499C626.947 354.693 874.372 459.663 945.965 557.108C1017.56 654.554 854.464 671.44 897.147 836.895Z" stroke="white" stroke-width="2"/>
<path d="M881.594 836.962C914.709 965.425 786.292 1079.41 717.944 1120.35C496.904 1258.43 394.361 805.999 588.699 725.499C783.037 644.998 375.391 457.951 497.435 413.474C619.48 368.997 859.548 470.837 929.004 565.404C998.459 659.97 840.201 676.384 881.594 836.962Z" stroke="white" stroke-width="2"/>
<path d="M865.894 837.246C898.019 961.928 773.386 1072.58 707.055 1112.32C492.535 1246.36 393.063 807.241 581.665 729.089C770.267 650.937 374.685 469.43 493.126 426.248C611.568 383.067 844.533 481.889 911.927 573.668C979.321 665.447 825.739 681.394 865.894 837.246Z" stroke="white" stroke-width="2"/>
<path d="M850.304 837.295C881.475 958.116 760.688 1065.3 696.397 1103.78C488.481 1233.61 391.947 808.092 574.753 732.417C757.559 656.742 374.047 480.759 488.851 438.951C603.654 397.142 829.508 492.961 894.861 581.91C960.214 670.858 811.339 686.268 850.304 837.295Z" stroke="white" stroke-width="2"/>
<path d="M834.641 837.598C864.743 954.598 747.805 1058.47 685.573 1095.78C484.311 1221.64 391.114 809.573 568.05 736.177C744.987 662.781 373.961 492.555 485.075 451.998C596.188 411.442 814.693 504.116 877.888 590.228C941.083 676.339 797.013 691.348 834.641 837.598Z" stroke="white" stroke-width="2"/>
<path d="M819.041 837.662C848.19 950.801 735.097 1051.21 674.907 1087.27C480.248 1208.91 389.989 810.439 561.129 739.52C732.269 668.602 373.315 503.901 480.79 464.717C588.265 425.533 799.66 515.204 860.813 598.486C921.967 681.767 782.605 696.239 819.041 837.662Z" stroke="white" stroke-width="2"/>
<path d="M803.229 838.288C831.346 947.525 722.162 1044.5 664.056 1079.33C476.135 1196.81 389.08 812.085 554.291 743.575C719.501 675.066 373.039 516.106 476.789 478.25C580.54 440.394 784.578 526.937 843.593 607.339C902.609 687.741 768.083 701.741 803.229 838.288Z" stroke="white" stroke-width="2"/>
<path d="M787.639 838.336C814.803 943.713 709.464 1037.21 653.398 1070.79C472.082 1184.06 387.964 812.935 547.378 746.903C706.792 680.87 372.402 527.435 472.514 490.952C572.626 454.469 769.553 538.008 826.527 615.58C883.501 693.152 753.683 706.616 787.639 838.336Z" stroke="white" stroke-width="2"/>
<path d="M771.976 838.639C798.071 940.194 696.581 1030.39 642.574 1062.79C467.912 1172.09 387.132 814.416 540.676 750.663C694.22 686.91 372.315 539.231 468.738 503.999C565.16 468.768 754.739 549.163 809.555 623.898C864.371 698.633 739.357 711.695 771.976 838.639Z" stroke="white" stroke-width="2"/>
<path d="M756.385 838.688C781.527 936.382 683.882 1023.11 631.917 1054.26C463.858 1159.34 386.016 815.266 533.764 753.99C681.512 692.714 371.678 550.561 464.462 516.702C557.246 482.843 739.714 560.235 792.489 632.14C845.263 704.044 724.958 716.57 756.385 838.688Z" stroke="white" stroke-width="2"/>
<path d="M740.685 838.972C764.837 932.885 670.977 1016.27 621.028 1046.23C459.489 1147.27 384.718 816.509 526.73 757.581C668.741 698.653 370.972 562.04 460.153 529.477C549.335 496.914 724.698 571.288 775.412 640.405C826.126 709.522 710.496 721.58 740.685 838.972Z" stroke="white" stroke-width="2"/>
</mask>
<g mask="url(#mask0_310_302)">
<rect x="956" y="-119" width="1440" height="706" fill="#155DFC"/>
</g>
</svg>