<svg xmlns="http://www.w3.org/2000/svg" width="631.527671138334" height="966.8298018626164" viewBox="449.4723288616659 83.53390836927309 631.527671138334 966.8298018626164" fill="none">
<path fill-rule="evenodd" clip-rule="evenodd" d="M1452.08 239.264C1535.31 271.672 1643.59 300.086 1678.75 381.485C1715.16 465.789 1627.65 532.871 1614.68 615.742C1604.56 680.42 1648.74 762.055 1611.34 812.289C1573.96 862.496 1480.96 832.221 1428 866.505C1347.18 918.825 1331.35 1087.01 1226.36 1061.51C1123.82 1036.62 1149 865.072 1077.59 781.428C1018.09 711.74 873.491 712.486 856.315 628.118C838.383 540.045 975.485 520.397 1009.18 445.448C1036.78 384.067 984.725 288.896 1030.46 240.817C1076.12 192.808 1162.45 208.792 1234.54 208.527C1307.49 208.258 1379.96 211.182 1452.08 239.264Z" stroke="#074684"/>
<path opacity="0.95875" fill-rule="evenodd" clip-rule="evenodd" d="M1446.09 249.032C1528.59 284.131 1636.43 316.134 1668.85 398.229C1702.42 483.253 1612.04 546.846 1596.02 628.725C1583.52 692.629 1625 775.272 1585.6 823.875C1546.22 872.451 1453.81 839.132 1399.34 871.345C1316.21 920.507 1294.25 1087.04 1189.62 1058.05C1087.44 1029.75 1118.92 860.195 1050.13 774.607C992.814 703.298 847.427 698.999 833.191 614.581C818.33 526.458 956.863 511.717 993.435 438.432C1023.39 378.413 974.472 282.047 1022.17 235.876C1069.81 189.772 1156.02 208.661 1228.5 210.911C1301.85 213.187 1374.59 218.619 1446.09 249.032Z" stroke="#074684"/>
<path opacity="0.9175" fill-rule="evenodd" clip-rule="evenodd" d="M1439.71 258.529C1521.4 296.275 1628.65 331.83 1658.29 414.519C1688.99 500.16 1595.84 560.188 1576.8 640.975C1561.94 704.027 1600.66 787.577 1559.3 834.489C1517.97 881.376 1426.27 845.052 1370.35 875.156C1285.02 921.1 1256.96 1085.78 1152.81 1053.34C1051.1 1021.65 1088.84 854.302 1022.77 766.874C967.713 694.032 821.71 684.691 810.432 600.328C798.659 512.261 938.456 502.446 977.855 430.913C1010.12 372.33 964.412 274.886 1014.03 230.679C1063.57 186.537 1149.56 208.308 1222.35 213.07C1296 217.889 1368.93 225.821 1439.71 258.529Z" stroke="#074684"/>
<path opacity="0.87625" fill-rule="evenodd" clip-rule="evenodd" d="M1432.96 267.742C1513.72 308.089 1620.27 347.152 1647.09 430.336C1674.88 516.488 1579.08 572.878 1557.03 652.474C1539.83 714.597 1575.75 798.953 1532.49 844.117C1489.25 889.258 1398.37 849.973 1341.08 877.932C1253.64 920.601 1219.51 1083.23 1115.98 1047.37C1014.87 1012.34 1058.83 847.4 995.539 758.237C942.812 683.951 796.37 669.581 788.065 585.374C779.394 497.47 920.285 492.593 962.463 422.9C997.006 365.824 954.556 267.422 1006.02 225.232C1057.41 183.105 1143.07 207.732 1216.08 215.001C1289.95 222.356 1362.98 232.779 1432.96 267.742Z" stroke="#074684"/>
<path opacity="0.835" fill-rule="evenodd" clip-rule="evenodd" d="M1425.85 276.659C1505.58 319.559 1611.29 362.081 1635.27 445.658C1660.1 532.218 1561.77 584.9 1536.75 663.21C1517.22 724.328 1550.3 809.386 1505.19 852.748C1460.1 896.087 1370.15 853.89 1311.54 879.669C1222.11 919.012 1181.96 1079.39 1079.17 1040.15C978.781 1001.83 1028.9 839.496 968.478 748.708C918.141 673.067 771.44 653.686 766.116 569.738C760.559 482.105 902.372 482.171 947.278 414.403C984.055 358.903 944.916 259.662 998.172 219.542C1051.35 179.481 1136.58 206.934 1209.71 216.7C1283.7 226.582 1356.75 239.485 1425.85 276.659Z" stroke="#074684"/>
<path opacity="0.79375" fill-rule="evenodd" clip-rule="evenodd" d="M1418.37 285.27C1496.99 330.67 1601.73 376.601 1622.83 460.469C1644.68 547.331 1543.94 596.241 1515.97 673.168C1494.14 733.207 1524.34 818.864 1477.43 860.371C1430.54 901.855 1341.63 856.797 1281.79 880.366C1190.47 916.334 1144.35 1074.27 1042.42 1031.7C942.877 990.131 999.091 830.6 941.616 738.297C893.731 661.395 746.949 637.025 744.614 553.439C742.176 466.183 884.738 471.193 932.317 405.432C971.284 351.575 935.504 251.617 990.483 213.615C1045.38 175.669 1130.08 205.914 1203.24 218.167C1277.27 230.564 1350.25 245.929 1418.37 285.27Z" stroke="#074684"/>
<path opacity="0.7525" fill-rule="evenodd" clip-rule="evenodd" d="M1410.55 293.564C1487.95 341.41 1591.59 390.692 1609.79 474.75C1628.64 561.807 1525.6 606.886 1494.72 682.337C1470.62 741.223 1497.9 827.375 1449.25 866.976C1400.63 906.555 1312.86 858.692 1251.86 880.02C1158.76 912.57 1106.72 1067.87 1005.78 1022.03C907.203 977.254 969.448 820.722 914.986 727.018C869.611 648.947 722.927 619.618 723.583 536.496C724.268 449.723 867.405 459.671 917.6 395.997C958.708 343.85 926.332 243.296 982.968 207.458C1039.52 171.673 1123.58 204.675 1196.69 219.398C1270.67 234.296 1343.48 252.104 1410.55 293.564Z" stroke="#074684"/>
<path opacity="0.71125" fill-rule="evenodd" clip-rule="evenodd" d="M1402.38 301.531C1478.48 351.764 1580.9 404.338 1596.17 488.483C1611.99 575.63 1506.79 616.823 1473.03 690.705C1446.69 748.368 1471.02 834.909 1420.69 872.556C1370.38 910.182 1283.88 859.57 1221.78 878.633C1127.02 907.725 1069.12 1060.2 969.292 1011.13C871.803 963.218 940.003 809.876 888.62 714.883C845.81 635.739 699.402 601.488 703.05 518.93C706.857 432.747 850.395 447.62 903.144 386.111C946.344 335.737 917.409 234.71 975.633 201.08C1033.77 167.5 1117.09 203.217 1190.06 220.393C1263.89 237.773 1336.45 258.004 1402.38 301.531Z" stroke="#074684"/>
<path opacity="0.67" fill-rule="evenodd" clip-rule="evenodd" d="M1393.89 309.162C1468.58 361.72 1569.66 417.523 1581.99 501.651C1594.76 588.782 1487.52 626.039 1450.93 698.263C1422.37 754.631 1443.72 841.457 1391.77 877.103C1339.85 912.73 1254.7 859.433 1191.59 876.207C1095.28 901.805 1031.59 1051.27 933.003 999.041C836.72 948.038 910.793 798.074 862.551 701.909C822.358 621.788 676.405 582.656 683.039 500.763C689.963 415.274 833.727 435.055 888.966 375.786C934.205 327.246 908.748 225.868 968.489 194.488C1028.14 163.153 1110.62 201.542 1183.36 221.15C1256.96 240.991 1329.17 263.619 1393.89 309.162Z" stroke="#074684"/>
<path opacity="0.62875" fill-rule="evenodd" clip-rule="evenodd" d="M1385.08 316.447C1458.28 371.267 1557.88 430.23 1567.26 514.24C1576.97 601.248 1467.82 634.523 1428.44 705C1397.7 760.006 1416.04 847.01 1362.54 880.613C1309.06 914.198 1225.38 858.279 1161.33 872.743C1063.59 894.817 994.193 1041.08 896.957 985.762C801.997 931.735 881.851 785.33 836.809 688.11C799.282 607.11 653.963 563.145 663.574 482.017C673.608 397.326 817.423 421.99 875.084 365.033C922.307 318.387 900.359 216.782 961.544 187.689C1022.64 158.638 1104.17 199.652 1176.59 221.669C1249.87 243.946 1321.65 268.945 1385.08 316.447Z" stroke="#074684"/>
<path opacity="0.5875" fill-rule="evenodd" clip-rule="evenodd" d="M1375.96 323.377C1447.58 380.392 1545.59 442.443 1551.99 526.232C1558.63 613.012 1447.7 642.265 1405.58 710.91C1372.71 764.485 1388.02 851.562 1333.02 883.081C1278.05 914.582 1195.94 856.111 1131.03 868.248C1031.98 886.77 956.961 1029.66 861.197 971.313C767.675 914.327 853.214 771.661 811.427 673.504C776.612 591.723 632.103 542.978 644.681 462.714C657.811 378.925 801.502 408.442 861.516 353.867C910.665 309.171 892.251 207.463 954.806 180.693C1017.27 153.961 1097.76 197.55 1169.77 221.948C1242.64 246.635 1313.9 273.973 1375.96 323.377Z" stroke="#074684"/>
<path opacity="0.54625" fill-rule="evenodd" clip-rule="evenodd" d="M1366.54 329.945C1436.49 389.084 1532.79 454.148 1536.22 537.615C1539.77 624.06 1427.21 649.255 1382.39 715.985C1347.42 768.064 1359.69 855.108 1303.26 884.503C1246.87 913.883 1166.42 852.93 1100.74 862.725C1000.5 877.674 919.941 1017.02 825.767 955.711C733.797 895.836 824.916 757.082 786.436 658.107C754.375 575.646 610.852 522.181 626.381 442.878C642.592 360.094 785.983 394.427 848.276 342.3C899.292 299.609 884.436 197.922 948.284 173.507C1012.04 149.128 1091.39 195.239 1162.91 221.988C1235.27 249.055 1305.93 278.699 1366.54 329.945Z" stroke="#074684"/>
<path opacity="0.505" fill-rule="evenodd" clip-rule="evenodd" d="M1356.84 336.141C1425.03 397.334 1519.5 465.331 1519.95 548.373C1520.41 634.379 1406.35 655.486 1358.9 720.218C1321.87 770.739 1331.07 857.643 1273.29 884.88C1215.55 912.102 1136.86 848.741 1070.48 856.182C969.168 867.539 883.18 1003.17 790.71 938.976C700.405 876.285 796.992 741.611 761.865 641.941C732.598 558.899 590.236 500.778 608.697 422.534C627.968 340.854 770.886 379.963 835.382 330.347C888.203 289.713 876.922 188.171 941.986 166.141C1006.96 144.143 1085.07 192.72 1156 221.789C1227.78 251.201 1297.75 283.116 1356.84 336.141Z" stroke="#074684"/>
<path opacity="0.46375" fill-rule="evenodd" clip-rule="evenodd" d="M1346.86 341.958C1413.22 405.13 1505.75 475.977 1503.21 558.494C1500.58 643.955 1385.16 660.948 1335.13 723.604C1296.09 772.505 1302.22 859.163 1243.15 884.208C1184.12 909.24 1107.3 843.548 1040.29 848.627C938.039 856.378 846.721 988.126 756.068 921.127C667.537 855.697 769.477 725.268 737.745 625.022C711.307 541.502 570.279 478.796 591.65 401.705C613.959 321.23 756.228 365.067 822.849 318.023C877.41 279.495 869.719 178.221 935.92 158.603C1002.02 139.014 1078.8 189.997 1149.07 221.35C1220.17 253.073 1289.36 287.219 1346.86 341.958Z" stroke="#074684"/>
<path opacity="0.4225" fill-rule="evenodd" clip-rule="evenodd" d="M1336.62 347.39C1401.06 412.463 1491.53 486.075 1486.02 567.965C1480.31 652.778 1363.66 665.636 1311.11 726.139C1270.11 773.36 1273.15 859.668 1212.88 882.49C1152.63 905.301 1077.76 837.359 1010.22 840.069C907.147 844.204 810.61 971.91 721.885 902.187C635.236 834.097 742.403 708.072 714.105 607.373C690.529 523.475 551.007 456.262 575.262 380.418C600.581 301.245 742.028 349.756 810.693 305.341C866.928 268.967 862.835 168.085 930.091 150.903C997.25 133.746 1072.6 187.074 1142.12 220.672C1212.45 254.667 1280.78 291.003 1336.62 347.39Z" stroke="#074684"/>
<path opacity="0.38125" fill-rule="evenodd" clip-rule="evenodd" d="M1326.13 352.429C1388.57 419.325 1476.88 495.611 1468.39 576.775C1459.6 660.836 1341.87 669.544 1286.88 727.821C1243.96 773.305 1243.92 859.156 1182.5 879.728C1121.12 900.29 1048.29 830.181 980.298 830.518C876.528 831.032 774.89 954.541 688.2 882.179C603.54 811.512 715.803 690.044 690.974 589.015C670.288 504.842 532.443 433.202 559.551 358.699C587.85 280.924 728.303 334.051 798.928 292.319C856.768 258.142 856.279 157.775 924.509 143.049C992.64 128.346 1066.48 183.953 1135.15 219.756C1204.64 255.982 1272.02 294.463 1326.13 352.429Z" stroke="#074684"/>
<path opacity="0.34" fill-rule="evenodd" clip-rule="evenodd" d="M1315.4 357.07C1375.77 425.706 1461.81 504.574 1450.36 584.914C1438.5 668.121 1319.84 672.667 1262.45 728.647C1217.67 772.338 1214.55 857.628 1152.07 875.925C1089.62 894.213 1018.93 822.022 950.558 819.986C846.22 816.879 739.606 936.039 655.057 861.127C572.487 787.969 689.71 671.207 668.381 569.97C650.61 485.625 514.609 409.646 544.538 336.573C575.782 260.292 715.07 317.969 787.569 278.971C846.943 247.034 850.059 147.303 919.18 135.053C988.2 122.82 1060.43 180.64 1128.18 218.603C1196.74 257.015 1263.1 297.595 1315.4 357.07Z" stroke="#074684"/>
<path opacity="0.29875" fill-rule="evenodd" clip-rule="evenodd" d="M1304.45 361.306C1362.67 431.6 1446.33 512.954 1431.94 592.371C1417.03 674.622 1297.57 675.001 1237.87 728.616C1191.28 770.461 1185.08 855.086 1121.61 871.086C1058.17 887.077 989.698 812.892 921.04 808.486C816.261 801.762 704.799 916.428 622.494 839.057C542.116 763.496 664.157 651.582 646.352 550.262C631.518 465.846 497.527 385.622 530.241 314.068C564.391 239.373 702.345 301.53 776.629 265.315C837.466 235.655 844.182 136.683 914.109 126.922C983.935 117.176 1054.47 177.137 1121.22 217.215C1188.75 257.767 1254.01 300.395 1304.45 361.306Z" stroke="#074684"/>
<path opacity="0.2575" fill-rule="evenodd" clip-rule="evenodd" d="M1293.29 365.133C1349.3 436.999 1430.47 520.739 1413.15 599.136C1395.2 680.332 1275.1 676.544 1213.16 727.728C1164.82 767.676 1155.54 851.533 1091.16 865.216C1026.81 878.892 960.642 802.803 891.778 796.032C786.686 785.699 670.512 895.732 590.552 815.995C512.463 738.125 639.172 631.195 624.915 529.914C613.036 445.532 481.217 361.158 516.676 291.211C553.692 218.194 690.143 284.755 766.122 251.366C828.347 224.021 838.655 125.928 909.304 118.668C979.85 111.419 1048.6 173.449 1114.26 215.593C1180.7 258.235 1244.77 302.861 1293.29 365.133Z" stroke="#074684"/>
<path opacity="0.21625" fill-rule="evenodd" clip-rule="evenodd" d="M1281.94 368.546C1335.66 441.896 1414.25 527.92 1394.02 605.203C1373.06 685.243 1252.45 677.293 1188.35 725.984C1138.31 763.986 1125.97 846.974 1060.76 858.323C995.581 869.666 931.794 791.766 862.809 782.638C757.531 768.709 636.788 873.975 559.269 791.97C483.565 711.885 614.789 610.069 604.095 508.951C595.186 424.705 465.701 336.285 503.861 268.031C543.697 196.78 678.479 267.665 756.061 237.141C819.598 212.144 833.486 115.05 904.77 110.3C975.95 105.558 1042.84 169.58 1107.33 213.739C1172.59 258.419 1235.39 304.988 1281.94 368.546Z" stroke="#074684"/>
<path opacity="0.175" fill-rule="evenodd" clip-rule="evenodd" d="M1270.4 371.541C1321.76 446.286 1397.69 534.49 1374.57 610.563C1350.62 689.351 1229.66 677.248 1163.47 723.387C1111.8 759.397 1096.41 841.413 1030.45 850.415C964.515 859.412 903.19 779.796 834.168 768.322C728.832 750.813 603.667 851.184 528.684 767.011C455.457 684.808 591.035 588.231 583.918 487.399C577.989 403.391 450.996 311.034 491.811 244.554C534.419 175.156 667.368 250.278 746.458 222.659C811.23 200.039 828.68 104.062 900.513 101.829C972.24 99.5993 1037.18 165.536 1100.43 211.655C1164.43 258.32 1225.89 306.774 1270.4 371.541Z" stroke="#074684"/>
<path opacity="0.13375" fill-rule="evenodd" clip-rule="evenodd" d="M1258.69 374.115C1307.64 450.163 1380.8 540.439 1354.82 615.21C1327.92 692.65 1206.75 676.409 1138.55 719.939C1085.32 753.913 1066.9 834.859 1000.26 841.502C933.654 848.142 874.865 766.906 805.889 753.101C700.625 732.034 571.189 827.386 498.834 741.148C428.173 656.928 567.94 565.707 564.409 465.284C561.468 381.617 437.12 285.434 480.541 220.811C525.868 153.351 656.822 232.618 737.324 207.936C803.252 187.722 824.244 92.9785 896.537 93.2644C968.725 93.5499 1031.64 161.321 1093.57 209.345C1156.23 257.936 1216.27 308.218 1258.69 374.115Z" stroke="#074684"/>
<path opacity="0.0925" fill-rule="evenodd" clip-rule="evenodd" d="M1246.83 376.263C1293.31 453.522 1363.6 545.76 1334.8 619.139C1304.98 695.136 1183.75 674.776 1113.62 715.645C1058.89 747.542 1037.46 827.318 970.23 831.594C903.034 835.869 846.853 753.113 778.008 736.994C672.943 712.393 539.394 802.612 469.756 714.413C401.747 628.279 545.532 542.525 545.592 442.634C545.641 359.409 424.092 259.517 470.065 196.829C518.056 131.389 646.855 214.705 728.67 192.99C795.675 175.207 820.183 81.8126 892.849 84.617C965.409 87.4173 1026.22 156.941 1086.75 206.81C1148 257.269 1206.55 309.316 1246.83 376.263Z" stroke="#074684"/>
<path opacity="0.05125" fill-rule="evenodd" clip-rule="evenodd" d="M1234.83 377.983C1278.77 456.359 1346.13 550.447 1314.54 622.344C1281.82 696.806 1160.69 672.352 1088.72 710.51C1032.55 740.291 1008.14 818.8 940.398 820.704C872.693 822.608 819.188 738.433 750.558 720.019C645.82 691.916 508.322 776.891 441.483 686.839C376.21 598.894 523.839 518.712 527.488 419.474C530.529 336.793 411.925 233.316 460.394 172.639C510.992 109.298 637.479 196.562 720.508 177.841C788.507 162.509 816.501 70.5779 889.451 75.8974C962.295 81.2091 1020.93 152.399 1079.99 204.054C1139.75 256.32 1196.74 310.069 1234.83 377.983Z" stroke="#074684"/>
<path opacity="0.01" fill-rule="evenodd" clip-rule="evenodd" d="M1222.7 379.275C1264.06 458.673 1328.39 554.496 1294.05 624.822C1258.49 697.658 1137.59 669.141 1063.87 704.541C1006.33 732.169 978.97 809.316 910.801 808.846C842.669 808.377 791.906 722.886 723.573 702.198C619.29 670.627 478.01 750.255 414.053 658.459C351.594 568.813 502.887 494.3 510.122 395.836C516.15 313.8 400.637 206.861 451.543 148.27C504.685 87.1056 628.707 178.21 712.849 162.506C781.758 149.645 813.205 59.289 886.35 67.1171C959.389 74.9339 1015.78 147.705 1073.29 201.082C1131.49 255.09 1186.86 310.476 1222.7 379.275Z" stroke="#074684"/>
</svg>