<svg xmlns="http://www.w3.org/2000/svg" width="515.9350347984849" height="635.6690098362985" viewBox="0 245.33099016370144 515.9350347984849 635.6690098362985" fill="none">
<path fill-rule="evenodd" clip-rule="evenodd" d="M-355.606 981.136C-406.61 856.034 -483.86 730.014 -441.682 600.922C-393.24 452.664 -275.341 324.76 -125.249 276.108C27.735 226.519 209.071 248.816 331.359 350.346C441.183 441.529 396.123 610.432 440.067 745.469C486.48 888.092 623.607 1003.67 591.859 1150.84C552.626 1332.72 446.97 1551.53 260.427 1578.25C74.1761 1604.94 -39.3972 1389.72 -172.815 1260.4C-256.083 1179.69 -311.996 1088.1 -355.606 981.136Z" stroke="#155DFC"/>
<path fill-rule="evenodd" clip-rule="evenodd" d="M14.8703 1026.36C12.8037 1048.24 14.45 1072.23 -1.34386 1087.67C-19.4827 1105.41 -46.0979 1114.98 -71.3869 1110.69C-97.1632 1106.33 -121.614 1089.46 -131.593 1065.62C-140.555 1044.2 -121.35 1023.23 -117.518 1000.45C-113.472 976.389 -124.532 949.4 -108.88 930.565C-89.5373 907.289 -57.8446 883.688 -28.9536 893.876C-0.107683 904.049 0.0590009 943.635 9.55017 972.328C15.4737 990.235 16.6373 1007.65 14.8703 1026.36Z" stroke="#155DFC"/>
<path d="M-500.651 623.985C-533.681 752.853 -450.163 871.134 -392.36 990.182C-342.936 1091.98 -282.463 1177.95 -195.941 1251.56C-57.3092 1369.5 67.3806 1572.66 247.748 1534.75C428.399 1496.77 517.781 1276.18 544.58 1095.89C566.265 950.01 424.881 845.745 370.452 709.276C318.919 580.067 352.237 412.099 239.091 329.942C113.104 238.462 -65.5708 228.185 -211.965 286.375C-355.592 343.466 -462.716 475.983 -500.651 623.985Z" stroke="#155DFC"/>
<path d="M-555.303 650.596C-579.395 778.609 -490.281 888.877 -426.244 1001.53C-371.489 1097.85 -306.943 1178.02 -217.73 1244.44C-74.7864 1350.88 59.9456 1541.47 233.774 1492.98C407.874 1444.4 481.203 1223.19 495.941 1045.33C507.868 901.415 363.102 808.514 301.256 678.628C242.7 555.65 264.591 389.415 148.821 316.324C19.9126 234.938 -155.321 236.24 -294.667 302.392C-431.378 367.294 -527.634 503.576 -555.303 650.596Z" stroke="#155DFC"/>
<path d="M-605.455 680.376C-620.86 806.929 -526.829 908.967 -457.138 1014.92C-397.549 1105.52 -329.423 1179.72 -238.078 1238.93C-91.7184 1333.81 51.9625 1511.41 218.653 1453.01C385.605 1394.52 443.183 1173.82 446.29 999.184C448.804 857.869 301.524 776.325 232.88 653.397C167.887 537.007 178.716 373.265 61.0116 309.227C-70.0511 237.922 -241.11 250.314 -373.003 323.764C-502.403 395.826 -587.762 535.034 -605.455 680.376Z" stroke="#155DFC"/>
<path d="M-650.951 712.939C-657.962 837.455 -559.698 931.099 -484.946 1030.11C-421.029 1114.77 -349.819 1182.88 -256.893 1234.89C-108.001 1318.23 43.5232 1482.48 202.54 1414.9C361.805 1347.22 404.012 1128.12 395.968 957.443C389.458 819.334 240.513 749.074 165.706 633.427C94.8781 523.932 95.0631 363.402 -23.9002 308.355C-156.364 247.062 -322.563 270.009 -446.656 350.075C-568.403 428.629 -642.899 569.936 -650.951 712.939Z" stroke="#155DFC"/>
<path d="M-691.668 747.891C-690.614 869.826 -588.801 954.964 -509.588 1046.83C-441.857 1125.39 -368.059 1187.32 -274.094 1232.18C-123.536 1304.05 34.72 1454.7 185.588 1378.69C336.692 1302.55 363.983 1086.1 345.313 920.082C330.205 785.741 180.425 726.631 100.103 618.537C24.0541 516.192 14.0569 359.551 -105.506 313.384C-238.637 261.978 -399.343 294.904 -515.344 380.892C-629.152 465.255 -692.879 607.852 -691.668 747.891Z" stroke="#155DFC"/>
<path d="M-727.516 784.835C-718.761 903.679 -614.078 980.254 -531.008 1064.82C-459.979 1137.14 -384.087 1192.86 -289.61 1230.65C-138.232 1291.2 25.6451 1428.09 167.954 1344.4C310.486 1260.58 323.383 1047.76 294.656 887.047C271.41 756.996 121.599 708.842 36.4198 608.518C-44.2283 513.531 -63.9036 361.409 -183.426 323.963C-316.513 282.267 -471.146 324.56 -578.821 415.766C-684.46 505.248 -737.57 648.346 -727.516 784.835Z" stroke="#155DFC"/>
<path d="M-758.432 823.371C-742.372 938.65 -635.491 1006.66 -549.17 1083.82C-475.36 1149.81 -397.861 1199.31 -303.384 1230.16C-152.006 1279.59 16.3897 1402.63 149.793 1312.05C283.405 1221.32 282.498 1013.09 244.319 858.26C213.425 732.975 64.3599 695.529 -25.0154 603.141C-109.637 515.667 -138.448 368.644 -257.314 339.716C-389.671 307.506 -537.708 358.52 -636.879 454.235C-734.175 548.14 -776.876 690.977 -758.432 823.371Z" stroke="#155DFC"/>
<path d="M-784.388 863.103C-761.447 974.382 -653.028 1033.86 -564.056 1103.57C-487.98 1163.17 -409.354 1206.49 -315.369 1230.56C-164.781 1269.13 7.04382 1378.33 131.26 1281.65C255.671 1184.81 241.606 982.022 194.615 833.62C156.591 713.533 9.01381 686.492 -83.8961 602.152C-171.864 522.299 -209.236 380.905 -326.856 360.25C-457.825 337.25 -598.801 396.313 -689.347 495.828C-778.18 593.461 -810.735 735.303 -784.388 863.103Z" stroke="#155DFC"/>
<path d="M-805.384 903.635C-776.011 1010.52 -666.698 1061.57 -575.671 1123.8C-497.838 1177.01 -418.552 1214.21 -325.533 1231.7C-176.49 1259.72 -2.30429 1355.16 112.508 1253.18C227.501 1151.04 200.979 954.506 145.844 813.003C101.23 698.501 -44.1525 681.51 -139.939 605.279C-230.63 533.104 -275.958 397.817 -391.772 385.148C-520.73 371.042 -654.239 437.46 -736.092 540.068C-816.398 640.736 -839.118 780.884 -805.384 903.635Z" stroke="#155DFC"/>
<path d="M-821.451 944.577C-786.116 1046.71 -676.536 1089.46 -584.039 1144.26C-504.949 1191.11 -425.458 1222.29 -333.851 1233.43C-187.072 1251.27 -11.5686 1333.11 93.6881 1226.63C199.11 1119.99 160.881 930.452 98.2929 796.266C47.6472 687.684 -94.8729 680.344 -192.885 612.233C-285.684 547.745 -338.337 418.986 -451.817 413.982C-578.175 408.41 -703.87 481.469 -777.02 586.474C-848.788 689.493 -862.033 827.282 -821.451 944.577Z" stroke="#155DFC"/>
<path d="M-832.65 985.549C-791.841 1082.62 -682.597 1117.27 -589.202 1164.7C-509.344 1205.25 -430.086 1230.55 -340.314 1235.59C-196.476 1243.66 -20.6662 1312.15 74.9461 1201.97C170.708 1091.62 121.564 909.756 52.2329 783.243C-3.86932 680.871 -142.903 682.738 -242.502 622.706C-336.803 565.868 -396.132 444.005 -506.783 446.308C-629.991 448.873 -747.587 527.849 -812.075 634.564C-875.345 739.262 -879.517 874.069 -832.65 985.549Z" stroke="#155DFC"/>
<path d="M-839.068 1026.18C-793.29 1117.91 -684.959 1144.68 -591.221 1184.87C-511.07 1219.23 -432.465 1238.81 -344.924 1238.04C-204.66 1236.8 -29.5168 1292.24 56.4249 1179.16C142.501 1065.9 83.2702 892.296 7.91991 773.752C-53.053 677.828 -188.022 688.419 -288.583 636.38C-383.796 587.109 -449.134 472.451 -556.498 481.675C-676.047 491.945 -785.317 576.103 -841.238 683.859C-896.101 789.579 -891.644 920.822 -839.068 1026.18Z" stroke="#155DFC"/>
<path d="M-840.823 1066.1C-790.59 1152.28 -683.723 1171.44 -590.177 1204.54C-510.19 1232.85 -432.637 1246.89 -347.693 1240.62C-211.588 1230.57 -38.0442 1273.36 38.2621 1158.14C114.688 1042.74 46.2281 877.932 -34.4083 767.592C-99.6586 678.306 -230.032 697.104 -330.95 652.923C-426.5 611.093 -497.171 503.893 -600.829 519.622C-716.25 537.135 -817.032 625.736 -864.526 733.885C-911.123 839.989 -898.516 967.131 -840.823 1066.1Z" stroke="#155DFC"/>
<path d="M-838.057 1104.98C-783.89 1185.42 -679.006 1197.27 -586.165 1223.49C-506.781 1245.91 -430.658 1254.64 -348.645 1243.2C-217.237 1224.87 -46.1761 1255.44 20.5891 1138.85C87.459 1022.09 10.6529 866.51 -74.5323 764.547C-143.463 682.04 -268.76 708.495 -369.451 671.995C-464.785 637.436 -540.105 537.892 -639.677 559.685C-750.549 583.951 -842.736 676.26 -881.995 784.174C-920.512 890.048 -900.266 1012.6 -838.057 1104.98Z" stroke="#155DFC"/>
<path d="M-830.936 1142.48C-773.362 1217.04 -670.946 1221.92 -579.299 1241.49C-500.935 1258.22 -426.595 1261.89 -347.815 1245.64C-221.588 1219.59 -53.8446 1238.45 3.53105 1121.23C60.9966 1003.83 -23.2553 857.86 -112.253 764.388C-184.268 688.751 -304.059 722.286 -403.963 693.247C-498.553 665.753 -577.835 574.003 -672.982 601.4C-778.928 631.906 -862.476 727.192 -893.735 834.271C-924.403 939.326 -897.058 1056.85 -830.936 1142.48Z" stroke="#155DFC"/>
<path d="M-819.651 1178.28C-759.198 1246.87 -659.699 1245.15 -569.706 1258.34C-492.757 1269.61 -420.525 1268.49 -345.249 1247.79C-224.636 1214.62 -60.9864 1222.33 -12.7942 1105.19C35.4736 987.87 -55.3122 851.799 -147.39 766.871C-221.899 698.147 -335.807 738.166 -434.393 716.328C-527.736 695.652 -610.295 611.781 -700.723 644.303C-801.414 680.515 -876.334 778.059 -899.87 883.733C-922.961 987.409 -889.081 1099.51 -819.651 1178.28Z" stroke="#155DFC"/>
<path d="M-804.416 1212.1C-741.607 1274.67 -645.438 1266.75 -557.529 1273.85C-482.362 1279.92 -412.54 1274.29 -341.002 1249.53C-226.379 1209.85 -67.5435 1207.02 -28.2766 1090.65C11.0519 974.089 -85.3503 848.132 -179.787 771.743C-256.204 709.93 -363.909 755.814 -460.677 740.882C-552.297 726.744 -637.457 650.78 -722.912 687.934C-818.066 729.305 -884.428 828.4 -900.558 932.132C-916.382 1033.9 -876.551 1140.24 -804.416 1212.1Z" stroke="#155DFC"/>
<path d="M-785.462 1243.66C-720.816 1300.2 -628.349 1286.5 -542.923 1287.84C-469.88 1288.99 -402.737 1279.16 -335.139 1250.73C-226.827 1205.18 -73.4629 1192.46 -42.8143 1077.5C-12.1178 962.358 -113.219 846.654 -209.308 778.743C-287.061 723.79 -388.294 774.91 -482.776 766.554C-572.231 758.642 -659.325 690.558 -739.599 731.842C-828.984 777.81 -886.91 877.771 -895.986 979.059C-904.891 1078.43 -859.707 1178.73 -785.462 1243.66Z" stroke="#155DFC"/>
<path d="M-291.62 1352.72C-245.415 1343.84 -220.175 1299.27 -190.811 1262.82C-165.702 1231.65 -147.321 1199.34 -136.825 1160.55C-120.006 1098.42 -73.8218 1027.88 -113.153 975.906C-152.546 923.856 -236.592 928.556 -298.304 947.19C-348.241 962.269 -360.271 1023.22 -395.716 1061.23C-429.276 1097.21 -488.032 1111.9 -497.248 1160.49C-507.51 1214.59 -483.85 1273.29 -443.157 1311.33C-403.232 1348.65 -344.685 1362.92 -291.62 1352.72Z" stroke="#155DFC"/>
<path d="M-252.58 1334.37C-209.732 1323.21 -188.749 1279.82 -163.398 1243.8C-141.721 1213 -126.432 1181.53 -118.94 1144.47C-106.937 1085.09 -67.8711 1016.03 -107.976 969.628C-148.144 923.153 -226.782 932.696 -283.597 953.961C-329.571 971.169 -337.149 1029.14 -368.116 1067C-397.436 1102.83 -451.715 1120.21 -457.406 1166.4C-463.742 1217.83 -437.942 1271.51 -397.408 1304.75C-357.639 1337.37 -301.789 1347.19 -252.58 1334.37Z" stroke="#155DFC"/>
<path d="M-214.672 1312.82C-175.271 1299.77 -158.28 1257.91 -136.757 1222.68C-118.352 1192.55 -105.963 1162.18 -101.208 1127.06C-93.589 1070.79 -61.2438 1003.82 -101.577 962.851C-141.973 921.822 -214.949 935.528 -266.8 958.874C-308.758 977.764 -312.323 1032.45 -338.989 1069.74C-364.237 1105.05 -413.952 1124.6 -416.468 1168.15C-419.269 1216.65 -391.875 1265.29 -351.94 1293.92C-312.76 1322.01 -259.922 1327.8 -214.672 1312.82Z" stroke="#155DFC"/>
<path d="M-178.164 1288.21C-142.263 1273.68 -128.973 1233.67 -111.062 1199.56C-95.747 1170.38 -86.047 1141.36 -83.7435 1108.37C-80.0527 1055.51 -53.9844 991.182 -94.0206 955.475C-134.119 919.713 -201.245 936.894 -248.117 961.771C-286.045 981.902 -286.056 1033.05 -308.632 1069.38C-330.007 1103.78 -375.118 1125.01 -374.827 1165.71C-374.502 1211.04 -346.05 1254.68 -307.131 1278.92C-268.947 1302.7 -219.394 1304.9 -178.164 1288.21Z" stroke="#155DFC"/>
</svg>