<svg xmlns="http://www.w3.org/2000/svg" width="463.9704292026234" height="760" viewBox="48.029570797376586 0 463.9704292026234 760" fill="none">
<path fill-rule="evenodd" clip-rule="evenodd" d="M924.665 794.968C931.092 929.914 961.962 1074.47 879.198 1182.14C784.146 1305.8 630.379 1387.14 472.653 1383.03C311.887 1378.83 148.329 1297.42 66.8366 1160.96C-6.34944 1038.4 92.3904 894.149 95.9282 752.186C99.6648 602.247 8.85741 447.602 87.809 319.401C185.377 160.97 357.873 -10.1532 542.667 26.7734C727.172 63.6422 762.585 304.398 845.316 470.77C896.95 574.605 919.169 679.582 924.665 794.968Z" stroke="#155DFC"/>
<path d="M942.481 1180.04C1016.55 1069.52 977.188 930.182 962.334 798.678C949.632 686.235 921.245 585.031 864.177 486.81C772.738 329.433 722.83 96.34 540.132 72.0193C357.148 47.6606 199.4 225.893 114.089 386.959C45.0559 517.292 143.644 662.692 149.515 809.497C155.074 948.493 67.717 1095.78 147.042 1210.92C235.369 1339.14 400.421 1408.34 557.837 1402.23C712.279 1396.23 857.421 1306.95 942.481 1180.04Z" stroke="#155DFC"/>
<path d="M1002.88 1173.15C1068.23 1060.46 1020.92 926.812 998.062 799.265C978.512 690.204 944.35 593.12 882.353 500.772C783.018 352.807 719.454 128.222 539.398 116.058C359.06 103.875 216.242 288.039 143.112 450.831C83.9352 582.562 189.496 718.372 204.553 861.441C218.809 996.9 142.805 1146.35 227.623 1253.83C322.067 1373.5 487.73 1430.63 641.152 1414.67C791.674 1399 927.823 1302.56 1002.88 1173.15Z" stroke="#155DFC"/>
<path d="M1060.08 1161.77C1116.76 1047.57 1062.08 920.042 1031.65 796.923C1005.64 691.65 966.114 599.001 899.705 512.744C793.3 374.538 716.968 159.231 540.345 158.778C363.445 158.323 235.651 347.25 174.559 510.882C125.124 643.292 236.838 769.232 260.623 908.004C283.143 1039.39 218.398 1190.18 308.056 1289.77C407.888 1400.65 573.309 1445.94 722.134 1420.6C868.146 1395.75 994.995 1292.92 1060.08 1161.77Z" stroke="#155DFC"/>
<path d="M1113.83 1146.22C1161.91 1031.14 1100.44 910.12 1062.93 791.863C1030.86 690.747 986.399 602.812 916.1 522.821C803.462 394.655 715.291 189.318 542.846 200.078C370.131 210.856 257.364 403.389 208.107 567C168.248 699.392 285.29 815.247 317.311 949.206C347.629 1076.04 293.991 1227.34 387.829 1318.87C492.318 1420.78 656.671 1454.49 800.345 1420.33C941.303 1386.8 1058.61 1278.37 1113.83 1146.22Z" stroke="#155DFC"/>
<path d="M1163.86 1126.82C1203.48 1011.5 1135.83 897.309 1091.74 784.304C1054.03 687.678 1005.08 604.698 931.415 531.108C813.389 413.197 714.342 218.438 546.769 239.87C378.934 261.336 281.114 456.341 243.427 619.099C212.931 750.801 334.474 856.42 374.21 985.095C411.832 1106.92 369.09 1257.95 466.451 1341.3C574.862 1434.11 737.358 1456.59 875.375 1414.14C1010.78 1372.5 1118.36 1259.27 1163.86 1126.82Z" stroke="#155DFC"/>
<path d="M1209.97 1103.92C1241.29 988.95 1168.09 881.882 1117.93 774.473C1075.03 682.633 1022.03 604.813 945.537 537.716C822.966 430.208 714.035 246.556 551.977 278.075C389.665 309.643 306.629 506.01 280.19 667.119C258.796 797.488 384.017 892.786 430.921 1015.75C475.33 1132.17 443.218 1282.17 543.446 1357.28C655.049 1440.92 814.939 1452.54 946.843 1402.4C1076.25 1353.21 1173.99 1235.97 1209.97 1103.92Z" stroke="#155DFC"/>
<path d="M1251.95 1077.88C1275.2 963.838 1197.07 864.118 1141.38 762.607C1093.76 675.809 1037.17 603.317 958.361 542.765C832.087 445.742 714.284 273.641 558.328 314.625C402.127 355.672 333.631 552.324 318.065 711.027C305.47 839.448 433.554 924.402 487.058 1041.28C537.715 1151.94 515.917 1300.17 618.363 1367.03C732.435 1441.49 889.011 1442.69 1014.4 1385.47C1137.41 1329.32 1225.25 1208.86 1251.95 1077.88Z" stroke="#155DFC"/>
<path d="M1289.66 1049.07C1305.09 936.5 1222.67 844.306 1161.99 748.948C1110.11 667.411 1050.4 600.376 969.796 546.379C840.649 459.861 715.001 299.671 565.677 349.465C416.118 399.337 361.842 595.234 356.725 750.814C352.585 876.708 482.731 951.356 542.248 1061.82C598.599 1166.42 586.747 1312.18 690.773 1370.83C806.605 1436.14 959.204 1427.4 1077.72 1363.72C1194 1301.25 1271.94 1178.34 1289.66 1049.07Z" stroke="#155DFC"/>
<path d="M1322.95 1017.84C1330.85 907.277 1244.78 822.737 1179.68 733.741C1124.01 657.644 1061.64 596.16 979.758 548.691C848.556 472.632 716.1 324.629 573.878 382.551C431.432 440.564 390.986 634.71 395.846 786.496C399.779 909.321 531.203 973.76 596.133 1077.54C657.609 1175.8 655.292 1318.46 760.275 1368.98C877.173 1425.23 1025.18 1407.06 1136.53 1337.57C1245.78 1269.4 1313.88 1144.82 1322.95 1017.84Z" stroke="#155DFC"/>
<path d="M1351.74 984.586C1352.44 876.517 1263.35 799.707 1194.38 717.236C1135.41 646.718 1070.84 590.842 988.176 549.835C855.718 484.129 717.492 348.507 582.782 413.851C447.861 479.298 420.783 670.745 435.108 818.115C446.7 937.365 578.639 991.752 648.372 1088.62C714.396 1180.33 721.161 1319.27 826.495 1361.79C943.784 1409.12 1086.64 1382.1 1190.58 1307.45C1292.56 1234.21 1350.94 1108.7 1351.74 984.586Z" stroke="#155DFC"/>
<path d="M1375.94 949.683C1369.79 844.566 1278.33 775.512 1206.06 699.684C1144.27 634.846 1077.96 584.598 994.99 549.949C862.052 494.433 719.089 371.302 592.241 443.346C465.194 515.502 450.963 703.354 474.202 845.734C493.007 960.947 624.725 1005.49 698.645 1095.27C768.633 1180.27 783.989 1314.93 889.089 1349.61C1006.12 1388.23 1143.3 1352.92 1239.65 1273.78C1334.18 1196.13 1383.01 1070.41 1375.94 949.683Z" stroke="#155DFC"/>
<path d="M1395.53 913.512C1382.91 811.767 1289.68 750.448 1214.68 681.335C1150.55 622.239 1082.95 577.603 1000.15 549.176C867.483 503.628 720.804 393.019 602.107 471.025C483.223 549.154 481.256 732.571 512.824 869.441C538.369 980.196 669.16 1015.16 746.649 1097.72C820.017 1175.89 843.439 1305.76 947.745 1332.82C1063.89 1362.95 1194.95 1319.99 1283.57 1237.01C1370.51 1155.6 1410.01 1030.36 1395.53 913.512Z" stroke="#155DFC"/>
<path d="M1410.48 876.45C1391.81 778.461 1297.43 724.809 1220.25 662.438C1154.26 609.107 1085.81 570.036 1003.62 547.659C871.943 511.806 722.554 413.669 612.232 496.893C501.738 580.248 511.399 758.451 550.684 889.347C582.473 995.267 711.664 1020.96 792.107 1096.23C868.27 1167.5 899.205 1292.11 1002.18 1311.8C1116.85 1333.73 1241.38 1283.75 1322.19 1197.6C1401.46 1113.07 1431.92 988.987 1410.48 876.45Z" stroke="#155DFC"/>
<path d="M1420.82 838.871C1396.53 744.984 1301.58 698.883 1222.77 643.239C1155.39 595.661 1086.52 562.07 1005.38 545.542C875.371 519.06 724.255 433.269 622.473 520.963C520.532 608.795 541.14 781.069 587.503 905.581C625.021 1006.34 751.975 1023.12 834.761 1091.07C913.144 1155.41 951.01 1274.35 1052.16 1286.97C1164.78 1301.01 1282.45 1244.67 1355.41 1156C1426.98 1069 1448.71 946.697 1420.82 838.871Z" stroke="#155DFC"/>
<path d="M1426.59 801.143C1397.14 711.663 1302.19 672.955 1222.3 623.98C1153.98 582.104 1085.11 553.88 1005.41 542.97C877.716 525.488 725.827 451.844 632.688 543.261C539.404 634.822 570.231 800.518 623.017 918.294C665.731 1013.6 789.852 1021.87 874.381 1082.53C954.414 1139.95 998.613 1252.87 1097.45 1258.73C1207.51 1265.25 1318.02 1203.22 1383.16 1112.67C1447.07 1023.83 1460.42 903.908 1426.59 801.143Z" stroke="#155DFC"/>
<path d="M1427.88 763.624C1393.72 678.815 1299.33 647.301 1218.86 604.897C1150.06 568.638 1081.58 545.637 1003.71 540.085C878.933 531.19 727.193 469.423 642.74 563.823C558.154 658.371 598.439 816.909 656.976 927.655C704.343 1017.27 825.076 1017.47 910.761 1070.9C991.889 1121.48 1041.8 1228.06 1137.9 1227.51C1244.9 1226.9 1348.03 1159.88 1405.42 1068.07C1461.72 978.007 1467.11 861.024 1427.88 763.624Z" stroke="#155DFC"/>
<path d="M1424.77 726.663C1386.39 646.748 1293.07 622.189 1212.55 586.216C1143.69 555.457 1075.98 537.506 1000.28 537.03C878.989 536.268 728.277 486.041 652.494 582.694C576.592 679.498 625.541 830.371 689.146 933.85C740.614 1017.59 857.451 1010.19 943.721 1056.5C1025.4 1100.34 1080.4 1200.33 1173.35 1193.76C1276.85 1186.44 1372.43 1115.11 1422.18 1022.67C1471 931.976 1468.86 818.443 1424.77 726.663Z" stroke="#155DFC"/>
</svg>