<svg xmlns="http://www.w3.org/2000/svg" width="154.03815968665992" height="287.55626482501754" viewBox="1043.3788118133737 517.7014095523658 154.03815968665992 287.55626482501754" fill="none">
<mask id="mask0_310_303" style="mask-type:alpha" maskUnits="userSpaceOnUse" x="352" y="208" width="819" height="973">
<path d="M943.237 947.671C902.141 1119.25 680.239 1173.26 574.426 1178.81C228.671 1203.48 389.96 607.945 668.471 634.333C946.981 660.72 584.443 187.117 755.562 210.83C926.682 234.543 1145.36 503.684 1168.08 658.057C1190.8 812.43 994.608 733.193 943.237 947.671Z" stroke="white" stroke-width="2"/>
<path d="M651.074 798.272C629.358 888.633 512.441 917.163 456.697 920.133C274.546 933.266 359.746 619.632 506.452 633.407C653.159 647.183 462.363 397.97 552.498 410.383C642.633 422.796 757.728 564.414 769.636 645.686C781.544 726.959 678.22 685.321 651.074 798.272Z" stroke="white" stroke-width="2"/>
<path d="M929.156 940.628C889.095 1108.3 672.329 1160.95 568.953 1166.32C231.167 1190.23 388.431 608.283 660.547 634.232C932.662 660.181 578.216 197.101 745.411 220.375C912.605 243.649 1126.4 506.817 1148.68 657.705C1170.96 808.593 979.232 731.039 929.156 940.628Z" stroke="white" stroke-width="2"/>
<path d="M915.174 933.563C875.958 1097.36 664.141 1148.89 563.134 1154.19C233.087 1177.7 387.002 609.203 652.864 634.417C918.725 659.632 572.617 207.485 735.965 230.137C899.314 252.789 1108.08 509.737 1129.78 657.108C1151.49 804.479 964.194 728.82 915.174 933.563Z" stroke="white" stroke-width="2"/>
<path d="M901.375 926.305C863.125 1086.24 656.329 1136.51 557.712 1141.66C235.476 1164.54 385.618 609.431 645.198 634.121C904.778 658.811 566.749 217.197 726.24 239.359C885.73 261.52 1089.62 512.486 1110.85 656.4C1132.07 800.314 949.188 726.385 901.375 926.305Z" stroke="white" stroke-width="2"/>
<path d="M887.394 919.24C849.988 1075.3 648.141 1124.45 551.894 1129.52C237.396 1152.01 384.189 610.35 637.515 634.305C890.841 658.261 561.15 227.58 716.795 249.12C872.439 270.66 1071.31 515.406 1091.95 655.803C1112.6 796.2 934.152 724.166 887.394 919.24Z" stroke="white" stroke-width="2"/>
<path d="M873.595 911.982C837.155 1064.18 640.329 1112.07 546.472 1116.99C239.784 1138.84 382.805 610.578 629.85 634.009C876.895 657.439 555.282 237.293 707.069 258.342C858.856 279.391 1052.85 518.154 1073.02 655.095C1093.18 792.035 919.146 721.731 873.595 911.982Z" stroke="white" stroke-width="2"/>
<path d="M859.613 904.917C824.017 1053.24 632.141 1100.01 540.653 1104.86C241.704 1126.31 381.376 611.497 622.167 634.193C862.957 656.889 549.682 247.675 697.624 268.103C845.565 288.531 1034.54 521.075 1054.12 654.498C1073.71 787.922 904.109 719.512 859.613 904.917Z" stroke="white" stroke-width="2"/>
<path d="M845.815 897.66C811.185 1042.13 624.33 1087.63 535.231 1092.33C244.093 1113.15 379.992 611.726 614.501 633.897C849.011 656.068 543.815 257.388 687.898 277.325C831.982 297.262 1016.08 523.823 1035.19 653.79C1054.29 783.757 889.103 717.076 845.815 897.66Z" stroke="white" stroke-width="2"/>
<path d="M831.853 891.241C798.24 1031.92 616.365 1076.1 529.629 1080.61C246.214 1100.67 378.168 612.399 606.483 634.169C834.798 655.938 537.408 267.403 677.69 286.929C817.972 306.455 997.349 527.259 1016.04 653.859C1034.73 780.458 873.87 715.389 831.853 891.241Z" stroke="white" stroke-width="2"/>
<path d="M818.079 884.019C785.38 1020.77 608.568 1063.75 524.249 1068.14C248.732 1087.69 377.085 613.056 599.031 634.178C820.978 655.299 531.94 277.687 668.309 296.642C804.677 315.598 979.019 530.193 997.17 653.246C1015.32 776.3 858.952 713.08 818.079 884.019Z" stroke="white" stroke-width="2"/>
<path d="M804.073 876.919C772.27 1009.87 600.365 1051.66 518.388 1055.94C250.523 1074.98 375.356 613.546 591.135 634.057C806.914 654.567 525.941 287.499 658.519 305.912C791.098 324.326 960.576 532.928 978.211 652.553C995.845 772.179 843.827 710.735 804.073 876.919Z" stroke="white" stroke-width="2"/>
<path d="M790.298 869.696C759.41 998.712 592.568 1039.3 513.008 1043.47C253.04 1061.99 374.272 614.204 583.683 634.066C793.094 653.928 520.473 297.782 649.138 315.625C777.802 333.469 942.246 535.861 959.339 651.942C976.433 768.022 828.909 708.426 790.298 869.696Z" stroke="white" stroke-width="2"/>
<path d="M776.293 862.596C746.3 987.808 584.365 1027.22 507.148 1031.28C254.832 1049.28 372.543 614.694 575.786 633.945C779.03 653.196 514.474 307.594 639.349 324.896C764.223 342.197 923.803 538.596 940.381 651.249C956.958 763.901 813.784 706.081 776.293 862.596Z" stroke="white" stroke-width="2"/>
<path d="M762.494 855.339C733.466 976.693 576.553 1014.84 501.725 1018.75C257.22 1036.12 371.158 614.922 568.12 633.649C765.083 652.375 508.606 317.307 629.623 334.118C750.64 350.928 905.343 541.345 921.442 650.54C937.541 759.736 798.778 703.646 762.494 855.339Z" stroke="white" stroke-width="2"/>
<path d="M748.512 848.273C720.329 965.75 568.365 1002.78 495.907 1006.61C259.14 1023.59 369.729 615.841 560.437 633.833C751.145 651.825 503.006 327.689 620.177 343.879C737.348 360.068 887.03 544.265 902.55 649.943C918.071 755.622 783.741 701.427 748.512 848.273Z" stroke="white" stroke-width="2"/>
<path d="M734.698 841.026C707.481 954.645 560.538 990.411 490.47 994.092C261.513 1010.43 368.33 616.079 552.757 633.547C737.183 651.014 497.123 337.412 610.437 353.111C723.75 368.809 868.554 547.023 883.596 649.245C898.638 751.467 768.72 699.002 734.698 841.026Z" stroke="white" stroke-width="2"/>
<path d="M720.434 834.175C694.131 943.864 552.252 978.425 484.6 981.995C263.54 997.821 366.756 617.109 544.815 633.928C722.874 650.746 491.165 348.067 600.565 363.195C709.965 378.324 849.734 550.329 864.235 649.005C878.736 747.681 753.312 697.065 720.434 834.175Z" stroke="white" stroke-width="2"/>
<path d="M706.635 826.918C681.298 932.748 544.44 966.045 479.178 969.465C265.929 984.655 365.371 617.337 537.149 633.631C708.927 649.925 485.297 357.78 590.839 372.417C696.382 387.055 831.274 553.077 845.296 648.296C859.318 743.516 738.306 694.629 706.635 826.918Z" stroke="white" stroke-width="2"/>
<path d="M692.653 819.852C668.161 921.805 536.252 953.984 473.359 957.328C267.849 972.126 363.943 618.256 529.466 633.815C694.99 649.375 479.698 368.162 581.394 382.178C683.09 396.194 812.961 555.997 826.405 647.699C839.848 739.402 723.269 692.41 692.653 819.852Z" stroke="white" stroke-width="2"/>
<path d="M678.855 812.595C655.328 910.691 528.44 941.604 467.937 944.799C270.237 958.96 362.558 618.484 521.801 633.519C681.043 648.554 473.83 377.875 571.669 391.4C669.507 404.926 794.501 558.745 807.466 646.991C820.431 735.237 708.263 689.975 678.855 812.595Z" stroke="white" stroke-width="2"/>
<path d="M664.849 805.495C642.217 899.787 520.237 929.522 462.076 932.603C272.029 946.249 360.829 618.975 513.904 633.399C666.979 647.822 467.831 387.687 561.879 400.671C655.928 413.654 776.058 561.481 788.507 646.299C800.956 731.116 693.138 687.631 664.849 805.495Z" stroke="white" stroke-width="2"/>
</mask>
<g mask="url(#mask0_310_303)">
<rect x="1049" y="522" width="1440" height="706" fill="#155DFC"/>
</g>
</svg>