<svg xmlns="http://www.w3.org/2000/svg" width="1339.5730565233926" height="425.7432494919977" viewBox="47.88424972129849 0 1339.5730565233926 425.7432494919977" fill="none">
<path fill-rule="evenodd" clip-rule="evenodd" d="M652.395 -535.428C776.408 -589.025 900.792 -668.883 1030.73 -629.401C1179.97 -584.057 1310.3 -468.846 1362.07 -319.8C1414.83 -167.881 1396.31 13.8801 1297.35 138.255C1208.47 249.953 1038.67 208.42 904.577 255.166C762.951 304.538 650.258 444.042 502.452 415.365C319.793 379.927 98.8386 278.849 68.2343 92.9036C37.6779 -92.7513 250.484 -210.781 376.999 -346.862C455.959 -431.792 546.358 -489.6 652.395 -535.428Z" stroke="#155DFC"/>
<path d="M1006.45 -687.877C876.921 -718.217 760.405 -632.255 642.585 -571.986C541.843 -520.453 457.148 -458.203 385.358 -370.167C270.331 -229.11 69.8065 -100.217 111.468 79.3218C153.195 259.142 375.602 343.913 556.404 366.952C702.708 385.595 804.007 242.07 939.313 184.812C1067.42 130.6 1236.05 160.414 1315.83 45.5821C1404.67 -82.2819 1411.22 -261.132 1350 -406.283C1289.93 -548.69 1155.21 -653.032 1006.45 -687.877Z" stroke="#155DFC"/>
<path d="M978.706 -741.964C850.219 -763.385 741.83 -671.994 630.536 -605.626C535.373 -548.877 456.571 -482.676 392.015 -392.1C288.578 -246.971 100.831 -108.3 152.937 64.4806C205.124 237.532 427.818 306.239 605.941 317.272C750.077 326.199 839.943 179.531 968.514 114.994C1090.25 53.8899 1256.9 72.3145 1327.57 -44.9519C1406.25 -175.527 1401.3 -350.696 1332.26 -488.634C1264.53 -623.964 1126.27 -717.362 978.706 -741.964Z" stroke="#155DFC"/>
<path d="M947.888 -791.484C821.042 -804.251 720.984 -708.116 616.501 -636.235C527.161 -574.772 454.4 -505.117 397.099 -412.558C305.288 -264.255 130.725 -116.907 192.579 48.5313C254.529 214.229 476.383 267.199 651.046 266.67C792.383 266.241 870.843 117.296 992.316 46.1066C1107.33 -21.2956 1271.26 -13.8776 1332.83 -132.89C1401.39 -265.409 1385.44 -436.172 1309.26 -566.508C1234.52 -694.379 1093.57 -776.821 947.888 -791.484Z" stroke="#155DFC"/>
<path d="M914.385 -836.292C789.75 -840.709 698.173 -740.517 600.737 -663.72C517.424 -598.054 450.813 -525.442 400.748 -431.453C320.531 -280.858 159.471 -125.947 230.345 31.6279C301.33 189.45 521.26 227.086 691.731 215.49C829.674 206.106 896.818 55.7307 1010.88 -21.4683C1118.88 -94.5605 1279.38 -97.7178 1331.94 -217.801C1390.46 -351.513 1364.06 -517.198 1281.42 -639.597C1200.35 -759.682 1057.52 -831.22 914.385 -836.292Z" stroke="#155DFC"/>
<path d="M878.593 -876.274C756.706 -872.681 673.706 -769.117 583.506 -688.009C506.381 -618.656 445.992 -543.586 403.102 -448.707C334.381 -296.685 187.056 -135.327 266.198 13.9259C345.464 163.412 562.436 186.19 728.029 164.068C862.026 146.166 918.005 -4.81209 1024.4 -87.367C1125.14 -165.53 1281.54 -178.787 1325.21 -299.285C1373.83 -433.457 1337.57 -593.443 1249.18 -707.628C1162.47 -819.655 1018.58 -880.399 878.593 -876.274Z" stroke="#155DFC"/>
<path d="M840.911 -911.344C722.275 -900.117 647.896 -793.862 565.073 -709.05C494.254 -636.53 440.121 -559.495 404.307 -464.251C346.923 -311.645 213.476 -144.954 300.112 -4.4183C386.885 136.337 599.919 144.801 760.003 112.734C889.542 86.7853 934.565 -63.9956 1033.09 -151.245C1126.38 -233.853 1278.06 -256.692 1313.01 -376.968C1351.93 -510.894 1306.42 -664.613 1213 -770.365C1121.33 -874.119 977.161 -924.238 840.911 -911.344Z" stroke="#155DFC"/>
<path d="M801.739 -941.451C686.819 -922.995 621.053 -814.721 545.699 -726.812C481.268 -651.644 433.384 -573.131 404.509 -478.032C358.243 -325.658 238.734 -154.737 332.076 -23.2487C425.564 108.446 633.737 103.202 787.736 61.8088C912.35 28.3134 946.684 -121.499 1037.19 -212.779C1122.88 -299.203 1269.28 -331.069 1295.72 -450.512C1325.17 -583.51 1271.09 -730.453 1173.33 -827.61C1077.42 -922.929 933.721 -962.648 801.739 -941.451Z" stroke="#155DFC"/>
<path d="M761.475 -966.574C650.699 -941.322 593.488 -831.688 525.649 -741.284C467.643 -663.983 425.968 -584.472 403.86 -490.007C368.436 -338.648 262.838 -164.587 362.087 -42.4106C461.49 79.9572 663.943 61.6727 811.335 11.6028C930.604 -28.9135 954.567 -177.022 1036.95 -271.667C1114.96 -361.278 1255.54 -401.586 1273.75 -519.611C1294.01 -651.031 1232.03 -790.747 1130.65 -879.2C1031.19 -965.982 888.699 -995.576 761.475 -966.574Z" stroke="#155DFC"/>
<path d="M720.515 -986.722C614.268 -955.13 565.506 -844.778 505.181 -752.475C453.6 -673.551 418.058 -593.508 402.51 -500.144C377.599 -350.55 285.806 -174.415 390.156 -61.751C494.67 51.09 690.608 20.482 830.932 -37.5869C944.481 -84.5759 958.441 -230.28 1032.66 -327.633C1102.93 -419.807 1237.25 -467.942 1247.5 -583.995C1258.92 -713.218 1189.74 -845.315 1085.45 -925.015C983.127 -1003.21 842.537 -1023 720.515 -986.722Z" stroke="#155DFC"/>
<path d="M679.247 -1001.93C577.873 -964.479 537.408 -854.033 484.552 -760.415C439.357 -680.367 409.837 -600.244 400.612 -508.425C385.832 -361.306 307.66 -184.137 416.307 -81.1199C525.124 22.0584 713.822 -20.1083 846.675 -85.4764C954.179 -138.372 958.55 -281.014 1024.61 -380.423C1087.15 -474.544 1214.78 -529.867 1217.42 -643.426C1220.36 -769.873 1144.7 -894.02 1038.2 -964.968C933.707 -1034.57 795.672 -1044.95 679.247 -1001.93Z" stroke="#155DFC"/>
<path d="M638.051 -1012.28C541.853 -969.456 509.487 -859.514 464.01 -765.151C425.125 -684.466 401.485 -604.699 398.317 -514.842C393.241 -370.867 328.427 -193.669 440.571 -100.371C552.891 -6.9276 733.695 -59.8475 858.736 -131.798C959.919 -190.019 955.157 -328.984 1013.1 -429.811C1067.96 -525.275 1188.57 -587.129 1183.96 -697.707C1178.83 -820.835 1097.42 -936.761 989.388 -999.014C883.396 -1060.09 748.531 -1061.45 638.051 -1012.28Z" stroke="#155DFC"/>
<path d="M597.297 -1017.85C506.534 -970.169 482.028 -861.305 443.8 -766.75C411.112 -685.901 393.179 -606.905 395.774 -519.399C399.931 -379.191 348.145 -202.932 462.994 -119.363C578.024 -35.6639 750.354 -98.4966 867.303 -176.299C961.937 -239.255 948.538 -373.974 998.472 -475.598C1045.75 -571.815 1159.02 -639.527 1147.57 -746.675C1134.81 -865.984 1048.39 -973.479 939.496 -1027.14C832.657 -1079.79 701.536 -1072.61 597.297 -1017.85Z" stroke="#155DFC"/>
<path d="M557.343 -1018.77C472.23 -966.754 455.305 -859.511 424.154 -765.297C397.518 -684.738 385.09 -606.909 393.13 -522.114C406.011 -386.248 366.851 -211.851 483.63 -137.96C600.592 -63.9533 763.943 -135.83 872.58 -218.746C960.488 -285.841 938.98 -415.794 981.05 -517.611C1020.88 -614.011 1126.59 -686.898 1108.7 -790.206C1088.79 -905.238 998.111 -1004.15 888.997 -1049.39C781.946 -1093.76 655.094 -1078.51 557.343 -1018.77Z" stroke="#155DFC"/>
</svg>