<svg width="582" height="1367" viewBox="0 0 582 1367" fill="none" xmlns="http://www.w3.org/2000/svg">
<path d="M822.42 477.124C975.724 389.789 1166.86 514.782 1243.27 588.196C1497.68 823.629 952.836 1113.14 781.654 891.871C610.472 670.599 512.777 1258.98 413.075 1117.9C313.372 976.819 360.235 633.216 457.345 511.082C554.456 388.947 630.789 586.292 822.42 477.124Z" stroke="white" stroke-width="2"/>
<path d="M826.909 492.214C976.65 406.798 1163.29 528.968 1237.89 600.73C1486.31 830.865 954.129 1114.03 786.999 897.722C619.87 681.416 524.32 1256.69 426.981 1118.78C329.642 980.864 375.49 644.914 470.359 525.484C565.228 406.055 639.732 598.985 826.909 492.214Z" stroke="white" stroke-width="2"/>
<path d="M831.314 507.248C977.649 423.866 1160.09 543.19 1233.02 613.275C1475.85 838.031 955.777 1114.44 792.388 903.202C628.999 691.962 535.726 1253.68 440.563 1119C345.399 984.313 390.143 656.28 482.841 539.678C575.539 423.075 648.395 611.474 831.314 507.248Z" stroke="white" stroke-width="2"/>
<path d="M835.453 522.279C978.313 440.831 1156.4 557.355 1227.58 625.798C1464.61 845.291 956.89 1115.3 797.413 908.998C637.936 702.7 546.825 1251.32 453.942 1119.79C361.058 988.255 404.771 667.871 495.274 553.981C585.777 440.092 656.878 624.089 835.453 522.279Z" stroke="white" stroke-width="2"/>
<path d="M839.857 537.313C979.311 457.899 1153.19 571.577 1222.7 638.343C1454.16 852.457 958.537 1115.71 802.8 914.478C647.064 713.246 558.23 1248.31 467.523 1120.01C376.815 991.704 419.424 679.237 507.756 568.175C596.088 457.112 665.541 636.579 839.857 537.313Z" stroke="white" stroke-width="2"/>
<path d="M843.997 552.344C979.975 474.864 1149.5 585.742 1217.27 650.866C1442.92 859.716 959.65 1116.56 807.826 920.274C656.001 723.985 569.33 1245.95 480.902 1120.8C392.474 995.645 434.051 690.829 520.189 582.479C606.326 474.129 674.025 649.194 843.997 552.344Z" stroke="white" stroke-width="2"/>
<path d="M848.402 567.377C980.973 491.932 1146.3 599.964 1212.39 663.411C1432.46 866.882 961.298 1116.98 813.214 925.754C665.13 734.531 580.735 1242.94 494.483 1121.01C408.232 999.095 448.705 702.195 532.671 596.672C616.637 491.149 682.687 661.684 848.402 567.377Z" stroke="white" stroke-width="2"/>
<path d="M852.541 582.408C981.637 508.896 1142.61 614.129 1206.96 675.934C1421.22 874.141 962.411 1117.83 818.239 931.55C674.067 745.269 591.834 1240.58 507.862 1121.81C423.89 1003.04 463.332 713.786 545.104 610.975C626.875 508.165 691.171 674.298 852.541 582.408Z" stroke="white" stroke-width="2"/>
<path d="M857.404 596.985C983.043 525.319 1139.64 627.823 1202.24 688.033C1410.67 881.123 964.149 1118.7 823.92 937.216C683.691 755.729 603.523 1238.4 521.851 1122.69C440.178 1006.97 478.646 725.102 558.244 624.898C637.843 524.694 700.355 686.567 857.404 596.985Z" stroke="white" stroke-width="2"/>
<path d="M861.552 611.975C983.698 542.329 1135.96 641.963 1196.82 700.485C1399.47 888.163 965.37 1119.04 829.022 942.647C692.674 766.25 614.766 1235.36 535.353 1122.89C455.941 1010.42 493.32 736.472 570.701 639.087C648.083 541.702 708.871 699.032 861.552 611.975Z" stroke="white" stroke-width="2"/>
<path d="M865.948 627.049C984.705 559.351 1132.75 656.21 1191.92 713.101C1388.97 895.548 966.91 1119.97 834.333 948.492C701.756 777.014 626.027 1233.03 548.811 1123.7C471.595 1014.36 507.926 748.06 583.159 653.395C658.392 558.731 717.502 711.672 865.948 627.049Z" stroke="white" stroke-width="2"/>
<path d="M870.097 642.039C985.36 576.362 1129.06 670.35 1186.5 725.554C1377.78 902.589 968.131 1120.31 839.435 953.923C710.739 787.535 637.27 1229.99 562.314 1123.9C487.357 1017.81 522.601 759.429 595.616 667.584C668.632 575.739 726.017 724.137 870.097 642.039Z" stroke="white" stroke-width="2"/>
<path d="M874.492 657.114C986.367 593.384 1125.85 684.597 1181.61 738.169C1367.28 909.974 969.67 1121.24 844.746 959.768C719.822 798.298 648.532 1227.66 575.771 1124.7C503.011 1021.75 537.207 771.017 608.074 681.892C678.941 592.768 734.648 736.776 874.492 657.114Z" stroke="white" stroke-width="2"/>
<path d="M878.632 672.145C987.032 610.349 1122.16 698.762 1176.18 750.693C1356.04 917.233 970.784 1122.09 849.771 965.564C728.759 809.037 659.632 1225.3 589.151 1125.5C518.67 1025.7 551.835 782.608 620.507 696.196C689.179 609.784 743.132 749.391 878.632 672.145Z" stroke="white" stroke-width="2"/>
<path d="M883.036 687.179C988.03 627.417 1118.96 712.984 1171.3 763.238C1345.58 924.399 972.431 1122.51 855.159 971.044C737.888 819.583 671.036 1222.28 602.732 1125.71C534.427 1029.14 566.488 793.974 632.989 710.39C699.49 626.805 751.794 761.881 883.036 687.179Z" stroke="white" stroke-width="2"/>
<path d="M887.194 702.215C988.712 644.386 1115.29 727.153 1165.88 775.766C1334.36 931.663 973.562 1123.36 860.202 976.845C746.843 830.326 682.154 1219.93 616.129 1126.51C550.104 1033.09 581.134 805.57 645.44 724.698C709.746 643.826 760.296 774.5 887.194 702.215Z" stroke="white" stroke-width="2"/>
<path d="M891.948 717.308C989.973 661.499 1112.2 741.396 1161.07 788.321C1323.77 938.806 975.389 1123.81 865.911 982.379C756.432 840.95 694.003 1216.99 630.238 1126.82C566.472 1036.64 596.414 817.043 658.503 738.99C720.592 660.937 769.418 787.068 891.948 717.308Z" stroke="white" stroke-width="2"/>
<path d="M896.088 732.339C990.637 678.463 1108.51 755.561 1155.63 800.844C1312.53 946.065 976.502 1124.66 870.936 988.176C765.369 851.688 705.102 1214.63 643.617 1127.61C582.131 1040.59 611.042 828.634 670.936 753.294C730.829 677.953 777.901 799.683 896.088 732.339Z" stroke="white" stroke-width="2"/>
<path d="M900.492 747.373C991.635 695.532 1105.31 769.784 1150.76 813.389C1302.07 953.232 978.15 1125.08 876.324 993.656C774.498 862.235 716.507 1211.62 657.198 1127.83C597.889 1044.04 625.695 840 683.418 767.487C741.14 694.974 786.564 812.173 900.492 747.373Z" stroke="white" stroke-width="2"/>
</svg>
