<svg width="350" height="1437" viewBox="0 0 350 1437" fill="none" xmlns="http://www.w3.org/2000/svg">
<path d="M-99.763 947.671C-140.86 1119.25 -362.761 1173.26 -468.574 1178.81C-814.329 1203.48 -653.04 607.945 -374.529 634.333C-96.0188 660.721 -458.557 187.117 -287.438 210.83C-116.319 234.544 102.364 503.684 125.084 658.057C147.805 812.43 -48.3921 733.193 -99.763 947.671Z" stroke="white" stroke-width="2"/>
<path d="M-113.844 940.628C-153.905 1108.3 -370.671 1160.95 -474.047 1166.32C-811.833 1190.23 -654.569 608.283 -382.453 634.232C-110.338 660.182 -464.784 197.102 -297.589 220.375C-130.395 243.649 83.3977 506.817 105.676 657.705C127.955 808.593 -63.7685 731.039 -113.844 940.628Z" stroke="white" stroke-width="2"/>
<path d="M-127.826 933.563C-167.042 1097.36 -378.859 1148.89 -479.866 1154.19C-809.913 1177.7 -655.998 609.203 -390.136 634.417C-124.275 659.632 -470.383 207.485 -307.035 230.137C-143.687 252.789 65.0843 509.738 86.7847 657.108C108.485 804.479 -78.8057 728.82 -127.826 933.563Z" stroke="white" stroke-width="2"/>
<path d="M-141.625 926.305C-179.875 1086.24 -386.671 1136.51 -485.288 1141.66C-807.524 1164.54 -657.382 609.431 -397.802 634.121C-138.222 658.811 -476.251 217.197 -316.76 239.359C-157.27 261.52 46.6243 512.486 67.8461 656.4C89.0679 800.315 -93.8115 726.385 -141.625 926.305Z" stroke="white" stroke-width="2"/>
<path d="M-155.606 919.24C-193.012 1075.3 -394.859 1124.45 -491.106 1129.52C-805.604 1152.01 -658.811 610.35 -405.485 634.305C-152.159 658.261 -481.85 227.58 -326.206 249.12C-170.561 270.66 28.3111 515.406 48.9546 655.803C69.598 796.2 -108.849 724.166 -155.606 919.24Z" stroke="white" stroke-width="2"/>
<path d="M-169.405 911.983C-205.845 1064.18 -402.671 1112.07 -496.528 1116.99C-803.216 1138.84 -660.195 610.579 -413.15 634.009C-166.106 657.44 -487.718 237.293 -335.931 258.342C-184.144 279.391 9.85113 518.154 30.0159 655.095C50.1807 792.036 -123.854 721.731 -169.405 911.983Z" stroke="white" stroke-width="2"/>
<path d="M-183.387 904.917C-218.983 1053.24 -410.859 1100.01 -502.347 1104.86C-801.296 1126.31 -661.624 611.498 -420.833 634.194C-180.043 656.89 -493.318 247.675 -345.377 268.103C-197.435 288.531 -8.46231 521.075 11.1241 654.498C30.7106 787.922 -138.892 719.512 -183.387 904.917Z" stroke="white" stroke-width="2"/>
<path d="M-197.185 897.66C-231.815 1042.13 -418.67 1087.63 -507.769 1092.33C-798.907 1113.15 -663.008 611.726 -428.499 633.897C-193.99 656.068 -499.185 257.388 -355.102 277.325C-211.018 297.262 -26.9222 523.823 -7.81436 653.79C11.2934 783.757 -153.897 717.077 -197.185 897.66Z" stroke="white" stroke-width="2"/>
<path d="M-211.147 891.242C-244.76 1031.92 -426.635 1076.1 -513.371 1080.61C-796.786 1100.67 -664.832 612.399 -436.517 634.169C-208.202 655.939 -505.592 267.403 -365.31 286.93C-225.028 306.456 -45.6506 527.259 -26.959 653.859C-8.26748 780.458 -169.13 715.39 -211.147 891.242Z" stroke="white" stroke-width="2"/>
<path d="M-224.921 884.019C-257.62 1020.77 -434.432 1063.75 -518.751 1068.14C-794.268 1087.69 -665.915 613.056 -443.969 634.178C-222.022 655.299 -511.06 277.687 -374.692 296.642C-238.323 315.598 -63.9808 530.193 -45.8303 653.247C-27.6798 776.301 -184.048 713.08 -224.921 884.019Z" stroke="white" stroke-width="2"/>
<path d="M-238.927 876.919C-270.73 1009.87 -442.635 1051.66 -524.612 1055.94C-792.477 1074.98 -667.645 613.546 -451.866 634.057C-236.086 654.567 -517.059 287.499 -384.481 305.913C-251.903 324.326 -82.4238 532.928 -64.7893 652.554C-47.1548 772.179 -199.173 710.735 -238.927 876.919Z" stroke="white" stroke-width="2"/>
<path d="M-252.702 869.696C-283.59 998.712 -450.432 1039.3 -529.992 1043.47C-789.96 1061.99 -668.729 614.204 -459.317 634.066C-249.906 653.928 -522.527 297.782 -393.863 315.626C-265.198 333.469 -100.754 535.861 -83.6607 651.942C-66.5672 768.022 -214.091 708.426 -252.702 869.696Z" stroke="white" stroke-width="2"/>
</svg>
