<svg width="679" height="1605" viewBox="0 0 679 1605" fill="none" xmlns="http://www.w3.org/2000/svg">
<path d="M524.131 974.685C371.027 887 381.596 658.866 406.018 555.759C479.572 217.02 1005.72 539.257 902.087 799.111C798.451 1058.96 1354.89 844.224 1284.01 1001.77C1213.14 1159.32 893.369 1293.5 738.836 1271.9C584.303 1250.29 715.511 1084.29 524.131 974.685Z" stroke="white" stroke-width="2"/>
<path d="M749.654 736.319C669.045 690.07 674.542 569.848 687.366 515.518C725.981 337.024 1003 506.975 948.533 643.89C894.061 780.804 1186.87 667.78 1149.61 750.788C1112.35 833.796 944.087 904.427 862.746 893.002C781.404 881.577 850.415 794.13 749.654 736.319Z" stroke="white" stroke-width="2"/>
<path d="M534.849 963.152C385.207 877.561 395.628 654.734 419.544 554.02C491.583 223.141 1005.83 537.694 904.412 791.535C802.994 1045.37 1347.06 835.441 1277.71 989.346C1208.36 1143.25 895.696 1274.42 744.631 1253.37C593.566 1232.32 721.901 1070.14 534.849 963.152Z" stroke="white" stroke-width="2"/>
<path d="M545.561 951.721C399.402 868.03 409.505 650.268 432.827 551.848C503.066 228.505 1005.35 536.064 906.395 784.109C807.441 1032.15 1338.67 827.148 1271 977.536C1203.33 1127.92 898.042 1256.02 750.515 1235.41C602.988 1214.79 728.259 1056.33 545.561 951.721Z" stroke="white" stroke-width="2"/>
<path d="M556.405 940.52C413.677 858.841 423.582 646.252 446.375 550.168C515.029 234.5 1005.52 534.672 908.835 776.837C812.151 1019 1331 818.786 1264.88 965.61C1198.77 1112.43 900.596 1237.53 756.52 1217.43C612.445 1197.33 734.815 1042.62 556.405 940.52Z" stroke="white" stroke-width="2"/>
<path d="M567.117 929.089C427.873 849.31 437.46 641.787 459.658 547.997C526.513 239.865 1005.04 533.043 910.818 769.412C816.597 1005.78 1322.61 810.493 1258.17 953.801C1193.73 1097.11 902.943 1219.14 762.405 1199.47C621.868 1179.8 741.173 1028.81 567.117 929.089Z" stroke="white" stroke-width="2"/>
<path d="M577.962 917.888C442.148 840.121 451.536 637.771 473.207 546.317C538.476 245.86 1005.21 531.65 913.258 762.139C821.307 992.628 1314.94 802.131 1252.05 941.875C1189.17 1081.62 905.496 1200.65 768.41 1181.5C631.325 1162.34 747.729 1015.1 577.962 917.888Z" stroke="white" stroke-width="2"/>
<path d="M588.673 906.457C456.343 830.59 465.413 633.305 486.49 544.145C549.959 251.225 1004.73 530.02 915.241 754.714C825.754 979.408 1306.55 793.838 1245.34 930.066C1184.14 1066.29 907.843 1182.25 774.295 1163.53C640.747 1144.81 754.087 1001.29 588.673 906.457Z" stroke="white" stroke-width="2"/>
<path d="M599.518 895.255C470.618 821.4 479.49 629.289 500.038 542.465C561.922 257.219 1004.9 528.628 917.681 747.441C830.463 966.254 1298.88 785.476 1239.23 918.14C1179.58 1050.8 910.396 1163.77 780.3 1145.56C650.204 1127.35 760.643 987.574 599.518 895.255Z" stroke="white" stroke-width="2"/>
<path d="M609.603 883.662C484.049 811.847 492.791 624.887 512.857 540.383C573.298 262.763 1004.77 526.689 919.675 739.67C834.584 952.651 1291.07 776.512 1232.88 905.643C1174.7 1034.77 912.365 1144.83 785.617 1127.17C658.87 1109.51 766.545 973.431 609.603 883.662Z" stroke="white" stroke-width="2"/>
<path d="M620.408 872.474C498.368 802.642 506.844 620.879 526.336 538.727C585.048 268.829 1004.44 525.464 921.761 732.516C839.084 939.569 1282.73 768.373 1226.2 893.909C1169.66 1019.45 914.704 1126.41 791.511 1109.23C668.318 1092.05 772.956 959.764 620.408 872.474Z" stroke="white" stroke-width="2"/>
<path d="M631.159 861.03C512.52 793.127 520.745 616.405 539.688 536.532C596.744 274.123 1004.46 523.667 924.098 724.972C843.741 926.278 1275.01 759.857 1220.05 881.908C1165.1 1003.96 917.265 1107.94 797.507 1091.23C677.749 1074.52 779.459 945.909 631.159 861.03Z" stroke="white" stroke-width="2"/>
<path d="M641.964 849.842C526.839 783.922 534.797 612.397 553.167 534.875C608.495 280.189 1004.13 522.441 926.185 717.819C848.24 913.196 1266.67 751.717 1213.37 870.173C1160.07 988.63 919.604 1089.53 803.401 1073.29C687.197 1057.06 785.87 932.242 641.964 849.842Z" stroke="white" stroke-width="2"/>
<path d="M652.716 838.398C540.99 774.407 548.699 607.923 566.52 532.681C620.19 285.482 1004.15 520.644 928.521 710.275C852.897 899.905 1258.94 743.202 1207.23 858.173C1155.51 973.144 922.165 1071.06 809.397 1055.29C696.628 1039.53 792.373 918.387 652.716 838.398Z" stroke="white" stroke-width="2"/>
<path d="M663.56 827.196C555.265 765.217 562.776 603.908 580.068 531.001C632.153 291.477 1004.31 519.252 930.961 703.001C857.607 886.751 1251.27 734.839 1201.11 846.246C1150.95 957.654 924.718 1052.57 815.402 1037.32C706.085 1022.06 798.93 904.671 663.56 827.196Z" stroke="white" stroke-width="2"/>
<path d="M674.272 815.765C569.46 755.686 576.653 599.442 593.351 528.829C643.637 296.842 1003.83 517.622 932.944 695.577C862.054 873.531 1242.88 726.546 1194.4 834.438C1145.92 942.329 927.065 1034.18 821.287 1019.36C715.508 1004.54 805.288 890.864 674.272 815.765Z" stroke="white" stroke-width="2"/>
<path d="M685.111 804.547C583.73 746.479 590.724 595.409 606.894 527.132C655.594 302.819 1004 516.212 935.379 688.286C866.758 860.36 1235.21 718.167 1188.28 822.494C1141.35 926.821 929.613 1015.67 827.286 1001.36C724.959 987.055 811.838 877.131 685.111 804.547Z" stroke="white" stroke-width="2"/>
<path d="M695.697 792.784C597.83 736.7 604.557 590.826 620.155 524.9C667.126 308.31 1003.45 514.412 937.246 680.558C871.038 846.704 1226.66 709.453 1181.38 810.185C1136.1 910.917 931.733 996.681 832.961 982.851C734.188 969.02 818.03 862.89 695.697 792.784Z" stroke="white" stroke-width="2"/>
<path d="M706.541 781.583C612.105 727.51 618.634 586.811 633.703 523.22C679.089 314.304 1003.62 513.019 939.686 673.285C875.748 833.55 1218.99 701.091 1175.26 798.259C1131.54 895.427 934.287 978.193 838.966 964.875C743.645 951.557 824.587 849.174 706.541 781.583Z" stroke="white" stroke-width="2"/>
<path d="M717.253 770.152C626.3 717.979 632.511 582.345 646.986 521.049C690.572 319.669 1003.14 511.39 941.67 665.86C880.195 820.33 1210.6 692.797 1168.55 786.449C1126.51 880.102 936.634 959.798 844.851 946.914C753.068 934.03 830.944 835.367 717.253 770.152Z" stroke="white" stroke-width="2"/>
<path d="M728.098 758.95C640.575 708.79 646.588 578.329 660.535 519.369C702.535 325.664 1003.31 509.997 944.11 658.587C884.905 807.177 1202.93 684.435 1162.44 774.523C1121.95 864.611 939.187 941.31 850.856 928.938C762.525 916.567 837.501 821.651 728.098 758.95Z" stroke="white" stroke-width="2"/>
<path d="M738.849 747.506C654.726 699.274 660.489 573.855 673.887 517.174C714.231 330.957 1003.33 508.2 946.446 651.043C889.562 793.886 1195.2 675.919 1156.29 762.522C1117.39 849.126 941.748 922.842 856.852 910.939C771.955 899.036 844.004 807.796 738.849 747.506Z" stroke="white" stroke-width="2"/>
</svg>
