<svg width="492" height="1244" viewBox="0 0 492 1244" fill="none" xmlns="http://www.w3.org/2000/svg">
<path d="M89.242 834.253C133.267 1005.11 -37.5207 1156.73 -128.418 1211.18C-422.383 1394.86 -558.707 793.123 -300.256 686.035C-41.8057 578.947 -583.9 330.214 -421.594 271.045C-259.288 211.877 59.9601 347.301 152.316 473.069C244.673 598.836 34.2108 620.684 89.242 834.253Z" stroke="white" stroke-width="2"/>
<path d="M73.5021 834.623C116.611 1001.54 -50.2717 1149.56 -139.102 1202.7C-426.38 1381.99 -559.899 794.138 -307.305 689.657C-54.7103 585.175 -584.727 341.952 -426.094 284.233C-267.462 226.514 44.6678 358.949 135.003 481.844C225.337 604.74 19.6155 625.981 73.5021 834.623Z" stroke="white" stroke-width="2"/>
<path d="M57.8395 834.926C99.8795 998.018 -63.1542 1142.73 -149.926 1194.71C-430.55 1370.02 -560.731 795.619 -314.007 693.417C-67.2827 591.215 -584.813 353.748 -429.87 297.281C-274.927 240.813 29.8535 370.105 118.03 490.163C206.207 610.221 5.28964 631.061 57.8395 834.926Z" stroke="white" stroke-width="2"/>
<path d="M42.2489 834.974C83.3359 994.206 -75.853 1135.45 -160.583 1186.17C-434.603 1357.27 -561.848 796.469 -320.919 696.744C-79.9908 597.02 -585.45 365.077 -434.146 309.983C-282.841 254.888 14.8287 381.176 100.964 498.404C187.1 615.632 -9.10987 635.935 42.2489 834.974Z" stroke="white" stroke-width="2"/>
<path d="M26.5863 835.277C66.6039 990.687 -88.7355 1128.63 -171.408 1178.17C-438.774 1345.3 -562.68 797.95 -327.622 700.505C-92.5634 603.059 -585.536 376.873 -437.921 323.03C-290.307 269.187 0.0143209 392.332 83.992 506.722C167.97 621.113 -23.4359 641.015 26.5863 835.277Z" stroke="white" stroke-width="2"/>
<path d="M10.9956 835.326C50.0604 986.875 -101.434 1121.35 -182.065 1169.64C-442.827 1332.54 -563.796 798.8 -334.534 703.832C-105.271 608.864 -586.174 388.203 -442.197 335.733C-298.221 283.262 -15.0104 403.403 66.9259 514.964C148.862 626.525 -37.8353 645.89 10.9956 835.326Z" stroke="white" stroke-width="2"/>
<path d="M-4.66704 835.629C33.3284 983.357 -114.317 1114.52 -192.889 1161.64C-446.997 1320.57 -564.628 800.281 -341.236 707.593C-117.844 614.904 -586.26 399.999 -445.973 348.78C-305.686 297.561 -29.8248 414.559 49.9536 523.282C129.732 632.006 -52.1613 650.97 -4.66704 835.629Z" stroke="white" stroke-width="2"/>
<path d="M-20.2576 835.678C16.7849 979.544 -127.016 1107.24 -203.546 1153.11C-451.051 1307.82 -565.744 801.131 -348.148 710.92C-130.552 620.708 -586.897 411.329 -450.248 361.483C-313.6 311.636 -44.8495 425.63 32.8876 531.524C110.625 637.417 -66.5608 655.844 -20.2576 835.678Z" stroke="white" stroke-width="2"/>
<path d="M-35.5994 836.543C0.569443 976.59 -139.451 1100.79 -213.982 1145.38C-455.018 1295.81 -567.04 802.579 -355.106 714.914C-143.172 627.248 -587.868 423.178 -454.771 374.749C-321.674 326.319 -59.7892 437.436 16.0034 540.549C91.796 643.662 -80.8104 661.485 -35.5994 836.543Z" stroke="white" stroke-width="2"/>
<path d="M-51.1524 836.611C-16.0158 972.756 -152.127 1093.52 -224.575 1136.88C-458.872 1283.16 -567.69 803.668 -361.686 718.411C-155.682 633.154 -587.885 434.825 -458.513 387.724C-329.141 340.623 -74.6124 448.61 -0.957986 548.844C72.6964 649.077 -95.0733 666.43 -51.1524 836.611Z" stroke="white" stroke-width="2"/>
<path d="M-66.8526 836.895C-32.706 969.259 -165.032 1086.68 -235.464 1128.85C-463.241 1271.08 -568.989 804.911 -368.72 722.002C-168.452 639.093 -588.592 446.304 -462.822 400.499C-337.053 354.693 -89.6282 459.663 -18.0349 557.108C53.5585 654.554 -109.536 671.44 -66.8526 836.895Z" stroke="white" stroke-width="2"/>
<path d="M-82.4058 836.962C-49.2914 965.425 -177.708 1079.41 -246.056 1120.35C-467.096 1258.43 -569.639 805.999 -375.301 725.499C-180.962 644.998 -588.609 457.951 -466.565 413.474C-344.52 368.997 -104.452 470.837 -34.9964 565.404C34.4588 659.97 -123.799 676.384 -82.4058 836.962Z" stroke="white" stroke-width="2"/>
<path d="M-98.1058 837.246C-65.9815 961.928 -190.614 1072.58 -256.945 1112.32C-471.465 1246.36 -570.937 807.241 -382.335 729.089C-193.733 650.937 -589.315 469.43 -470.874 426.248C-352.432 383.067 -119.467 481.889 -52.0731 573.668C15.321 665.447 -138.261 681.394 -98.1058 837.246Z" stroke="white" stroke-width="2"/>
<path d="M-113.697 837.295C-82.5251 958.116 -203.312 1065.3 -267.603 1103.78C-475.519 1233.61 -572.053 808.092 -389.247 732.417C-206.441 656.742 -589.953 480.759 -475.149 438.951C-360.346 397.142 -134.492 492.961 -69.1393 581.91C-3.78649 670.858 -152.661 686.268 -113.697 837.295Z" stroke="white" stroke-width="2"/>
<path d="M-129.359 837.598C-99.2572 954.598 -216.195 1058.47 -278.427 1095.78C-479.689 1221.64 -572.886 809.573 -395.95 736.177C-219.013 662.781 -590.039 492.555 -478.925 451.998C-367.812 411.442 -149.307 504.116 -86.1117 590.228C-22.9167 676.339 -166.987 691.348 -129.359 837.598Z" stroke="white" stroke-width="2"/>
<path d="M-144.959 837.662C-115.81 950.801 -228.903 1051.21 -289.093 1087.27C-483.751 1208.91 -574.011 810.439 -402.871 739.52C-231.73 668.602 -590.685 503.901 -483.21 464.717C-375.735 425.533 -164.34 515.204 -103.187 598.486C-42.0331 681.767 -181.395 696.239 -144.959 837.662Z" stroke="white" stroke-width="2"/>
</svg>
