<svg width="26" height="26" viewBox="0 0 26 26" fill="none" xmlns="http://www.w3.org/2000/svg">
<g clip-path="url(#clip0_121_244)">
<rect width="26" height="26" rx="13" fill="#59667C"/>
<path d="M19.4846 9.26492C18.5789 9.2649 17.7104 8.90511 17.07 8.26471C16.4296 7.62431 16.0699 6.75575 16.0699 5.8501H13.6302V15.4034C13.6298 15.839 13.4922 16.2633 13.2371 16.6164C12.982 16.9694 12.6223 17.2332 12.2089 17.3703C11.7955 17.5075 11.3494 17.511 10.9338 17.3805C10.5183 17.2499 10.1544 16.9919 9.89367 16.643C9.63296 16.2941 9.48868 15.872 9.48128 15.4365C9.47387 15.001 9.60372 14.5742 9.85242 14.2167C10.1011 13.8591 10.456 13.5888 10.8669 13.4443C11.2778 13.2997 11.7237 13.2881 12.1415 13.4111V11.0395C11.2536 10.9198 10.3502 11.0738 9.55212 11.481C8.754 11.8882 8.0991 12.5291 7.67486 13.3183C7.25063 14.1075 7.07725 15.0073 7.17789 15.8977C7.27852 16.788 7.64838 17.6264 8.23807 18.301C8.82776 18.9756 9.60921 19.4542 10.4781 19.673C11.347 19.8917 12.2619 19.8402 13.1007 19.5253C13.9395 19.2104 14.6623 18.6471 15.1726 17.9105C15.6828 17.174 15.9562 16.2994 15.9562 15.4034L16.0274 10.5745C17.0298 11.3104 18.2413 11.7063 19.4848 11.7045L19.4846 9.26492Z" fill="white"/>
</g>
<defs>
<clipPath id="clip0_121_244">
<rect width="26" height="26" fill="white"/>
</clipPath>
</defs>
</svg>
