<svg width="26" height="26" viewBox="0 0 26 26" fill="none" xmlns="http://www.w3.org/2000/svg">
<rect width="26" height="26" rx="13" fill="#59667C"/>
<path d="M13.6386 17.55C8.75285 17.55 5.96609 14.134 5.84998 8.44995H8.29732C8.37771 12.6219 10.182 14.3891 11.6111 14.7535V8.44995H13.9155V12.048C15.3267 11.8932 16.8094 10.2536 17.3096 8.44995H19.6141C19.4256 9.38535 19.0499 10.271 18.5104 11.0516C17.971 11.8321 17.2794 12.4908 16.479 12.9863C17.3724 13.4391 18.1616 14.0799 18.7944 14.8666C19.4272 15.6532 19.8892 16.5678 20.15 17.55H17.6133C17.3792 16.6969 16.9035 15.9333 16.2457 15.3548C15.5879 14.7763 14.7773 14.4087 13.9155 14.298V17.55H13.6386Z" fill="white"/>
</svg>
