<?xml version='1.0' encoding='iso-8859-1'?>
<svg version="1.1" xmlns="http://www.w3.org/2000/svg" viewBox="0 0 8.64 8.64" xmlns:xlink="http://www.w3.org/1999/xlink" enable-background="new 0 0 8.64 8.64">
  <g>
    <g>
      <path fill="#020400" fill-rule="evenodd" d="m4.32,0c-2.385,0-4.32,1.934-4.32,4.319s1.935,4.32 4.32,4.32c2.386,0 4.319-1.935 4.319-4.32s-1.933-4.319-4.319-4.319zm0,8.159c-2.121,0-3.841-1.719-3.841-3.84s1.72-3.84 3.841-3.84c2.12,0 3.84,1.719 3.84,3.84s-1.72,3.84-3.84,3.84zm-.24-3.84v-0.005c0,0 0-0.001 0-0.001 0,0.003 0,0.003 0,0.006zm1.592-2.836l-1.112,1.926v-1.25c0-0.132-0.107-0.239-0.239-0.239-0.133,0-0.24,0.107-0.24,0.239v2.155c0.013,0.088 0.065,0.245 0.24,0.245 0.106,0 0.192-0.069 0.225-0.164l1.542-2.672c0.066-0.114 0.027-0.262-0.088-0.328-0.115-0.065-0.262-0.026-0.328,0.088z"/>
    </g>
  </g>
</svg>
