<svg width="192" height="10" viewBox="0 0 192 10" fill="none" xmlns="http://www.w3.org/2000/svg">
<path d="M3.37 2.0001C3.01667 2.0001 2.73 2.15343 2.51 2.4601C2.29 2.7601 2.18 3.12343 2.18 3.5501C2.18 3.9701 2.3 4.34343 2.54 4.6701C2.78 4.99676 3.07 5.1601 3.41 5.1601C3.75667 5.1601 4.01667 5.10343 4.19 4.9901C4.36333 4.8701 4.50333 4.68676 4.61 4.4401L4.76 4.4601C4.76 4.5001 4.72667 4.63343 4.66 4.8601C4.59333 5.0801 4.54333 5.1901 4.51 5.1901C4.17 5.38343 3.73333 5.4801 3.2 5.4801C2.66667 5.4801 2.22 5.31343 1.86 4.9801C1.50667 4.6401 1.33 4.18343 1.33 3.6101C1.33 3.03676 1.51667 2.57676 1.89 2.2301C2.26333 1.87676 2.74333 1.7001 3.33 1.7001C3.55 1.7001 3.80667 1.7301 4.1 1.7901C4.4 1.84343 4.57 1.87343 4.61 1.8801C4.63 1.93343 4.64 2.0801 4.64 2.3201C4.64 2.55343 4.63 2.72676 4.61 2.8401L4.36 2.8101C4.36 2.5301 4.25 2.32343 4.03 2.1901C3.83667 2.06343 3.61667 2.0001 3.37 2.0001ZM7.45058e-09 3.6101C7.45058e-09 2.69676 0.31 1.9301 0.93 1.3101C1.55667 0.690097 2.32333 0.380097 3.23 0.380097C4.13667 0.380097 4.89333 0.690097 5.5 1.3101C6.10667 1.92343 6.41 2.68343 6.41 3.5901C6.41 4.4901 6.09667 5.2501 5.47 5.8701C4.85 6.4901 4.09 6.8001 3.19 6.8001C2.29 6.8001 1.53333 6.49676 0.92 5.8901C0.306667 5.27676 7.45058e-09 4.51676 7.45058e-09 3.6101ZM6.01 3.5901C6.01 2.7901 5.73667 2.12676 5.19 1.6001C4.65 1.06676 3.98667 0.800098 3.2 0.800098C2.42 0.800098 1.75667 1.06676 1.21 1.6001C0.67 2.12676 0.4 2.78676 0.4 3.5801C0.4 4.36676 0.67 5.02676 1.21 5.5601C1.75667 6.09343 2.43333 6.3601 3.24 6.3601C4.05333 6.3601 4.71667 6.1001 5.23 5.5801C5.75 5.05343 6.01 4.3901 6.01 3.5901ZM12.3045 2.6601C12.3045 2.2601 12.1845 1.94343 11.9445 1.7101C11.7045 1.47676 11.4112 1.3601 11.0645 1.3601C10.7245 1.3601 10.4445 1.4401 10.2245 1.6001C10.0045 1.75343 9.77786 1.99676 9.54453 2.3301C9.4912 2.3301 9.4312 2.31343 9.36453 2.2801C9.29786 2.2401 9.2812 2.18676 9.31453 2.1201C9.49453 1.7001 9.77453 1.35676 10.1545 1.0901C10.5345 0.816764 10.9779 0.680097 11.4845 0.680097C11.9912 0.680097 12.4212 0.840097 12.7745 1.1601C13.1345 1.47343 13.3145 1.8801 13.3145 2.3801C13.3145 3.20676 12.8979 4.10676 12.0645 5.0801C11.5845 5.64676 11.0879 6.2001 10.5745 6.7401C10.5745 6.77343 10.5879 6.7901 10.6145 6.7901H12.2345C12.5612 6.7901 12.7945 6.7201 12.9345 6.5801C13.0745 6.43343 13.2012 6.17343 13.3145 5.8001L13.5745 5.9501C13.5745 6.40343 13.4712 6.98676 13.2645 7.7001C13.0579 7.62676 12.5479 7.5901 11.7345 7.5901H11.0045C10.1912 7.5901 9.5712 7.60676 9.14453 7.6401C9.1112 7.5601 9.09453 7.47676 9.09453 7.3901C9.1612 7.3301 9.3212 7.19343 9.57453 6.9801C10.0812 6.56676 10.5712 6.0701 11.0445 5.4901C11.8845 4.4501 12.3045 3.50676 12.3045 2.6601ZM14.3715 4.2501C14.3715 3.64343 14.4715 3.07343 14.6715 2.5401C14.8715 2.0001 15.1715 1.55343 15.5715 1.2001C15.9782 0.846764 16.4415 0.670097 16.9615 0.670097C17.7348 0.670097 18.3682 1.00343 18.8615 1.6701C19.3548 2.3301 19.6015 3.15343 19.6015 4.1401C19.6015 5.1201 19.3615 5.96343 18.8815 6.6701C18.4015 7.3701 17.7715 7.7201 16.9915 7.7201C16.2115 7.7201 15.5782 7.4001 15.0915 6.7601C14.6115 6.11343 14.3715 5.27676 14.3715 4.2501ZM17.1715 7.2201C17.4182 7.2201 17.6315 7.14343 17.8115 6.9901C17.9982 6.83676 18.1415 6.62676 18.2415 6.3601C18.4482 5.82676 18.5515 5.1901 18.5515 4.4501C18.5515 3.61676 18.4415 2.8801 18.2215 2.2401C18.1082 1.9001 17.9348 1.63343 17.7015 1.4401C17.4682 1.2401 17.1915 1.1401 16.8715 1.1401C16.5515 1.1401 16.2815 1.2801 16.0615 1.5601C15.6348 2.09343 15.4215 2.86343 15.4215 3.8701C15.4215 6.10343 16.0048 7.2201 17.1715 7.2201ZM23.3592 2.6601C23.3592 2.2601 23.2392 1.94343 22.9992 1.7101C22.7592 1.47676 22.4659 1.3601 22.1192 1.3601C21.7792 1.3601 21.4992 1.4401 21.2792 1.6001C21.0592 1.75343 20.8326 1.99676 20.5992 2.3301C20.5459 2.3301 20.4859 2.31343 20.4192 2.2801C20.3526 2.2401 20.3359 2.18676 20.3692 2.1201C20.5492 1.7001 20.8292 1.35676 21.2092 1.0901C21.5892 0.816764 22.0326 0.680097 22.5392 0.680097C23.0459 0.680097 23.4759 0.840097 23.8292 1.1601C24.1892 1.47343 24.3692 1.8801 24.3692 2.3801C24.3692 3.20676 23.9526 4.10676 23.1192 5.0801C22.6392 5.64676 22.1426 6.2001 21.6292 6.7401C21.6292 6.77343 21.6426 6.7901 21.6692 6.7901H23.2892C23.6159 6.7901 23.8492 6.7201 23.9892 6.5801C24.1292 6.43343 24.2559 6.17343 24.3692 5.8001L24.6292 5.9501C24.6292 6.40343 24.5259 6.98676 24.3192 7.7001C24.1126 7.62676 23.6026 7.5901 22.7892 7.5901H22.0592C21.2459 7.5901 20.6259 7.60676 20.1992 7.6401C20.1659 7.5601 20.1492 7.47676 20.1492 7.3901C20.2159 7.3301 20.3759 7.19343 20.6292 6.9801C21.1359 6.56676 21.6259 6.0701 22.0992 5.4901C22.9392 4.4501 23.3592 3.50676 23.3592 2.6601ZM27.0462 0.810097H27.8862C28.1662 0.810097 28.3662 0.773431 28.4862 0.700097C28.6128 0.620097 28.7262 0.446764 28.8262 0.180097L29.0762 0.320097C29.0762 0.433431 29.0495 0.643431 28.9962 0.950097C28.9895 0.983431 28.9162 1.22343 28.7762 1.6701C28.5362 1.6101 27.7728 1.5801 26.4862 1.5801L26.1462 2.8001C27.1062 2.88676 27.8062 3.1201 28.2462 3.5001C28.6928 3.8801 28.9162 4.33343 28.9162 4.8601C28.9162 5.38676 28.7495 5.86343 28.4162 6.2901C28.0828 6.71676 27.6762 7.0401 27.1962 7.2601C26.7228 7.47343 26.2395 7.58676 25.7462 7.6001C25.6995 7.6001 25.6762 7.54676 25.6762 7.4401C25.6762 7.32676 25.6928 7.2701 25.7262 7.2701C26.3795 7.16343 26.9328 6.93343 27.3862 6.5801C27.8395 6.2201 28.0662 5.74676 28.0662 5.1601C28.0662 4.66676 27.8128 4.27676 27.3062 3.9901C26.7995 3.70343 26.1895 3.5601 25.4762 3.5601L26.1462 0.950097C26.1662 0.856764 26.2062 0.780097 26.2662 0.720097C26.4995 0.780097 26.7595 0.810097 27.0462 0.810097ZM31.8629 4.1501C31.8629 3.11676 32.2229 2.2301 32.9429 1.4901C33.6696 0.750097 34.5596 0.380097 35.6129 0.380097C36.6662 0.380097 37.5262 0.71343 38.1929 1.3801C38.8596 2.0401 39.1929 2.9101 39.1929 3.9901C39.1929 4.82343 38.9562 5.56343 38.4829 6.2101C38.0162 6.85676 37.4062 7.30343 36.6529 7.5501C36.5662 7.57676 36.4462 7.59676 36.2929 7.6101C37.0329 7.75676 37.7562 8.01676 38.4629 8.3901C38.7096 8.52343 39.0162 8.6401 39.3829 8.7401C39.7562 8.8401 40.0829 8.8901 40.3629 8.8901C40.9096 8.8901 41.3796 8.8101 41.7729 8.6501C41.7796 8.64343 41.7896 8.6401 41.8029 8.6401C41.8229 8.6401 41.8396 8.64676 41.8529 8.6601L42.0529 8.9101C41.3996 9.32343 40.6562 9.5301 39.8229 9.5301C39.4229 9.5301 39.0329 9.4801 38.6529 9.3801C38.2729 9.28676 37.9696 9.18343 37.7429 9.0701C37.5162 8.96343 37.2329 8.81676 36.8929 8.6301C36.5529 8.44343 36.2096 8.2701 35.8629 8.1101C35.5229 7.9501 34.9862 7.7601 34.2529 7.5401C33.5262 7.3201 32.9462 6.91343 32.5129 6.3201C32.0796 5.7201 31.8629 4.99676 31.8629 4.1501ZM35.7629 7.2201C36.5029 7.2201 37.0829 6.9501 37.5029 6.4101C37.9296 5.86343 38.1429 5.17676 38.1429 4.3501C38.1429 2.9701 37.7296 1.96676 36.9029 1.3401C36.4762 1.01343 35.9562 0.850098 35.3429 0.850098C34.6029 0.850098 34.0129 1.1301 33.5729 1.6901C33.1329 2.2501 32.9129 2.9401 32.9129 3.7601C32.9129 4.6801 33.1362 5.47343 33.5829 6.1401C33.8029 6.47343 34.0996 6.73676 34.4729 6.9301C34.8529 7.12343 35.2829 7.2201 35.7629 7.2201ZM42.0809 7.7201C41.1275 7.7201 40.6509 7.21676 40.6509 6.2101V3.9901C40.6509 3.87676 40.6175 3.8001 40.5509 3.7601C40.4842 3.71343 40.3342 3.67676 40.1009 3.6501L40.0309 3.2701C40.2109 3.2901 40.4542 3.3001 40.7609 3.3001C41.0742 3.3001 41.3209 3.2901 41.5009 3.2701V5.8701C41.5009 6.64343 41.8542 7.0301 42.5609 7.0301C42.7475 7.0301 42.9375 6.99343 43.1309 6.9201C43.3242 6.8401 43.4775 6.74343 43.5909 6.6301V3.9901C43.5909 3.8701 43.5575 3.7901 43.4909 3.7501C43.4309 3.7101 43.2875 3.67676 43.0609 3.6501L42.9709 3.2701C43.1375 3.2901 43.3809 3.3001 43.7009 3.3001C44.0275 3.3001 44.2742 3.2901 44.4409 3.2701V6.4801C44.4409 6.7001 44.4742 6.8601 44.5409 6.9601C44.6142 7.0601 44.7309 7.1101 44.8909 7.1101H45.2509L45.3209 7.4301C45.2409 7.44343 45.0942 7.46676 44.8809 7.5001C44.6742 7.52676 44.5309 7.54676 44.4509 7.5601C44.3709 7.57343 44.2575 7.6001 44.1109 7.6401C43.9709 7.68676 43.8642 7.71676 43.7909 7.7301C43.7042 7.7301 43.6609 7.70676 43.6609 7.6601L43.6309 7.0401C43.5242 7.14676 43.4509 7.21676 43.4109 7.2501C43.3709 7.27676 43.3142 7.31676 43.2409 7.3701C43.1742 7.42343 43.1009 7.46676 43.0209 7.5001C42.9475 7.53343 42.8609 7.56676 42.7609 7.6001C42.5609 7.6801 42.3342 7.7201 42.0809 7.7201ZM47.507 7.1601C47.847 7.1601 48.1004 7.04676 48.267 6.8201V5.7001C47.6937 5.8001 47.3104 5.91343 47.117 6.0401C46.9237 6.1601 46.827 6.33343 46.827 6.5601C46.8404 6.76676 46.9104 6.9201 47.037 7.0201C47.1637 7.11343 47.3204 7.1601 47.507 7.1601ZM49.537 7.1001H49.747C49.7804 7.1001 49.8037 7.09676 49.817 7.0901C49.8437 7.26343 49.867 7.3701 49.887 7.4101C49.807 7.4501 49.6237 7.51343 49.337 7.6001C49.057 7.6801 48.8504 7.7201 48.717 7.7201C48.5837 7.7201 48.4904 7.67343 48.437 7.5801C48.3837 7.4801 48.3437 7.30676 48.317 7.0601C48.2037 7.2201 48.0337 7.36676 47.807 7.5001C47.587 7.63343 47.3637 7.70676 47.137 7.7201H47.087C46.767 7.7201 46.4904 7.6301 46.257 7.4501C46.0304 7.2701 45.917 7.0101 45.917 6.6701C45.917 6.3301 46.0737 6.0701 46.387 5.8901C46.707 5.70343 47.3337 5.52343 48.267 5.3501V4.7501C48.267 4.0301 47.997 3.6701 47.457 3.6701C47.2704 3.6701 47.0937 3.71676 46.927 3.8101V4.4901C46.927 4.52343 46.837 4.55676 46.657 4.5901C46.4837 4.62343 46.367 4.6401 46.307 4.6401C46.2537 4.6401 46.2004 4.63343 46.147 4.6201C46.0937 4.56676 46.067 4.44676 46.067 4.2601C46.067 4.07343 46.1204 3.9201 46.227 3.8001C46.327 3.66676 46.567 3.5301 46.947 3.3901C47.327 3.2501 47.6237 3.1801 47.837 3.1801C48.677 3.1801 49.097 3.65343 49.097 4.6001V6.6001C49.097 6.81343 49.137 6.9501 49.217 7.0101C49.3037 7.0701 49.4104 7.1001 49.537 7.1001ZM51.379 7.6001L50.299 7.6301L50.219 7.2301C50.539 7.20343 50.729 7.17676 50.789 7.1501C50.8557 7.11676 50.889 7.0301 50.889 6.8901V1.3901C50.889 1.1701 50.849 1.0201 50.769 0.940098C50.6957 0.860097 50.5923 0.820097 50.459 0.820097C50.3323 0.820097 50.2457 0.823431 50.199 0.830097L50.109 0.530097C50.6223 0.376764 51.1057 0.200097 51.559 9.71556e-05C51.679 9.71556e-05 51.739 0.0634305 51.739 0.190097V6.8901C51.739 7.0101 51.7723 7.09343 51.839 7.1401C51.9057 7.1801 52.0557 7.2101 52.289 7.2301L52.379 7.6301L51.379 7.6001ZM54.1657 7.6001L53.0857 7.6301L53.0057 7.2301C53.3257 7.20343 53.5157 7.17676 53.5757 7.1501C53.6424 7.11676 53.6757 7.0301 53.6757 6.8901V4.3501C53.6757 4.01676 53.509 3.8501 53.1757 3.8501C53.0957 3.8501 53.0324 3.85343 52.9857 3.8601L52.8957 3.5701C53.329 3.46343 53.6057 3.38676 53.7257 3.3401L54.3357 3.1001C54.4224 3.1001 54.4757 3.1101 54.4957 3.1301C54.5157 3.14343 54.5257 3.18676 54.5257 3.2601V6.8901C54.5257 7.0101 54.5557 7.09343 54.6157 7.1401C54.6757 7.1801 54.8224 7.2101 55.0557 7.2301L55.1457 7.6301L54.1657 7.6001ZM54.1057 1.9201C53.939 1.9201 53.799 1.8701 53.6857 1.7701C53.579 1.66343 53.5257 1.52676 53.5257 1.3601C53.5257 1.19343 53.5824 1.0501 53.6957 0.930097C53.809 0.810097 53.949 0.750097 54.1157 0.750097C54.289 0.750097 54.429 0.800097 54.5357 0.900097C54.649 1.0001 54.7057 1.13676 54.7057 1.3101C54.7057 1.47676 54.6457 1.6201 54.5257 1.7401C54.4124 1.8601 54.2724 1.9201 54.1057 1.9201ZM56.0554 3.9101L55.9054 3.9201L55.8154 3.6301C56.2821 3.51676 56.6254 3.40343 56.8454 3.2901C57.0654 3.17676 57.1887 3.11343 57.2154 3.1001C57.3021 3.1001 57.3521 3.10676 57.3654 3.1201C57.3921 3.14676 57.4121 3.3601 57.4254 3.7601C57.9587 3.37343 58.4421 3.1801 58.8754 3.1801C59.4487 3.1801 59.8487 3.3801 60.0754 3.7801C60.6354 3.3801 61.1554 3.1801 61.6354 3.1801C62.6021 3.1801 63.0854 3.67676 63.0854 4.6701V6.8901C63.0854 7.0101 63.1154 7.09343 63.1754 7.1401C63.2354 7.1801 63.3821 7.2101 63.6154 7.2301L63.7054 7.6301L62.7254 7.6001L61.6454 7.6301L61.5654 7.2301C61.8854 7.20343 62.0754 7.17676 62.1354 7.1501C62.2021 7.11676 62.2354 7.0301 62.2354 6.8901V5.0101C62.2354 4.58343 62.1521 4.28676 61.9854 4.1201C61.8187 3.94676 61.5587 3.8601 61.2054 3.8601C60.8587 3.8601 60.5287 3.9701 60.2154 4.1901C60.2487 4.35676 60.2654 4.51676 60.2654 4.6701V6.8901C60.2654 7.0101 60.2954 7.09343 60.3554 7.1401C60.4154 7.1801 60.5621 7.2101 60.7954 7.2301L60.8854 7.6301L59.9054 7.6001L58.8254 7.6301L58.7454 7.2301C59.0654 7.20343 59.2554 7.17676 59.3154 7.1501C59.3821 7.11676 59.4154 7.0301 59.4154 6.8901V5.0101C59.4154 4.58343 59.3321 4.28343 59.1654 4.1101C59.0054 3.93676 58.7654 3.8501 58.4454 3.8501C58.1254 3.8501 57.7921 3.94343 57.4454 4.1301V6.8901C57.4454 7.0101 57.4754 7.09343 57.5354 7.1401C57.5954 7.1801 57.7421 7.2101 57.9754 7.2301L58.0654 7.6301L57.0854 7.6001L56.0054 7.6301L55.9254 7.2301C56.2454 7.20343 56.4354 7.17676 56.4954 7.1501C56.5621 7.11676 56.5954 7.0301 56.5954 6.8901V4.5501C56.5954 4.3101 56.5521 4.14343 56.4654 4.0501C56.3787 3.95676 56.2421 3.9101 56.0554 3.9101ZM68.1138 5.1701H65.2138V5.3001C65.2138 5.78676 65.3505 6.2101 65.6238 6.5701C65.8972 6.92343 66.2605 7.1001 66.7138 7.1001C67.1672 7.1001 67.5405 6.95343 67.8338 6.6601C67.8538 6.6401 67.8705 6.6301 67.8838 6.6301C67.8972 6.6301 67.9138 6.6401 67.9338 6.6601L68.1538 6.9101C67.6538 7.4501 67.0738 7.7201 66.4138 7.7201C65.7605 7.7201 65.2438 7.51343 64.8638 7.1001C64.4905 6.68676 64.3038 6.13676 64.3038 5.4501C64.3038 4.75676 64.5172 4.20676 64.9438 3.8001C65.3705 3.38676 65.8572 3.1801 66.4038 3.1801C66.9505 3.1801 67.3805 3.34676 67.6938 3.6801C68.0072 4.00676 68.1638 4.46676 68.1638 5.0601C68.1638 5.13343 68.1472 5.1701 68.1138 5.1701ZM67.1638 4.7001C67.1638 3.96676 66.8805 3.6001 66.3138 3.6001C66.0138 3.6001 65.7705 3.70676 65.5838 3.9201C65.3972 4.12676 65.2838 4.38676 65.2438 4.7001H67.1638ZM70.0837 6.1901C70.0837 6.5101 70.1403 6.75676 70.2537 6.9301C70.367 7.09676 70.5203 7.1801 70.7137 7.1801C70.9137 7.1801 71.097 7.12676 71.2637 7.0201C71.2903 7.00676 71.317 7.01343 71.3437 7.0401L71.5237 7.3101C71.157 7.58343 70.777 7.7201 70.3837 7.7201C69.997 7.7201 69.707 7.6001 69.5137 7.3601C69.327 7.11343 69.2337 6.82343 69.2337 6.4901V3.9801C69.2337 3.9001 69.2203 3.8501 69.1937 3.8301C69.1737 3.8101 69.1437 3.8001 69.1037 3.8001H68.7537L68.6637 3.5101C68.9437 3.42343 69.1703 3.28343 69.3437 3.0901C69.5237 2.89676 69.697 2.63676 69.8637 2.3101H69.9737C70.0203 2.3101 70.0437 2.3301 70.0437 2.3701L70.0837 3.1701C70.0837 3.25676 70.127 3.3001 70.2137 3.3001H71.3537L71.4437 3.8001H70.1937C70.127 3.8001 70.0937 3.8501 70.0937 3.9501C70.0937 3.95676 70.0937 3.9601 70.0937 3.9601V3.9801L70.0837 6.1901ZM75.9654 5.1701H73.0654V5.3001C73.0654 5.78676 73.2021 6.2101 73.4754 6.5701C73.7487 6.92343 74.1121 7.1001 74.5654 7.1001C75.0187 7.1001 75.3921 6.95343 75.6854 6.6601C75.7054 6.6401 75.7221 6.6301 75.7354 6.6301C75.7487 6.6301 75.7654 6.6401 75.7854 6.6601L76.0054 6.9101C75.5054 7.4501 74.9254 7.7201 74.2654 7.7201C73.6121 7.7201 73.0954 7.51343 72.7154 7.1001C72.3421 6.68676 72.1554 6.13676 72.1554 5.4501C72.1554 4.75676 72.3687 4.20676 72.7954 3.8001C73.2221 3.38676 73.7087 3.1801 74.2554 3.1801C74.8021 3.1801 75.2321 3.34676 75.5454 3.6801C75.8587 4.00676 76.0154 4.46676 76.0154 5.0601C76.0154 5.13343 75.9987 5.1701 75.9654 5.1701ZM75.0154 4.7001C75.0154 3.96676 74.7321 3.6001 74.1654 3.6001C73.8654 3.6001 73.6221 3.70676 73.4354 3.9201C73.2487 4.12676 73.1354 4.38676 73.0954 4.7001H75.0154ZM76.9052 3.9101L76.7552 3.9201L76.6652 3.6301C77.1319 3.51676 77.4752 3.40343 77.6952 3.2901C77.9152 3.17676 78.0386 3.11343 78.0652 3.1001C78.1519 3.1001 78.2052 3.10676 78.2252 3.1201C78.2319 3.13343 78.2519 3.38676 78.2852 3.8801C78.6786 3.41343 79.0686 3.1801 79.4552 3.1801C79.8419 3.1801 80.0752 3.25676 80.1552 3.4101C80.1552 3.55676 80.0386 3.7801 79.8052 4.0801C79.7319 4.1801 79.6886 4.2301 79.6752 4.2301L78.8752 3.9401H78.8152C78.6686 3.9401 78.5452 4.01343 78.4452 4.1601C78.3452 4.30676 78.2952 4.51343 78.2952 4.7801V6.8901C78.2952 7.0101 78.3452 7.09676 78.4452 7.1501C78.5452 7.20343 78.7519 7.2301 79.0652 7.2301L79.1552 7.6301L77.9952 7.6001L76.8552 7.6301L76.7752 7.2301C77.0952 7.20343 77.2852 7.17676 77.3452 7.1501C77.4119 7.11676 77.4452 7.0301 77.4452 6.8901V4.5501C77.4452 4.3101 77.4019 4.14343 77.3152 4.0501C77.2286 3.95676 77.0919 3.9101 76.9052 3.9101ZM81.2843 7.6501C81.1243 7.6501 80.991 7.6001 80.8843 7.5001C80.7776 7.39343 80.7243 7.2601 80.7243 7.1001C80.7243 6.9401 80.781 6.80343 80.8943 6.6901C81.0076 6.5701 81.1476 6.5101 81.3143 6.5101C81.481 6.5101 81.6143 6.5601 81.7143 6.6601C81.821 6.75343 81.8743 6.88343 81.8743 7.0501C81.8743 7.2101 81.8176 7.3501 81.7043 7.4701C81.591 7.5901 81.451 7.6501 81.2843 7.6501ZM87.4514 0.460097C88.0447 0.460097 88.5414 0.516764 88.9414 0.630097C89.3481 0.743431 89.6514 0.930098 89.8514 1.1901C90.0581 1.4501 90.1614 1.79676 90.1614 2.2301C90.1614 2.5101 90.1081 2.7601 90.0014 2.9801C89.9014 3.19343 89.7481 3.37343 89.5414 3.5201C89.3414 3.6601 89.0947 3.75676 88.8014 3.8101V3.8601C89.1014 3.90676 89.3714 3.99343 89.6114 4.1201C89.8581 4.24676 90.0514 4.42676 90.1914 4.6601C90.3314 4.89343 90.4014 5.19676 90.4014 5.5701C90.4014 6.00343 90.3014 6.37343 90.1014 6.6801C89.9014 6.9801 89.6147 7.2101 89.2414 7.3701C88.8747 7.52343 88.4347 7.6001 87.9214 7.6001H85.4114V0.460097H87.4514ZM87.6314 3.5001C88.2447 3.5001 88.6647 3.40343 88.8914 3.2101C89.1181 3.0101 89.2314 2.71676 89.2314 2.3301C89.2314 1.93676 89.0914 1.65676 88.8114 1.4901C88.5381 1.31676 88.0981 1.2301 87.4914 1.2301H86.3114V3.5001H87.6314ZM86.3114 4.2501V6.8401H87.7514C88.3847 6.8401 88.8247 6.71676 89.0714 6.4701C89.3181 6.22343 89.4414 5.9001 89.4414 5.5001C89.4414 5.24676 89.3847 5.02676 89.2714 4.8401C89.1647 4.65343 88.9814 4.5101 88.7214 4.4101C88.4681 4.30343 88.1214 4.2501 87.6814 4.2501H86.3114ZM93.9453 7.7001C93.472 7.7001 93.0486 7.60343 92.6753 7.4101C92.3086 7.21676 92.0186 6.91676 91.8053 6.5101C91.5986 6.10343 91.4953 5.58343 91.4953 4.9501C91.4953 4.2901 91.6053 3.75343 91.8253 3.3401C92.0453 2.92676 92.342 2.62343 92.7153 2.4301C93.0953 2.23676 93.5253 2.1401 94.0053 2.1401C94.2786 2.1401 94.542 2.1701 94.7953 2.2301C95.0486 2.28343 95.2553 2.3501 95.4153 2.4301L95.1453 3.1601C94.9853 3.1001 94.7986 3.04343 94.5853 2.9901C94.372 2.93676 94.172 2.9101 93.9853 2.9101C93.6253 2.9101 93.3286 2.98676 93.0953 3.1401C92.862 3.29343 92.6886 3.5201 92.5753 3.8201C92.462 4.1201 92.4053 4.49343 92.4053 4.9401C92.4053 5.36676 92.462 5.7301 92.5753 6.0301C92.6886 6.3301 92.8586 6.55676 93.0853 6.7101C93.312 6.86343 93.5953 6.9401 93.9353 6.9401C94.2286 6.9401 94.4853 6.9101 94.7053 6.8501C94.932 6.7901 95.1386 6.71676 95.3253 6.6301V7.4101C95.1453 7.50343 94.9453 7.57343 94.7253 7.6201C94.512 7.67343 94.252 7.7001 93.9453 7.7001ZM98.67 2.1401C99.13 2.1401 99.5233 2.2401 99.85 2.4401C100.183 2.6401 100.437 2.92343 100.61 3.2901C100.79 3.6501 100.88 4.07343 100.88 4.5601V5.0901H97.21C97.2233 5.69676 97.3767 6.1601 97.67 6.4801C97.97 6.79343 98.3867 6.9501 98.92 6.9501C99.26 6.9501 99.56 6.9201 99.82 6.8601C100.087 6.79343 100.36 6.7001 100.64 6.5801V7.3501C100.367 7.4701 100.097 7.55676 99.83 7.6101C99.5633 7.6701 99.2467 7.7001 98.88 7.7001C98.3733 7.7001 97.9233 7.59676 97.53 7.3901C97.1433 7.18343 96.84 6.87676 96.62 6.4701C96.4067 6.05676 96.3 5.55343 96.3 4.9601C96.3 4.37343 96.3967 3.8701 96.59 3.4501C96.79 3.0301 97.0667 2.70676 97.42 2.4801C97.78 2.25343 98.1967 2.1401 98.67 2.1401ZM98.66 2.8601C98.24 2.8601 97.9067 2.99676 97.66 3.2701C97.42 3.53676 97.2767 3.9101 97.23 4.3901H99.96C99.96 4.08343 99.9133 3.81676 99.82 3.5901C99.7267 3.36343 99.5833 3.18676 99.39 3.0601C99.2033 2.92676 98.96 2.8601 98.66 2.8601ZM108.757 2.2401V7.6001H107.877V2.9901H105.107V7.6001H104.227V2.2401H108.757ZM113.017 2.1401C113.677 2.1401 114.207 2.3701 114.607 2.8301C115.014 3.2901 115.217 3.98343 115.217 4.9101C115.217 5.51676 115.124 6.0301 114.937 6.4501C114.757 6.86343 114.501 7.17676 114.167 7.3901C113.841 7.59676 113.454 7.7001 113.007 7.7001C112.734 7.7001 112.491 7.66343 112.277 7.5901C112.064 7.51676 111.881 7.42343 111.727 7.3101C111.581 7.1901 111.454 7.0601 111.347 6.9201H111.287C111.301 7.03343 111.314 7.17676 111.327 7.3501C111.341 7.52343 111.347 7.67343 111.347 7.8001V10.0001H110.467V2.2401H111.187L111.307 2.9701H111.347C111.454 2.81676 111.581 2.67676 111.727 2.5501C111.881 2.42343 112.061 2.32343 112.267 2.2501C112.481 2.17676 112.731 2.1401 113.017 2.1401ZM112.857 2.8801C112.497 2.8801 112.207 2.9501 111.987 3.0901C111.767 3.22343 111.607 3.42676 111.507 3.7001C111.407 3.97343 111.354 4.3201 111.347 4.7401V4.9101C111.347 5.3501 111.394 5.72343 111.487 6.0301C111.581 6.33676 111.737 6.5701 111.957 6.7301C112.184 6.8901 112.491 6.9701 112.877 6.9701C113.204 6.9701 113.471 6.8801 113.677 6.7001C113.891 6.5201 114.047 6.27676 114.147 5.9701C114.254 5.65676 114.307 5.3001 114.307 4.9001C114.307 4.28676 114.187 3.79676 113.947 3.4301C113.714 3.06343 113.351 2.8801 112.857 2.8801ZM118.65 2.1501C119.303 2.1501 119.786 2.29343 120.1 2.5801C120.413 2.86676 120.57 3.32343 120.57 3.9501V7.6001H119.93L119.76 6.8401H119.72C119.566 7.03343 119.406 7.19676 119.24 7.3301C119.08 7.45676 118.893 7.5501 118.68 7.6101C118.473 7.6701 118.22 7.7001 117.92 7.7001C117.6 7.7001 117.31 7.64343 117.05 7.5301C116.796 7.41676 116.596 7.24343 116.45 7.0101C116.303 6.7701 116.23 6.4701 116.23 6.1101C116.23 5.57676 116.44 5.16676 116.86 4.8801C117.28 4.58676 117.926 4.42676 118.8 4.4001L119.71 4.3701V4.0501C119.71 3.60343 119.613 3.29343 119.42 3.1201C119.226 2.94676 118.953 2.8601 118.6 2.8601C118.32 2.8601 118.053 2.90343 117.8 2.9901C117.546 3.0701 117.31 3.16343 117.09 3.2701L116.82 2.6101C117.053 2.48343 117.33 2.37676 117.65 2.2901C117.97 2.19676 118.303 2.1501 118.65 2.1501ZM118.91 5.0101C118.243 5.03676 117.78 5.14343 117.52 5.3301C117.266 5.51676 117.14 5.7801 117.14 6.1201C117.14 6.4201 117.23 6.6401 117.41 6.7801C117.596 6.9201 117.833 6.9901 118.12 6.9901C118.573 6.9901 118.95 6.86676 119.25 6.6201C119.55 6.36676 119.7 5.9801 119.7 5.4601V4.9801L118.91 5.0101ZM126.535 3.5901C126.535 3.92343 126.435 4.18343 126.235 4.3701C126.035 4.55676 125.778 4.68343 125.465 4.7501V4.7901C125.798 4.83676 126.088 4.95676 126.335 5.1501C126.582 5.33676 126.705 5.6301 126.705 6.0301C126.705 6.25676 126.662 6.46676 126.575 6.6601C126.495 6.85343 126.368 7.0201 126.195 7.1601C126.022 7.3001 125.798 7.4101 125.525 7.4901C125.252 7.56343 124.922 7.6001 124.535 7.6001H122.225V2.2401H124.525C124.905 2.2401 125.245 2.28343 125.545 2.3701C125.852 2.4501 126.092 2.5901 126.265 2.7901C126.445 2.98343 126.535 3.2501 126.535 3.5901ZM125.795 6.0301C125.795 5.72343 125.678 5.50343 125.445 5.3701C125.212 5.23676 124.868 5.1701 124.415 5.1701H123.105V6.8901H124.435C124.875 6.8901 125.212 6.82676 125.445 6.7001C125.678 6.56676 125.795 6.34343 125.795 6.0301ZM125.645 3.7001C125.645 3.44676 125.552 3.26343 125.365 3.1501C125.185 3.0301 124.888 2.9701 124.475 2.9701H123.105V4.4401H124.315C124.748 4.4401 125.078 4.3801 125.305 4.2601C125.532 4.1401 125.645 3.95343 125.645 3.7001ZM130.017 2.1501C130.67 2.1501 131.153 2.29343 131.467 2.5801C131.78 2.86676 131.937 3.32343 131.937 3.9501V7.6001H131.297L131.127 6.8401H131.087C130.933 7.03343 130.773 7.19676 130.607 7.3301C130.447 7.45676 130.26 7.5501 130.047 7.6101C129.84 7.6701 129.587 7.7001 129.287 7.7001C128.967 7.7001 128.677 7.64343 128.417 7.5301C128.163 7.41676 127.963 7.24343 127.817 7.0101C127.67 6.7701 127.597 6.4701 127.597 6.1101C127.597 5.57676 127.807 5.16676 128.227 4.8801C128.647 4.58676 129.293 4.42676 130.167 4.4001L131.077 4.3701V4.0501C131.077 3.60343 130.98 3.29343 130.787 3.1201C130.593 2.94676 130.32 2.8601 129.967 2.8601C129.687 2.8601 129.42 2.90343 129.167 2.9901C128.913 3.0701 128.677 3.16343 128.457 3.2701L128.187 2.6101C128.42 2.48343 128.697 2.37676 129.017 2.2901C129.337 2.19676 129.67 2.1501 130.017 2.1501ZM130.277 5.0101C129.61 5.03676 129.147 5.14343 128.887 5.3301C128.633 5.51676 128.507 5.7801 128.507 6.1201C128.507 6.4201 128.597 6.6401 128.777 6.7801C128.963 6.9201 129.2 6.9901 129.487 6.9901C129.94 6.9901 130.317 6.86676 130.617 6.6201C130.917 6.36676 131.067 5.9801 131.067 5.4601V4.9801L130.277 5.0101ZM136.985 2.1401C137.391 2.1401 137.745 2.19676 138.045 2.3101C138.345 2.41676 138.578 2.57676 138.745 2.7901C138.911 2.99676 138.995 3.2501 138.995 3.5501C138.995 3.87676 138.905 4.13676 138.725 4.3301C138.545 4.51676 138.298 4.65343 137.985 4.7401V4.7801C138.198 4.8401 138.395 4.92343 138.575 5.0301C138.755 5.13676 138.898 5.27676 139.005 5.4501C139.118 5.62343 139.175 5.84676 139.175 6.1201C139.175 6.41343 139.091 6.6801 138.925 6.9201C138.765 7.1601 138.515 7.3501 138.175 7.4901C137.841 7.6301 137.411 7.7001 136.885 7.7001C136.631 7.7001 136.388 7.68676 136.155 7.6601C135.928 7.63343 135.721 7.59343 135.535 7.5401C135.355 7.48676 135.195 7.42343 135.055 7.3501V6.5601C135.281 6.66676 135.548 6.76343 135.855 6.8501C136.168 6.93676 136.508 6.9801 136.875 6.9801C137.141 6.9801 137.381 6.9501 137.595 6.8901C137.815 6.8301 137.988 6.73676 138.115 6.6101C138.241 6.47676 138.305 6.29676 138.305 6.0701C138.305 5.86343 138.248 5.69676 138.135 5.5701C138.021 5.43676 137.851 5.33676 137.625 5.2701C137.405 5.20343 137.121 5.1701 136.775 5.1701H136.055V4.4501H136.635C137.095 4.4501 137.461 4.3901 137.735 4.2701C138.015 4.14343 138.155 3.9301 138.155 3.6301C138.155 3.37676 138.048 3.18676 137.835 3.0601C137.628 2.93343 137.328 2.8701 136.935 2.8701C136.641 2.8701 136.381 2.9001 136.155 2.9601C135.935 3.01343 135.691 3.09676 135.425 3.2101L135.115 2.5101C135.401 2.38343 135.701 2.2901 136.015 2.2301C136.328 2.1701 136.651 2.1401 136.985 2.1401ZM142.507 2.1501C143.16 2.1501 143.644 2.29343 143.957 2.5801C144.27 2.86676 144.427 3.32343 144.427 3.9501V7.6001H143.787L143.617 6.8401H143.577C143.424 7.03343 143.264 7.19676 143.097 7.3301C142.937 7.45676 142.75 7.5501 142.537 7.6101C142.33 7.6701 142.077 7.7001 141.777 7.7001C141.457 7.7001 141.167 7.64343 140.907 7.5301C140.654 7.41676 140.454 7.24343 140.307 7.0101C140.16 6.7701 140.087 6.4701 140.087 6.1101C140.087 5.57676 140.297 5.16676 140.717 4.8801C141.137 4.58676 141.784 4.42676 142.657 4.4001L143.567 4.3701V4.0501C143.567 3.60343 143.47 3.29343 143.277 3.1201C143.084 2.94676 142.81 2.8601 142.457 2.8601C142.177 2.8601 141.91 2.90343 141.657 2.9901C141.404 3.0701 141.167 3.16343 140.947 3.2701L140.677 2.6101C140.91 2.48343 141.187 2.37676 141.507 2.2901C141.827 2.19676 142.16 2.1501 142.507 2.1501ZM142.767 5.0101C142.1 5.03676 141.637 5.14343 141.377 5.3301C141.124 5.51676 140.997 5.7801 140.997 6.1201C140.997 6.4201 141.087 6.6401 141.267 6.7801C141.454 6.9201 141.69 6.9901 141.977 6.9901C142.43 6.9901 142.807 6.86676 143.107 6.6201C143.407 6.36676 143.557 5.9801 143.557 5.4601V4.9801L142.767 5.0101ZM153.342 2.2401V6.8701H154.122V9.4501H153.242V7.6001H146.082V2.2401H146.962V6.8601H149.272V2.2401H150.152V6.8601H152.472V2.2401H153.342ZM155.975 5.5101C155.975 5.5701 155.972 5.65676 155.965 5.7701C155.965 5.87676 155.962 5.99343 155.955 6.1201C155.948 6.2401 155.942 6.35676 155.935 6.4701C155.928 6.57676 155.922 6.66343 155.915 6.7301L158.785 2.2401H159.865V7.6001H159.045V4.4401C159.045 4.33343 159.045 4.19343 159.045 4.0201C159.052 3.84676 159.058 3.67676 159.065 3.5101C159.072 3.33676 159.078 3.20676 159.085 3.1201L156.235 7.6001H155.145V2.2401H155.975V5.5101ZM168.831 2.2401V6.8701H169.611V9.4501H168.731V7.6001H161.571V2.2401H162.451V6.8601H164.761V2.2401H165.641V6.8601H167.961V2.2401H168.831ZM172.703 2.1401C173.163 2.1401 173.557 2.2401 173.883 2.4401C174.217 2.6401 174.47 2.92343 174.643 3.2901C174.823 3.6501 174.913 4.07343 174.913 4.5601V5.0901H171.243C171.257 5.69676 171.41 6.1601 171.703 6.4801C172.003 6.79343 172.42 6.9501 172.953 6.9501C173.293 6.9501 173.593 6.9201 173.853 6.8601C174.12 6.79343 174.393 6.7001 174.673 6.5801V7.3501C174.4 7.4701 174.13 7.55676 173.863 7.6101C173.597 7.6701 173.28 7.7001 172.913 7.7001C172.407 7.7001 171.957 7.59676 171.563 7.3901C171.177 7.18343 170.873 6.87676 170.653 6.4701C170.44 6.05676 170.333 5.55343 170.333 4.9601C170.333 4.37343 170.43 3.8701 170.623 3.4501C170.823 3.0301 171.1 2.70676 171.453 2.4801C171.813 2.25343 172.23 2.1401 172.703 2.1401ZM172.693 2.8601C172.273 2.8601 171.94 2.99676 171.693 3.2701C171.453 3.53676 171.31 3.9101 171.263 4.3901H173.993C173.993 4.08343 173.947 3.81676 173.853 3.5901C173.76 3.36343 173.617 3.18676 173.423 3.0601C173.237 2.92676 172.993 2.8601 172.693 2.8601ZM177.158 2.2401V4.4701H180.068V2.2401H180.948V7.6001H180.068V5.2101H177.158V7.6001H176.278V2.2401H177.158ZM182.645 7.6001V2.2401H183.525V4.4401H184.915C185.382 4.4401 185.765 4.49676 186.065 4.6101C186.365 4.72343 186.588 4.89343 186.735 5.1201C186.882 5.3401 186.955 5.6201 186.955 5.9601C186.955 6.29343 186.882 6.58343 186.735 6.8301C186.595 7.07676 186.372 7.26676 186.065 7.4001C185.765 7.53343 185.368 7.6001 184.875 7.6001H182.645ZM184.795 6.8901C185.175 6.8901 185.485 6.82676 185.725 6.7001C185.965 6.56676 186.085 6.33676 186.085 6.0101C186.085 5.68343 185.975 5.46343 185.755 5.3501C185.535 5.2301 185.218 5.1701 184.805 5.1701H183.525V6.8901H184.795ZM187.845 7.6001V2.2401H188.725V7.6001H187.845ZM190.708 7.6501C190.548 7.6501 190.415 7.6001 190.308 7.5001C190.201 7.39343 190.148 7.2601 190.148 7.1001C190.148 6.9401 190.205 6.80343 190.318 6.6901C190.431 6.5701 190.571 6.5101 190.738 6.5101C190.905 6.5101 191.038 6.5601 191.138 6.6601C191.245 6.75343 191.298 6.88343 191.298 7.0501C191.298 7.2101 191.241 7.3501 191.128 7.4701C191.015 7.5901 190.875 7.6501 190.708 7.6501Z" fill="#59667C"/>
</svg>
